<svg xmlns="http://www.w3.org/2000/svg" width="463.662" height="463.662"><path fill="#fff" d="M417.833333 174.057c-15.753 32.344-94.86 181.877-234.826 236.956l21.297 49.95c56.648-24.865 107.59-59.704 151.427-103.558 47.446-47.446 84.212-102.908 109.264-164.856l-47.162-18.492z"/><path fill="#fff" d="M392.822 156.727L0 2.699l164.043 384.79c135.625-53.193 213.098-198.768 228.779-230.762zM102.664 96.039c-3.796 3.804-8.852 5.893-14.225 5.893-5.381 0-10.429-2.089-14.241-5.893-3.796-3.796-5.893-8.86-5.877-14.225 0-5.373 2.081-10.429 5.893-14.241 3.796-3.796 8.852-5.893 14.225-5.893s10.429 2.089 14.225 5.893c7.86 7.844 7.86 20.614 0 28.466zm32.921 117.775c-16.338-16.338-16.347-42.927-.016-59.265 7.909-7.909 18.444-12.266 29.645-12.266s21.736 4.357 29.629 12.266c16.33 16.33 16.33 42.927 0 59.265-7.893 7.909-18.427 12.25-29.621 12.25-11.218 0-21.736-4.341-29.637-12.25zm70.548 122.213c-3.796 3.796-8.86 5.893-14.233 5.893-5.381 0-10.429-2.097-14.225-5.893-7.844-7.86-7.844-20.622 0-28.466 3.796-3.804 8.852-5.901 14.225-5.901s10.437 2.097 14.233 5.901c7.844 7.844 7.844 20.614 0 28.466zm57.981-51.844c-4.593 4.625-10.762 7.161-17.298 7.161-6.56 0-12.705-2.536-17.314-7.161-4.617-4.601-7.161-10.746-7.161-17.306 0-6.552 2.544-12.705 7.161-17.314 4.609-4.609 10.762-7.161 17.314-7.161 6.535 0 12.705 2.544 17.298 7.161 4.625 4.609 7.178 10.762 7.178 17.306-.001 6.568-2.553 12.713-7.178 17.314zm18.297-108.069c5.999-5.983 13.973-9.283 22.467-9.283 8.486 0 16.444 3.292 22.443 9.283 5.983 5.991 9.283 13.957 9.283 22.459 0 8.478-3.292 16.444-9.299 22.435-5.974 5.991-13.94 9.291-22.427 9.291-8.494 0-16.46-3.3-22.451-9.291-12.379-12.388-12.379-32.523-.016-44.894z"/></svg>