<svg xmlns="http://www.w3.org/2000/svg" width="16" height="10.2"><path fill="#bf2634" d="M15.58251 1.260933l-.764538-.764788c-.26494-.251406-.574377-.377144-.927595-.377144-.360503 0-.666261.125739-.917774.377144L8.017408 5.451483 3.062249.496288C2.810772.244882 2.504942.119144 2.144582.119144c-.353397 0-.662761.125739-.927738.377144l-.754503.764788c-.258334.258155-.387429.56752-.387429.927809 0 .367003.129238.672868.387394.917524l6.6374 6.637435c.244799.258191.550522.387394.917667.387394.360253 0 .669582-.129167.927666-.387394l6.637435-6.637435c.251513-.251549.377359-.557378.377359-.917524.000036-.353575-.12581-.662761-.377323-.927952z"/></svg>