<svg xmlns="http://www.w3.org/2000/svg" width="45.005" height="38"><path fill="#fff" d="M30.249 34.676451l-7.399 2.664c-.113.041-.232.062-.35.062s-.237-.021-.35-.062l-7.697-2.771c2.616-2.811 5.431-5.64 8.047-8.45 2.648 2.845 5.1 5.708 7.749 8.557zm14.313-34.362c-.275-.192-.627-.241-.941-.126l-21.121 7.604-21.122-7.604c-.315-.114-.667-.066-.941.126-.274.196-.437.51-.437.845v27.481c0 .435.272.822.681.969l11.283 4.063c3.099-2.886 6.198-5.771 9.297-8.654-.977-1.049-1.953-2.101-2.93-3.148-2.063 1.479-5.119.917-6.957-1.352-1.976-2.395-3.682-6.674-2.031-8.427 1.753-1.652 6.034.056 8.427 2.031 2.269 1.839 2.832 4.893 1.352 6.956 1.062.989 2.315 1.944 3.378 2.935.996-.928 1.796-1.818 2.791-2.743-.84-1.435-.283-3.444 1.084-4.591 1.562-1.312 7.357-6.287 7.516-6.129.154.155-3.91 3.995-6.625 6.718l.453.452c2.898-2.54 6.992-6.35 7.148-6.195.154.156-3.783 4.122-6.408 6.936l.449.45c2.811-2.629 6.775-6.567 6.932-6.413.154.157-3.654 4.249-6.195 7.148l.449.449c2.725-2.715 6.562-6.783 6.717-6.626.156.157-6.117 7.509-6.125 7.52 0-.001 1.332-1.563-.004-.004-1.275 1.493-3.182 1.945-4.59 1.084-.914.982-1.826 1.963-2.741 2.944 3.137 2.921 6.274 5.84 9.413 8.761l11.559-4.162c.41-.146.683-.534.683-.969v-27.484c-.007-.335-.169-.649-.444-.845z"/></svg>