<svg xmlns="http://www.w3.org/2000/svg" version="1" viewBox="0 0 5180 970"><g fill="#319deb"><path d="M90 947c-30-16-51-37-67-67C0 837 0 833 0 485S0 133 23 90c16-30 37-51 67-67l43-23h2455c2429 0 2456 0 2496 20 23 11 52 36 66 57l25 37v370c0 369 0 371-23 408-13 21-40 45-66 57l-42 21H133l-43-23zm4466-178c170-31 287-156 316-336 8-45 18-72 30-81 10-7 23-22 28-32 10-18 8-19-15-10-38 14-39 13-16-16 30-38 26-45-18-29-35 12-41 11-67-6-39-25-109-25-152 1-35 22-62 72-62 116 0 25-2 26-40 21-57-7-158-57-203-100l-38-35-10 26c-14 36-5 85 22 124l23 31-28-7c-27-7-28-6-22 20 10 38 42 81 66 89 11 4 20 11 20 16 0 6-9 7-20 4-51-16 6 60 63 84l40 17-44 21c-24 11-66 24-94 28l-50 8 43 19c80 36 142 43 228 27zm-3493-51c41-21 46-39 47-150 0-87-3-108-14-108-8 0-16 6-19 13-4 10-7 10-18 0-22-21-74-15-103 12-75 69 14 193 105 145 15-9 19-7 19 5 0 50-51 76-100 51-24-11-31-12-40-1-27 32 74 60 123 33zm-308-82c40-17 60-53 51-90-5-20-22-34-64-54-40-19-58-33-60-49-5-31 30-48 71-34 40 14 62-3 33-25-32-23-93-18-121 11-47 46-28 95 51 130 37 16 54 30 54 42 0 39-47 56-92 32-27-14-47 3-29 25 11 13 23 18 64 25 4 0 23-6 42-13zm125-86c0-73-3-90-15-90s-15 17-15 90 3 90 15 90 15-17 15-90zm320 31c0-63 15-91 49-91 30 0 41 22 41 87 0 49 3 63 15 63 23 0 21-136-2-162-18-20-54-23-84-8-13 7-19 7-19 0 0-5-7-10-15-10-12 0-15 17-15 90s3 90 15 90 15-13 15-59zm320-31c0-73-3-90-15-90s-15 17-15 90 3 90 15 90 15-17 15-90zm90 31c0-63 15-91 49-91 30 0 41 22 41 87 0 49 3 63 15 63 23 0 21-136-2-162-18-20-54-23-84-8-13 7-19 7-19 0 0-5-7-10-15-10-12 0-15 17-15 90s3 90 15 90 15-13 15-59zm365 7c10-29 21-57 25-61 4-5 16 18 27 50 14 41 25 59 39 61 16 2 23-10 41-72 13-41 26-81 29-90 4-11 0-16-13-16-14 0-23 15-37 67l-20 67-21-64c-17-50-26-65-41-65s-24 15-40 65l-22 65-18-64c-16-58-35-83-51-67-4 4 5 45 21 91 21 66 31 85 46 85 13 0 23-14 35-52zm225-38c0-73-3-90-15-90s-15 17-15 90 3 90 15 90 15-17 15-90zm150 76c0-8-10-16-22-18-20-3-23-10-26-60-3-56-2-58 23-58 16 0 25-6 25-15s-9-15-25-15c-20 0-25-5-25-25 0-16-6-25-15-25s-15 9-15 25c0 18-5 25-20 25-11 0-20 7-20 15s9 15 20 15c18 0 20 7 20 63 0 36 5 68 12 75 17 17 68 15 68-2zm80-45c0-63 15-91 49-91 30 0 41 22 41 87 0 49 3 63 15 63 23 0 21-136-2-162-18-20-54-23-84-8-18 10-19 7-19-50 0-47-3-60-15-60-13 0-15 22-15 140s2 140 15 140c12 0 15-13 15-59zm380-56V410h40c34 0 40-3 40-20 0-20-5-21-102-18-89 3-103 5-106 21-3 14 4 17 42 17h46v115c0 108 1 115 20 115s20-7 20-115zm165 63c10-29 21-57 25-61 4-5 16 18 27 50 14 41 25 59 39 61 16 2 23-10 41-72 13-41 26-81 29-90 4-11 0-16-13-16-14 0-23 15-37 67l-20 67-21-64c-17-50-26-65-41-65s-24 15-40 65l-22 65-18-64c-16-58-35-83-51-67-4 4 5 45 21 91 21 66 31 85 46 85 13 0 23-14 35-52zm225-38c0-73-3-90-15-90s-15 17-15 90 3 90 15 90 15-17 15-90zm150 76c0-8-10-16-22-18-20-3-23-10-26-60-3-56-2-58 23-58 16 0 25-6 25-15s-9-15-25-15c-20 0-25-5-25-25 0-16-6-25-15-25s-15 9-15 25c0 18-5 25-20 25-11 0-20 7-20 15s9 15 20 15c18 0 20 7 20 63 0 36 5 68 12 75 17 17 68 15 68-2zm140 0c0-8-10-16-22-18-20-3-23-10-26-60-3-56-2-58 23-58 16 0 25-6 25-15s-9-15-25-15c-20 0-25-5-25-25 0-16-6-25-15-25s-15 9-15 25c0 18-5 25-20 25-11 0-20 7-20 15s9 15 20 15c18 0 20 7 20 63 0 36 5 68 12 75 17 17 68 15 68-2zm186 0c15-12 17-17 7-27s-16-10-25-1c-26 26-98 4-98-29 0-5 32-9 70-9 68 0 70-1 70-25 0-38-42-75-85-75-75 0-113 91-64 154 16 21 29 26 63 26 23 0 51-6 62-14zm106-48c3-60 5-64 35-78 34-16 44-40 17-40-8 0-24 5-35 10-13 7-19 7-19 0 0-5-7-10-15-10-12 0-15 17-15 90 0 72 3 90 15 90 10 0 15-16 17-62zM885 410c4-6 1-18-6-26-11-13-14-13-27 0-8 8-11 19-8 25 9 14 33 14 41 1zm640 0c4-6 1-18-6-26-11-13-14-13-27 0-8 8-11 19-8 25 9 14 33 14 41 1zm680 0c4-6 1-18-6-26-11-13-14-13-27 0-8 8-11 19-8 25 9 14 33 14 41 1zm1000 0c4-6 1-18-6-26-11-13-14-13-27 0-8 8-11 19-8 25 9 14 33 14 41 1z"/><path d="M985 596c-11-8-18-26-18-46 0-57 66-82 97-38 43 61-20 127-79 84zm2575-65c0-19 32-41 60-41s57 30 43 44c-10 10-103 7-103-3z"/></g><path fill="#f2f9fe" d="M4413 770c-23-5-61-17-85-28l-43-19 50-8c28-4 70-17 94-28l44-21-40-17c-57-24-114-100-63-84 11 3 20 2 20-4 0-5-9-12-20-16-24-8-56-51-66-89-6-26-5-27 22-20l28 7-23-31c-27-39-36-88-22-124l10-26 38 35c45 43 146 93 203 100 38 5 40 4 40-21 0-44 27-94 62-116 43-26 113-26 152-1 26 17 32 18 67 6 44-16 48-9 18 29-23 29-22 30 16 16 23-9 25-8 15 10-5 10-18 25-28 32-12 9-22 36-30 81-29 180-146 305-316 336-67 12-83 12-143 1zM970 723c-30-11-41-25-30-38 9-11 16-10 40 1 49 25 100-1 100-51 0-12-4-14-19-5-91 48-180-76-105-145 29-27 81-33 103-12 11 10 14 10 18 0 3-7 11-13 19-13 19 0 20 207 1 231-26 34-83 48-127 32zm92-130c22-20 23-51 2-81-31-44-97-19-97 38 0 54 55 79 95 43zm-379 50c-29-6-49-31-36-44 8-8 17-8 31 0 45 24 92 7 92-32 0-12-17-26-54-42-79-35-98-84-51-130 28-29 89-34 121-11 29 22 7 39-33 25-41-14-76 3-71 34 2 16 20 30 60 49 63 30 80 59 59 104-10 22-67 56-88 53-4-1-18-4-30-6zm167-93c0-73 3-90 15-90s15 17 15 90-3 90-15 90-15-17-15-90zm320 0c0-73 3-90 15-90 8 0 15 5 15 10 0 7 6 7 19 0 30-15 66-12 84 8 23 26 25 162 2 162-12 0-15-14-15-63 0-65-11-87-41-87-34 0-49 28-49 91 0 46-3 59-15 59s-15-17-15-90zm320 0c0-73 3-90 15-90s15 17 15 90-3 90-15 90-15-17-15-90zm90 0c0-73 3-90 15-90 8 0 15 5 15 10 0 7 6 7 19 0 30-15 66-12 84 8 23 26 25 162 2 162-12 0-15-14-15-63 0-65-11-87-41-87-34 0-49 28-49 91 0 46-3 59-15 59s-15-17-15-90zm314 5c-16-46-25-87-21-91 16-16 35 9 51 67l18 64 22-65c16-50 25-65 40-65s24 15 41 65l21 64 20-67c14-52 23-67 37-67 13 0 17 5 13 16-3 9-16 49-29 90-18 62-25 74-41 72-14-2-25-20-39-61-11-32-23-55-27-50-4 4-15 32-25 61-12 38-22 52-35 52-15 0-25-19-46-85zm276-5c0-73 3-90 15-90s15 17 15 90-3 90-15 90-15-17-15-90zm112 78c-7-7-12-39-12-75 0-56-2-63-20-63-11 0-20-7-20-15s9-15 20-15c15 0 20-7 20-25 0-16 6-25 15-25s15 9 15 25c0 20 5 25 25 25 16 0 25 6 25 15s-9 15-25 15c-25 0-26 2-23 58 3 50 6 57 26 60 12 2 22 10 22 18 0 17-51 19-68 2zm118-128c0-118 2-140 15-140 12 0 15 13 15 60 0 57 1 60 19 50 30-15 66-12 84 8 23 26 25 162 2 162-12 0-15-14-15-63 0-65-11-87-41-87-34 0-49 28-49 91 0 46-3 59-15 59-13 0-15-22-15-140zm370 25V410h-46c-38 0-45-3-42-17 3-16 17-18 106-21 97-3 102-2 102 18 0 17-6 20-40 20h-40v115c0 108-1 115-20 115s-20-7-20-115zm124 30c-16-46-25-87-21-91 16-16 35 9 51 67l18 64 22-65c16-50 25-65 40-65s24 15 41 65l21 64 20-67c14-52 23-67 37-67 13 0 17 5 13 16-3 9-16 49-29 90-18 62-25 74-41 72-14-2-25-20-39-61-11-32-23-55-27-50-4 4-15 32-25 61-12 38-22 52-35 52-15 0-25-19-46-85zm276-5c0-73 3-90 15-90s15 17 15 90-3 90-15 90-15-17-15-90zm112 78c-7-7-12-39-12-75 0-56-2-63-20-63-11 0-20-7-20-15s9-15 20-15c15 0 20-7 20-25 0-16 6-25 15-25s15 9 15 25c0 20 5 25 25 25 16 0 25 6 25 15s-9 15-25 15c-25 0-26 2-23 58 3 50 6 57 26 60 12 2 22 10 22 18 0 17-51 19-68 2zm140 0c-7-7-12-39-12-75 0-56-2-63-20-63-11 0-20-7-20-15s9-15 20-15c15 0 20-7 20-25 0-16 6-25 15-25s15 9 15 25c0 20 5 25 25 25 16 0 25 6 25 15s-9 15-25 15c-25 0-26 2-23 58 3 50 6 57 26 60 12 2 22 10 22 18 0 17-51 19-68 2zm129-14c-49-63-11-154 64-154 43 0 85 37 85 75 0 24-2 25-70 25-38 0-70 4-70 9 0 33 72 55 98 29 9-9 15-9 25 1 19 19-18 41-69 41-34 0-47-5-63-26zm112-80c14-14-15-44-43-44s-60 22-60 41c0 10 93 13 103 3zm87 16c0-73 3-90 15-90 8 0 15 5 15 10 0 7 6 7 19 0 11-5 27-10 35-10 27 0 17 24-17 40-30 14-32 18-35 78-2 46-7 62-17 62-12 0-15-18-15-90zM844 409c-3-6 0-17 8-25 13-13 16-13 27 0 7 8 10 20 6 26-8 13-32 13-41-1zm640 0c-3-6 0-17 8-25 13-13 16-13 27 0 7 8 10 20 6 26-8 13-32 13-41-1zm680 0c-3-6 0-17 8-25 13-13 16-13 27 0 7 8 10 20 6 26-8 13-32 13-41-1zm1000 0c-3-6 0-17 8-25 13-13 16-13 27 0 7 8 10 20 6 26-8 13-32 13-41-1z"/></svg>