<svg xmlns="http://www.w3.org/2000/svg" width="1232" height="495"><style>.st0{fill:#BF2533;} .st1{fill:#322B2A;} .st2{fill:#FBF8F6;} .st3{fill:#F5B995;} .st4{fill:#FEFCFC;} .st5{fill:#F1A26F;} .st6{fill:#598AC4;} .st7{fill:#A4A6A9;} .st8{fill:#985D33;} .st9{fill:#E61C24;} .st10{fill:#FEE991;} .st11{fill:#F4B443;} .st12{fill:#F1D55E;} .st13{fill:#E6602E;} .st14{fill:#ED942B;} .st15{fill:#FCD08D;}</style><path id="canvas_background" fill="none" d="M-1-1h1234v497H-1z"/><path id="svg_1" d="M112.3 365.1c1.7-6.3-.9-9.9-6.8-12.2-8.2-3.4-15.4-8.8-21.3-15.4-14.2-15.1-13.4-32.7 2.3-46.3 7.7-6.8 17.1-11.4 26.2-16.8-9.4-4.5-18.8-8.2-26.7-14.2-21.3-16.8-25.3-41.5-11.9-72.2 6.8-15.4 16.2-29.3 27-41.8 4-4.5 3.1-6.5-1.7-9.1-3.1-1.7-6.5-2.8-9.9-3.4-9.4-1.7-16.8-6.5-18.8-16.2-2-9.9 1.7-18.8 10.2-24.2 6.3-4 9.1-8.2 10.2-15.6 2-12.8 10.8-19.6 23-21.6 20.5-3.4 39.2 3.4 57.7 11.4 3.4 1.4 6.3 4.8 11.7 3.4-5.4-10.2-9.1-20.5-5.1-31.8 4.3-11.1 11.7-19.3 21.6-25.6 21.3-13.6 57.7-17.6 75 2.3 2.3 2.8 4.8 3.1 8.5 3.1 24.4-.9 43.2 9.7 55.4 30.7 3.7 6.3 7.7 7.7 14.5 7.1 20.5-1.7 40.6-7.4 61.4-4.5 19.9 2.6 38.9 7.1 55.4 19.6 1.7 1.4 3.7 1.7 5.7 2.3 26.7 7.7 47.5 23.3 63.7 45.5 3.4 4.5 7.7 8.2 11.7 12.2 21 21.9 35.5 46.6 37 77.9 0 2 1.1 4 2 6 15.6 48.3 9.7 95.5-11.4 140.1-9.9 21-26.4 39.2-41.5 57.4-13.6 16.8-31.8 27.9-52.3 35.5-10.2 4-20.8 7.7-30.4 12.8-17.9 9.7-36.4 13.4-56.3 10.5-6.5-.9-12.2 2.3-18.2 4.5-41.2 16.2-82.4 15.9-123.7 1.4-12.8-4.5-24.2-11.7-33.3-22.2-5.1-6-13.9-8.2-17.1-16.8 3.7-12.2-2.8-23.3-3.4-35 5.1-.3 10.8-2.6 12.2 5.7 2.3 13.1 5.1 24.7 17.9 33.8 9.7 7.1 17.9 16.2 29.3 20.2 43.2 15.4 85.8 15.1 126.5-8.5 1.4-.9 2-1.1 3.4-.3 14.5 7.7 28.7 4.3 42.6-2s27.9-12.5 41.8-18.5c21.9-9.1 40.4-23 52.3-43.5 5.1-8.8 11.4-16.2 17.9-23.9 11.4-13.4 19-29 23-46.3 4.5-20.8 4-42.4 6.3-63.4 1.7-15.4-1.4-29.6-9.9-42.4-.9-1.1-2-1.7-1.4-3.4 4.8-13.1-1.1-24.4-6.3-35.5-14.5-31-38.7-54.9-64-77-8.8-7.7-20.5-10.5-31.6-14.2-10.2-3.7-18.2-12.8-29.6-15.9-15.9-4.3-31.8-7.1-48.3-4.5-12.5 2-25.3 2.8-38.1 4.8-6.3.9-9.4-1.1-11.9-7.1-6.8-15.1-18.2-26.4-34.7-28.7-13.1-2-26.2-.9-35.2-13.1-1.7-2.3-6.3-3.4-9.7-4-21-3.1-39.5 2.3-54.3 17.6-5.7 6-9.1 13.4-8.8 22.2.6 9.4 9.1 22.2 15.6 23.3 2.6 3.4 5.4 6.8 8 10.2-8 4.5-14.8 3.7-22.5-1.7C175.6 75 156 67.3 134.1 67c-14.8-.3-24.4 8.2-23 20.2.9 6.8-1.4 9.4-6.8 11.7-4.5 2-8.2 5.4-10.5 9.9-5.1 9.9-.6 17.6 11.1 19 8.8 3.4 17.3 7.1 26.2 10.5-3.7 4.5-7.4 9.4-11.4 13.9-11.7 14.8-22.5 30.1-27.9 48.3-9.1 30.4-.3 49.5 29 62 7.7 3.4 15.6 5.7 24.4 9.1-3.7 1.4-6.3 2.6-8.8 3.7-11.7 5.7-23.9 11.1-33.3 20.5-8.2 8.5-10.2 18.8-4.8 27 4.3 6.3 8.5 13.1 15.6 15.4 16.5 5.4 20.8 16.8 18.2 32.1v2c-6.5-2-12.5-4.5-19.6-4.3-.2-.4-.2-1.5-.2-2.9z" class="st0"/><path id="svg_2" d="M130.2 138.8c-8.8-3.4-17.3-7.1-26.2-10.5-2.6-17.6 12.5-19.3 23.3-24.7-8.8-12.5-4-23.3 10.5-24.2 21.9-1.1 40.9 6.5 58.6 19 10.8 7.7 21.6 7.1 30.7-2.8-4-2-7.1-6-12.2-6-2.6-3.4-5.4-6.8-8-10.2-4.8-10.8-8.8-21.9.6-32.4 13.6-14.8 30.7-20.8 50.6-17.3 7.7 1.4 14.2 5.1 17.6 12.2 2 4.3 4 4.3 8 3.7 26.4-3.7 46.6 10.5 52.9 36.7 0 2 .3 3.7.3 5.7v6.3c-.9 3.7-2 7.4 3.1 8.8 2.3 2 4.5 4.3 6.5 6.3 6.3 6 8.5 14.2 12.2 21.6 0 4.3.3 8.2.3 12.5-2.8 6-5.7 12.2-9.9 17.6-5.7 2.8-10.8 6.3-17.6 6.3H317c2.6 4 6.3 6.3 7.1 10.5 3.7 8.2 5.1 16.5 3.7 25.3-2.6 5.1-5.4 10.2-8 15.9 12.5-.6 23 2.8 33.3 7.7 0 3.1 1.7 5.1 4 6.5h-.3c1.7 11.7.6 24.2 10.8 33-.6.6-.9 1.1-1.4 1.4-8.8.3-6.5 6.8-7.1 11.9-5.7 4.8-7.7 9.9-1.4 15.9 4 3.7 5.1 8.5 4 13.9-2.6 2.6-4.8 5.4-8.2 6.5-2-.9-4-1.7-6-2.6-2.6-9.4-9.7-5.4-15.4-5.4-3.1-1.1-6.3-.3-8.8 1.7-.6-.3-1.1-.6-1.7-.6-7.4-8-15.1-4.8-23-1.4-4-.9-4-6.8-8.5-7.1-7.1-2.6-13.6-8.2-21.9-3.4-4.3-.3-7.4-2.8-10.8-4.8-8.2-1.1-15.9 1.1-23.3 4.3.3-3.7-3.7-3.4-5.4-5.7 7.7-2.6 15.1-3.1 22.7-3.4 6-.3 13.4.9 17.6-2 4.8-3.1-.6-10.5 1.1-16.2.6-2.6 2.8-5.1.9-8.5-15.1 2.3-29 12.2-45.2 8.8-.6 0-1.4 1.4-2.3 2H213c-15.9-5.7-29.8 4.5-44.3 7.1-17.1 3.1-33.5 11.4-47.8 22.2-9.9 7.7-10.2 15.6-.6 23.6 7.7 6.3 16.2 10.5 25.3 13.9 2.8-4 1.1-9.1 5.4-11.7-.3 7.4 2 9.9 9.9 8.2 14.8-3.1 30.1-1.7 45.2-2.6h23.3c-7.4-4.3-14.8-6.3-23-5.7-16.8-.9-33.5-2-50-2.8 16.5-4.3 33.3-2.3 49.7-2 8.2 1.4 16.5 2.8 25.3 4.5.3-8.2 1.4-16.5-7.7-21 7.1 1.7 8-4.5 10.8-8.5 1.4 8.5 2.6 17.1 4 25.6-2.8 15.4 3.4 28.4 9.9 41.2 2.3 5.1 4.8 10.5 7.1 15.6.9 7.7 5.4 13.1 11.9 15.6 4.5 1.7 7.1-3.4 9.7-6.5 8-3.4-2.6-7.1 0-10.8 6.8 3.7 13.1 2.8 19.3-2 5.1-3.7 11.1-6 16.8-8.8 2-.6 4-1.4 5.7-2 3.4-.3 7.1-.9 9.7-3.7 4-1.4 7.7.3 11.7.3 2.3 2 4.5.3 6.8.3 8 2.8 15.4-2.8 23.3-1.7 2.8 2.8 0 8.8 5.4 9.9 3.1 2.6 6 4.8 9.1 7.4.9.9 1.4 1.7 2.3 2.6 8 8.2 9.4 19.9 15.4 29-1.7 3.1-3.4 6.3-1.1 9.9-1.1 5.7-1.7 11.4-5.4 16.2-1.4 2-3.1 4-4.5 6-10.5 9.4-22.5 15.9-36.1 18.8-24.2 5.1-48.6 6.3-72.5-.6-30.1-8.5-55.1-23.3-60.3-58.6-.6-2.8-1.1-7.1-5.7-6-5.7 1.1-11.9-.6-16.8 3.4-.6.3 1.1 3.1 1.7 4.5.9 11.7 7.4 22.7 3.4 35-.9 1.1-1.7 2.3-2.6 3.1-.6 1.7-1.1 3.4-1.4 5.1v.9c-4.3.9-6.8 4.3-10.2 6.5-15.9 5.4-31.3 13.1-48.3 14.2-28.1 2-56 1.7-81-14.2-13.4-8.5-21.3-20.5-19.6-37.2 4-33.8 37.5-56.9 70.2-48 6.8-.3 13.1 2.3 19.6 4.3 3.7 2 7.4 5.1 12.5 4.8-.6-6.5-2.6-12.8-1.4-18.5 2.3-11.7-2.8-17.3-12.8-21.6-11.1-4.5-21.6-11.7-22.2-24.7-.6-13.4 11.7-18.5 21.3-24.2 11.7-7.1 24.4-11.4 38.4-16.8-18.2-4.5-35.5-7.7-50-17.9-13.1-9.1-19.3-20.8-16.5-37.2 4.8-26.4 19.9-46.6 37-65.9 3.1-3.4 7.7-6 8.8-12.5-6.4 1.2-11.8 1.2-16.9 1.2zm161.2 23.9c7.4.9 10.8-1.1 6-8.8-1.4-2.3-4.5-6.3-5.1-6-3.7 2.3-7.1 5.1-8 9.9-.6 0-2 .3-2 .3 1.1 11.1-.6 21.9-2.8 32.4-.3 1.7.3 5.7 4.8 6.8 1.7-11.6-1.4-24.4 7.1-34.6zM307 281.8c-1.7-2.6-3.1-2.8-4.3.3-4.5 3.1-1.4 6.5.6 9.1 6.3 9.1 30.7 14.2 40.4 8.5 2.6-1.4 4.3-3.4 3.7-6.8 1.4-5.1 2.3-10.5 4.8-15.1 7.1-13.4.9-26.7.9-40.4 0-2.3-2.8-5.1-4.8-6.5-11.9-8.8-38.9-1.1-45.5 12.8.6 8.8 6.5 9.4 13.4 9.1 9.1-.3 18.2-3.1 26.7 1.7-.3 2.8-2 2.6-4.5 2.6-9.1-.3-18.2 0-27.3-.3-6-.3-9.9 2-11.7 8-1.1 9.1 6.3 10.5 12.2 12.5 5.4 2 11.7 1.1 16.8 4.5-7.1 5.1-13.9-.6-20.8-.6l-.6.6zM150.1 458.9l.6-.6c17.9.3 32.7-7.1 45.2-19.3 2-2 5.1-5.1 2.8-8.2-2.8-3.7-5.4.6-8.2 1.4-6 1.7-10.8 8.8-18.2 4 6.8-2.8 13.6-5.4 19.6-10.5-12.5-8.8-23.6-18.5-31.8-31.3 3.7 0 7.4.9 11.1 0 16.5-3.1 33.3-4.8 50-6.3 10.2 1.4 20.8-.3 32.1 2.6-5.1-12.2-9.9-23.3-14.5-34.4-8-20.2-8-20.2-30.1-19-16.8 0-33.8-1.1-50.6 1.7-5.1.9-7.7 2.6-7.7 7.7-.6 16.5-.6 32.7 9.4 46.9-6.8 1.7-10.5-4.3-15.4-6.8-16.8-8.2-33-17.3-52.9-11.9-22.2 2-39.5 18.8-42.6 40.4-.6 4.5 1.1 6.5 4.8 9.1 11.1 7.7 23.6 10.5 35.8 15.1-1.4 2.3-3.1 1.4-5.4 1.1-11.1-2.3-21.6-5.1-32.7-9.9 4 12.2 13.4 20.5 29.6 25.6 22.5 7.1 45.2 8.2 68.2 3.7 0-.3.6-.8.9-1.1zm141.3-4.8c25.6 5.1 50.6 4.3 75.3-4.5 9.1-3.1 17.1-8.5 22.7-16.5.9-1.4 2-3.7 1.4-4.8-1.1-2.6-3.4-.9-5.4-.3-6 2-12.2 3.7-18.2 5.4-25 6.5-50.6 4.3-75.9 4.5-2.8-1.1-6.3.6-8.2-2.6 3.1-.3 6-.6 9.1-.9 15.9.3 32.1 1.7 47.8.3 17.1-1.7 34.1-5.4 49.2-15.1 4.8-3.1 6-6 5.1-11.1-3.7-23-22.7-38.9-47.2-39.2-29.3-2.8-51.2 12.8-71.9 30.4-8 6.8-14.2 15.4-23.9 19.6 4 6 12.2 5.1 15.4 11.7-8.2 1.4-13.4-5.7-20.8-7.7-2.3 6.8 1.1 10.8 6 14.5 11.6 8.6 25 14 39.5 16.3zm11.1-222.9c5.1-1.1 13.6-1.4 11.9-8.2s1.1-10.5 3.7-15.4c6.5-11.4 4.5-23.9-4.8-30.7-2-8.5-8.8-6.8-14.5-6.3-6.3.6-7.4 5.7-7.1 11.1.3 3.4.6 7.1.9 10.5 2 23 4.8 46.1-13.4 65.1-3.7 3.7-5.4 9.9-4.5 15.9-3.1 10.8 4 15.4 11.9 18.8 2.8 1.4 7.1 3.4 9.9.9 2.6-2.3-1.1-5.7-.9-8.8 1.7-3.4 4.3-6.5.9-10.5-4.5-5.7-3.1-11.1.9-16.5 1.1-1.4 3.1-2.8 2.3-4.3-5.5-8.2-.1-14.8 2.8-21.6zm-139.3-116l.9.9c-10.2 8-23.3 8.5-35.8 13.6 9.4 5.1 17.1.6 24.4-1.4 12.5-3.1 23.3-11.7 36.7-12.8-8.2 7.7-19.6 11.1-25.9 21-.6.3-1.1.6-1.7 1.1.9 1.1 1.7.9 2.3-.3 3.7.9 8.8-.9 10.8 4.5-15.4 0-27.3 6-36.1 17.9-3.7 4.8-8 9.1-11.1 14.2-9.9 14.8-18.5 30.4-19.6 48.6-.9 15.4 4 23 18.2 28.7 14.5 6 29.6 10.2 44.9 12.5 23.3 3.1 46.6 4.5 69.1-3.7 1.7 0 3.4.3 4.5-1.7 16.8-6 30.1-15.6 31.6-34.7 1.4-17.9 1.4-36.1-18.8-46.3 5.7-2 13.9 2.6 15.1-7.7.9-9.7-2-16.5-11.1-20.8-7.1-3.4-12.5-2.6-15.4 5.1-9.7-11.1-20.2-19.9-31.6-27.9-6.8-4.8-11.4-13.1-21-12.8 4-8.2.6-12.8-7.4-15.9-10.2-4-20.5-7.4-31.3-10.2-6.3-1.7-12.5-2-18.8 0-3.4 1.1-7.4 2.6-7.4 6.5 0 4.5 4.3 5.4 7.7 6.3 11.1 2.3 22.5 4 35 6.3-4.8 4.3-9.7 3.4-13.6 2.3-11.4-3.1-21.9-.9-32.1 2.8-5.4 2-15.1 3.4-13.4 9.4 1.4 5.7 10.8 5.1 17.6 3.4 1.4-.3 2.8-.9 4-1.1 9.7-2.7 19.6-5.2 29.3-7.8zm96.6 13.1c11.1 3.7 11.1 16.2 18.2 23.6 2.6-2.6 5.4-4.5 7.7-7.4 5.7-6.8 10.2-8.5 14.8 1.4 1.7 3.7 5.1 6.8 8.5 9.4 8.5 6.8 25.3 7.1 35.2.6 7.7-4.8 10.8-11.9 8-20.8-2-17.1-14.2-29.6-28.4-29.3 9.1-11.7 9.4-21.6 1.1-34.7-9.7-20.2-36.7-26.7-49.7-12.5-4.3-2.6-2.6-7.7-4.3-11.4-2.6-5.4-5.1-10.2-11.7-10.8-7.7-.6-15.4-1.1-22.7 1.7-16.2 1.7-27.6 10.2-27.9 21-.3 7.4 3.4 13.6 7.7 19.3 7.1 9.1 17.1 11.4 28.1 12.5-5.7 2.8-8.2 9.1-13.4 11.9-7.4 4.3-1.1 5.7 1.1 8.2h-27c.3.9.6 2 1.1 2.6 12.5 10.2 26.4 18.8 38.1 30.1.9.9 2.8 2 3.7 1.4 8-4.5 14.5 1.4 21.9 4.3.2-9.5-8.7-13.7-10.1-21.1z" class="st1"/><path id="svg_3" d="M191.3 454.3c3.1-2.6 5.7-6 10.2-6.5 1.4 10.5-6.5 15.9-13.1 21.3-17.3 14.2-38.1 20.5-59.7 23-26.2 3.1-52.3 2.3-77.9-5.7-29-9.4-48.9-31.6-48.9-54 .3-33 24.4-62.3 57.1-68.8 9.7-2 19.6-3.4 29.6-2 0 1.1.3 2.3.3 3.4-6 .9-11.9 1.1-17.6 2.8-24.4 6.8-42.4 30.1-44.1 56.6-1.1 19 13.1 38.1 37.5 46.3 38.9 13.1 77.9 12.5 115.4-6 4.7-2.4 10.7-3.5 11.2-10.4z" class="st0"/><path id="svg_4" d="M191.3 454.3c-.3 6.8-6.5 8-10.8 10.2-37.5 18.5-76.5 19-115.4 6-24.4-8.2-38.4-27.3-37.5-46.3 1.4-26.4 19.3-49.7 44.1-56.6 5.7-1.7 11.9-2 17.6-2.8h14.2c2.8 0 5.7 0 8.5.3 0 1.4.3 2.6.3 4-32.7-8.5-66.2 14.5-70.2 48-2 16.8 6 28.7 19.6 37.2 25 15.9 52.9 16.2 81 14.2 17.4-1.1 32.7-8.5 48.6-14.2z" class="st2"/><path id="svg_5" d="M201.8 403.5c-.6-1.7-2-4.3-1.7-4.5 4.8-4.3 11.1-2.3 16.8-3.4 4.5-.9 5.4 3.1 5.7 6 5.1 35 30.1 50 60.3 58.6 23.9 6.5 48.3 5.7 72.5.6 13.6-2.8 25.9-9.4 36.1-18.8.3.9.3 1.7.6 2.6 1.7 4.3 5.4 3.4 8.8 4 8.2 1.7 13.6-4.3 20.5-6.3 17.9-4.8 34.4-13.6 51.2-21.6h-.3c1.7 0 3.4-.3 4.5-2.3h-.3c1.4-.9 2.8-1.4 4.3-2.3.9-.9 1.7-1.4 2.6-2.3 13.6-7.4 22.2-19.9 31.6-31.6 1.7-2.3 4-6-1.7-7.1-7.4-3.1-10.5-11.7-17.9-14.5-5.1-6.3-12.5-9.4-18.5-14.5-8.5-6.8-15.9-15.1-25.9-19.9-9.7-9.7-20.5-18.2-31.8-25.6v.3c0-1.4-.9-2-2-2-.9-.6-1.7-1.1-2.6-1.7-.3-1.4-1.1-2-2.6-2.3-4-3.7-8-7.1-11.9-10.8-1.7-2-3.7-4-5.7-6.3h5.4c1.4 2.6 4 3.7 6.5 4.3 1.4 2.3 3.4 4 6.3 4 5.1 3.4 8.5 9.7 15.4 9.9 6.8 6.8 14.8 12.2 23 17.3 9.9 7.1 20.2 14.2 30.1 21.3 9.1 6.5 18.2 13.1 27.3 19.6 4.3 2.8 8.5 6 12.8 8.8 3.7 3.1 7.1 1.1 8.8-1.7 7.7-12.8 19-23.6 21-39.5 2-5.7 2-11.7 2.8-17.6 1.7-11.9.9-23.9 2.8-35.5 2-13.6 2.6-27.3-3.1-40.4-1.1-9.4-6-5.4-10.5-3.1-1.4.3-2.8.6-4.5 1.1h-4c-.9 0-1.7.3-2.6.3-4.3 1.4-8.8.6-12.8 3.4-10.2.9-20.2 3.4-30.1 6.3-.6 0-1.1.3-1.7.6-4.3.3-8.8-.3-12.8 1.7-13.9 1.1-27.6 4.8-40.6 9.9-9.4 1.1-17.9 6.3-27.6 5.1 4.5-5.4 12.8-3.4 17.3-8.8 13.4-.6 25.6-6 38.1-10.2 2.6 0 4.8.3 6.5-2.3.6 0 1.1-.3 1.7-.6 16.2-3.7 32.1-8.2 47.8-14.2.6 0 .9-.3 1.1-.6 1.7.3 3.7.3 4.8-1.4 6.3-1.7 12.5-3.4 18.8-5.1 14.5-2.8 3.1-10.8 3.4-16.5-1.1-2-.3-5.1-3.1-6.5 0-1.7 0-3.7-2.3-4.3.3-2 0-3.7-2.3-4.3.3-2 0-3.7-2.3-4.3.3-2-.6-3.7-2.3-4.8-1.4-2-2.8-4-4-6-.3-1.7-.3-3.7-2.3-4.3-.3-1.4-.9-2.3-2.3-2.3-3.4-8.5-11.1-13.1-17.1-19-.6-1.1-1.4-2-2-3.1 0-.6-.3-1.1-.9-1.1-6.8-8.8-12.5-18.8-24.4-21.6-4.3-7.7-11.7-10.2-19-12.5-8.5-5.4-8 2.8-10.5 6.8-1.7 3.4-3.1 6.8-4.8 10.2-4 6.5-8 13.1-8.8 21-4.5 5.4-8.2 10.8-10.5 17.6-2.3 1.7-3.1 4-3.7 6.5-1.4 2.8-2.8 5.4-4.3 8.2-6.3 5.1-4 12.5-4.8 19-4.5-.6-7.4.6-5.4 6.3-5.1 2-4.5 6.8-5.1 11.1-.9.6-1.4 1.4-2.3 2-2 .9-1.7 2.8-2 4.3-1.4.9-2 2.8-4.3 2.3v-4.5c4.5-11.1 8.8-22.2 13.4-33.3 8.8-20.8 18.2-41.2 25.3-62.5 2.3-1.7 2-4 1.7-6.3 1.7-3.4 3.1-7.1 4.8-10.5 1.7-2 4.8-4.5 1.4-6.5-12.8-8.2-27.9-11.9-42.6-14.2-5.7-.9-12.2 1.7-18.8 1.4-15.1-1.1-29.6 3.7-44.3 3.1-6.3-26.4-26.4-40.6-52.9-37-4 .6-6 .6-8-3.7-3.4-7.1-9.7-10.8-17.6-12.2-19.9-3.4-37 2.6-50.6 17.3-9.7 10.5-5.4 21.6-.6 32.4-6.5-1.1-15.1-14.2-15.6-23.3-.3-8.8 2.8-16.2 8.8-22.2 15.1-15.4 33.5-20.5 54.3-17.6 3.4.6 8 1.4 9.7 4 9.1 11.9 22.2 11.1 35.2 13.1 16.5 2.3 27.9 13.6 34.7 28.7 2.6 6 6 8 11.9 7.1 12.5-1.7 25.3-2.8 38.1-4.8 16.5-2.6 32.4.3 48.3 4.5 11.4 3.1 19.3 12.2 29.6 15.9 11.1 4 22.5 6.5 31.6 14.2 25.6 22.2 49.5 45.8 64 77 5.1 11.1 11.1 22.5 6.3 35.5-.6 1.7.6 2.3 1.4 3.4 8.5 12.8 11.9 27.3 9.9 42.4-2.3 21-1.7 42.6-6.3 63.4-4 17.3-11.7 32.7-23 46.3-6.5 7.7-12.5 15.1-17.9 23.9-11.9 20.5-30.4 34.1-52.3 43.5-13.9 6-27.9 12.2-41.8 18.5s-28.1 9.7-42.6 2c-1.4-.9-2-.6-3.4.3-40.6 23.6-83.3 23.6-126.5 8.5-11.7-4-19.6-13.4-29.3-20.2-12.5-9.1-15.6-20.8-17.9-33.8-.8-8-6.4-5.4-11.6-5.4zm-71.6-264.7h16.5c-.9 6.5-5.7 8.8-8.8 12.5-17.1 19.3-32.4 39.5-37 65.9-2.8 16.5 3.4 28.1 16.5 37.2 14.5 10.2 31.8 13.1 50 17.9-13.6 5.4-26.7 9.9-38.4 16.8-9.7 5.7-21.9 10.8-21.3 24.2.6 13.1 11.1 20.2 22.2 24.7 10.2 4.3 15.1 9.9 12.8 21.6-1.1 5.7.9 11.9 1.4 18.5-5.1.3-8.8-2.6-12.5-4.8 0-.6-.3-1.4 0-2 2.3-15.6-1.7-26.7-18.2-32.1-7.1-2.3-11.4-9.4-15.6-15.4-5.4-8.2-3.7-18.5 4.8-27 9.4-9.7 21.6-14.8 33.3-20.5 2.6-1.1 5.1-2.3 8.8-3.7-8.8-3.1-16.8-5.7-24.4-9.1-29.3-12.8-38.1-31.6-29-62 5.4-18.5 15.9-33.8 27.9-48.3 3.3-5 7.3-9.8 11-14.4z" class="st2"/><path id="svg_6" d="M214.9 89.6c5.1 0 8 4 12.2 6-9.1 9.9-20.2 10.5-30.7 2.8-17.3-12.5-36.7-20.2-58.6-19-14.5.9-19.3 11.7-10.5 24.2-10.8 5.4-25.9 7.1-23.3 24.7-11.7-1.4-15.9-9.1-11.1-19 2.3-4.5 6-8 10.5-9.9 5.4-2.6 7.7-4.8 6.8-11.7-1.4-12.2 8.2-20.5 23-20.2 21.9.3 41.5 8 59.1 20.8 7.8 5 14.9 5.9 22.6 1.3z" class="st2"/><path id="svg_7" d="M240.5 260.5c-22.7 8.2-46.1 7.1-69.1 3.7-15.4-2.3-30.4-6.5-44.9-12.5-14.2-5.7-19.3-13.4-18.2-28.8 1.1-18.6 9.7-33.9 19.6-48.8 3.4-5.1 7.4-9.4 11.1-14.2 9.1-11.7 21-18 36.1-18-2.3-5.7-7.1-3.7-10.8-4.5l-.9-.9c6.3-9.9 17.9-13.4 25.9-21.1h-.3c1.7-.3 3.7 0 4.5-2.3v.3c9.7-.3 14.5 8.2 21 12.8-.9.9-1.7 1.4-2.6 2.3-7.7.3-15.6 0-16.8 10.8 4.3-8.8 12.5-6 19-7.1 7.1 13.9 22.2 24.5 19.3 43-13.4 2.8-21.3 10.2-24.2 24-2.3 10.5-1.4 20.9 3.7 29.9 5.4 9.1 2 11.7-6.5 14.5-13.9 4.8-28.1 3.1-44.3 4.3 16.8 7.7 31.6 2.6 45.8-.6 8-1.7 17.3-2.8 21.3-12.2 4.3 1.4 5.4-1.4 6-4.5 5.1-4.3 7.4-10.5 10.8-15.9 4.8-6 3.4-13.4 4.8-20.3 7.7 19.7 8.2 39-4.3 57.1-1.7 2.6-3.1 4.5-2.3 7.4-1.1-.7-2.6-.4-3.7 1.6zm-48.6-75.6c-1.4-14.8-12.8-13.1-22.7-13.9 2.8-2.3 4.8-4.8 5.7-8.5 1.4-5.7.9-11.4-4.8-13.6-6.5-2.6-9.7 2.8-11.4 8.2-1.4 4.3-1.4 8.8-2.3 14.2h11.7c-1.1 3.4-6.3 5.7-1.1 10.8 7.1 7.1 6 14.2-3.1 19-7.1 3.7-14.8 6.3-22.2 9.4-15.6-6.8-16.8-14.5-3.4-33-8.8 2.6-11.7 8.5-12.8 15.6-1.4 8.2 2.3 14.8 9.4 18.5 15.1 8 31 9.4 46.9 3.1 8.5-3.4 14.2-9.4 15.1-18.8.1-4.2 2.1-10.2-5-11zm37.8-21.9c-10.8-12.8-21.3-12.2-31 1.4 9.7-6.3 19.9-4.8 31-1.4z" class="st3"/><path id="svg_8" d="M274.9 58.4c13.1-14.5 40.1-7.7 49.7 12.5-5.4 13.4-14.5 21-29.6 21.6-5.1.3-3.7 3.7-1.1 5.4 8.8 6.3 18.2 11.1 29.6 7.7 14.2-.3 26.4 12.5 28.4 29.3-10.5 7.1-21.3 8.5-32.4 2-7.1-4.3-12.5-10.2-17.1-17.1-8.2-12.2-17.9-13.4-29.3-4-4.3 3.4-8.2 8-13.9 8.8-1.7-1.4-3.4-3.4-6.3-2.3-4.3-8.8-13.6-8.2-21-11.1-2.3-2.6-8.5-4-1.1-8.2 5.1-2.8 7.7-9.1 13.4-11.9-11.1-1.1-21-3.4-28.1-12.5-4.5-5.7-8-11.9-7.7-19.3.3-10.8 11.7-19.6 27.9-21 10.2 6.3 18.2 13.4 17.6 27.3-.3 7.4 8.5 10.2 15.1 5.7 4.2-3.3 6.5-7.5 5.9-12.9zM89.6 439.8c-12.2-4.5-25-7.4-35.8-15.1-3.7-2.6-5.4-4.5-4.8-9.1 2.8-21.6 20.5-38.1 42.6-40.4-3.1 11.1-1.1 15.1 9.7 17.6 4.5 1.1 9.1 1.7 13.6 2 30.1 2.8 42.1 16.8 40.4 46.6-4-2.3-8.2-2-12.2-.3-12.8-.9-25.6-.9-38.1 0-1.7-1.4-3.4-1.4-4.8.6-4.1-.7-7.2-1.3-10.6-1.9zm257.5-70.5c24.4.3 43.2 16.5 47.2 39.2.9 5.1-.3 8-5.1 11.1-15.1 9.7-32.1 13.6-49.2 15.1-15.9 1.4-31.8 0-47.8-.3-1.1-14.2 5.7-24.4 17.3-31.3 7.1-4.3 15.1-7.7 22.5-11.7 9.1-4.1 14.5-11.5 15.1-22.1zm-125.9 18.8c-16.8 1.4-33.5 3.1-50 6.3-3.7.6-7.4 0-11.1 0l-.3-.3c-10.2-14.2-9.9-30.4-9.7-46.9.3-5.1 2.6-6.8 7.7-7.7 16.8-2.8 33.8-1.7 50.6-1.7 4.2 16.5 8.5 33.5 12.8 50.3z" class="st4"/><path id="svg_9" d="M244.2 259.1c-.6-2.8.6-5.2 2.4-7.5 12.8-18.1 12.2-37.7 4.4-57.7-2.9-3.4-1.4-9.2-7-10.9-.3-6.9-7-5.8-10.8-8.3 2.9-18.7-12.8-29.4-19.8-43.5-.9-1.1-1.7-2.6-2.7-3.7.9-.9 1.7-1.4 2.7-2.3 11.7 8.1 22.4 17 32.4 28.3 3.2-7.8 8.7-8.6 15.8-5.2 9 4.4 12.2 11.2 11.4 21.1-1.1 10.3-9.6 5.8-15.5 7.8 20.4 10.6 20.4 29.1 19.3 46.9-1.6 18.8-15.4 28.9-32.6 35z" class="st5"/><path id="svg_10" d="M151 326.7c-4.3 2.6-2.3 8-5.4 11.7-9.1-3.4-17.6-7.7-25.3-13.9-9.7-8-9.4-15.6.6-23.6 14.2-11.1 30.7-19.3 47.8-22.2 14.5-2.6 28.4-12.8 44.3-7.1-2.6 6.8-5.7 13.6-4.3 21-3.7 2.3-4 5.7-3.1 9.7-7.1.9-13.9 1.4-21 2.3-4.8-2-10.5.9-15.4-2.3-1.1-3.1 2.8-8.2-3.4-9.7-6.3 1.1-11.9 3.4-17.3 6.5-3.7 2.3-6.5 6.3-1.4 8.8 5.1 2.6 4.8 7.1 6.8 10.8.7 3.5-4.4 4.6-2.9 8z" class="st6"/><path id="svg_11" d="M347.1 369.3c-.6 10.5-6 17.9-15.1 22.5-7.4 4-15.4 7.4-22.5 11.7-11.7 7.1-18.5 17.1-17.3 31.3-3.1.3-6 .6-9.1.9-5.4-1.4-11.1-3.1-16.5-4.5-2.8-6.5-11.1-5.7-15.4-11.7 9.7-4.5 16.2-13.1 23.9-19.6 20.8-17.8 42.7-33.4 72-30.6zm-192.2 72.3c1.7-29.8-10.5-43.5-40.4-46.6-4.5-.6-9.1-1.1-13.6-2-10.8-2.6-12.8-6.5-9.7-17.6 19.9-5.7 36.1 3.4 52.9 11.9 5.1 2.6 8.5 8.5 15.4 6.8l.3.3c8.2 12.8 19.3 22.5 31.8 31.3-6 5.4-13.1 7.7-19.6 10.5-5.4 2.5-11.1 4.5-17.1 5.4zm104.4-317c6-1.1 9.7-5.4 13.9-8.8 11.4-9.4 21-8.2 29.3 4 4.5 6.8 9.9 12.8 17.1 17.1 11.4 6.5 22.2 5.1 32.4-2 2.8 9.1-.3 15.9-8 20.8-10.2 6.5-27 6.3-35.2-.6-3.4-2.6-6.8-5.7-8.5-9.4-4.5-9.7-9.1-8.2-14.8-1.4-2.3 2.6-5.1 4.8-7.7 7.4-7.1-7.4-6.8-19.9-18.2-23.6v.3c-.1-1.2-.1-2.4-.3-3.8z" class="st7"/><path id="svg_12" d="M298.8 264.7c1.7-6 5.7-8.2 11.7-8 9.1.3 18.2 0 27.3.3 2.3 0 4.3.3 4.5-2.6 6-1.1 6.3-4.3 2.3-7.7-2.8-2.6-6.8-3.1-10.8-3.1-10.5.3-21 0-31.3 0 6.8-13.9 33.8-21.6 45.5-12.8 2.3 1.7 4.8 4.3 4.8 6.5 0 13.4 6.3 27-.9 40.4-2.6 4.5-3.1 9.9-4.8 15.1-16.8 5.7-35.5 1.4-40.1-11.4 6.8 0 13.6 5.7 20.8.6 1.4 0 2.8-.3 4.3 0 5.1.3 11.7 0 11.7-6 0-4.3-6.8-4.8-11.4-4.5-12 .6-22.8-2.8-33.6-6.8z" class="st3"/><path id="svg_13" d="M163.2 115.2c-9.9 2.6-19.9 5.4-29.6 8-1.4.3-2.8.9-4 1.1-6.5 2-15.9 2.3-17.6-3.4-1.7-5.7 8-7.4 13.4-9.4 10.5-3.7 21-6 32.1-2.8 4 1.1 9.1 2 13.6-2.3-12.2-2-23.6-4-35-6.3-3.1-.6-7.7-1.7-7.7-6.3 0-4 4-5.4 7.4-6.5 6.3-2 12.5-1.7 18.8 0 10.8 2.6 21 6 31.3 10.2 8 3.1 11.4 7.7 7.4 15.9v-.3c-2 0-3.7 0-4.5 2.3h.3c-13.4 1.1-24.2 9.4-36.7 12.8-7.7 2-15.1 6.5-24.4 1.4 12.5-5.1 25.6-5.7 35.8-13.9.9-.6 3.1 0 2.3-1.7-.4-.8-2.1.1-2.9 1.2z" class="st8"/><path id="svg_14" d="M274.9 273.3c-1.1-6 .9-12.2 4.5-15.9 18.2-19 15.4-42.1 13.4-65.1-.3-3.4-.9-7.1-.9-10.5-.3-5.4 1.1-10.5 7.1-11.1 5.7-.6 12.5-2.3 14.5 6.3-1.1 8.5 4 17.9-2.8 25.3-8 8.5-7.7 18.8-7.7 29-2.8 6.8-8.2 13.4-2.6 21.6 1.1 1.4-1.1 2.8-2.3 4.3-4 5.1-5.7 10.8-.9 16.5 3.1 4 .6 7.1-.9 10.5-9.5.2-14.9-6.4-21.4-10.9z" class="st3"/><path id="svg_15" d="M291.4 438.1c25.3-.3 50.9 2 75.9-4.5 6.3-1.7 12.2-3.7 18.2-5.4 2-.6 4.3-2 5.4.3.6 1.1-.6 3.4-1.4 4.8-5.7 8.2-13.9 13.4-22.7 16.5-24.4 8.8-49.7 9.7-75.3 4.5-.1-5.4-.1-10.8-.1-16.2zm-201.8 1.7c3.4.6 6.8 1.4 10.2 2 1.7.6 3.7 2.8 5.4-.3 12.2 5.1 24.7 1.7 37.2 2.3 11.7.6 11.7.6 8.5 14.2l-.6.6c-.6.3-.9.9-1.1 1.4-23 4.5-45.8 3.4-68.2-3.7-15.9-5.1-25.6-13.4-29.6-25.6 10.8 4.8 21.6 7.7 32.7 9.9 2 .7 4 1.5 5.5-.8z" class="st9"/><path id="svg_16" d="M221.2 388.1c-4.3-16.8-8.5-33.8-12.5-50.6 22.2-1.1 22.2-1.1 30.1 19 4.5 11.1 9.4 21.9 14.5 34.4-11.4-3.1-21.9-1.4-32.1-2.8z" class="st7"/><path id="svg_17" d="M392.3 444.1c-.3-.9-.3-1.7-.6-2.6 1.4-2 3.1-4 4.5-6 27.3-2.6 51.5-11.9 72.2-30.1.9-.6 1.7-1.4 2.3-2 14.2-9.4 28.4-18.8 42.6-28.1 5.4 1.1 3.4 4.8 1.7 7.1-9.4 11.7-17.6 24.4-31.6 31.6-.9.9-1.7 1.4-2.6 2.3-1.7.3-3.7 0-4.3 2.3h.3c-1.7 0-3.7 0-4.5 2.3h.3c-10.8.3-20.2 5.4-30.4 8.8-16.1 5-31.7 13.8-49.9 14.4z" class="st10"/><path id="svg_18" d="M234.2 296.9c-2.8 3.7-3.7 9.9-10.8 8.5-6.8-11.1-4.5-22.5 0-33.5.9-.9 1.7-2.3 2.3-2 16.2 3.1 30.1-6.8 45.2-8.8 2 3.4 0 6.3-.9 8.5-1.4 5.7 3.7 13.1-1.1 16.2-4.3 2.8-11.7 1.7-17.6 2-7.7.6-15.4 1.1-22.7 3.4 1.7 2.5 5.9 2 5.6 5.7z" class="st6"/><path id="svg_19" d="M165.7 292.6c6 1.4 2.3 6.5 3.4 9.7-2.6 3.4-1.4 5.1 2.6 5.1 4.5 0 8.8.9 13.4-.9 6.5.3 13.1.6 19.6.9-.6 5.1.6 9.7 1.7 14.5-16.8 0-33.3-2-49.7 2 16.8.9 33.5 2 50 2.8 0 2-.3 3.7-.3 5.7-15.1.9-30.4-.6-45.2 2.6-8 1.7-10.2-.9-9.9-8.2-1.4-3.4 3.7-4.5 2.8-8 3.7-8.6 7.7-17.4 11.6-26.2z" class="st2"/><path id="svg_20" d="M381.2 79.4c6.3.3 13.1-2 18.8-1.4 14.8 2.3 29.8 5.7 42.6 14.2 3.4 2.3 0 4.5-1.4 6.5-11.9-5.1-25-.3-37-4.3-6.3-.6-12.5-1.4-18.5-2-16.2-1.4-32.4-.6-48.3 1.7v-6.3c15.1-.4 29.9-3.3 43.8-8.4z" class="st10"/><path id="svg_21" d="M232 111.2c7.4 2.8 16.8 2.3 21 11.1.3 4.3 4 4.5 6.8 6v-.3c1.4 7.7 10.2 11.7 9.9 21.3-7.4-2.8-13.9-8.8-21.9-4.3-.9.3-2.8-.6-3.7-1.4-11.7-11.4-25.6-19.9-38.1-30.1-.6-.6-.9-1.7-1.1-2.6 9.4.3 18.3.3 27.1.3z" class="st8"/><path id="svg_22" d="M332 167.2c6.5.3 11.9-3.1 17.6-6.3 6 4.8 10.8 4.3 14.5-2.8.9-1.7 1.1-4.3 3.7-4.8 12.5-2.6 12.5-2.3 9.4-14.5 3.1.3 6-.9 8.8-2.3 2 .9 3.4 2.3 4 4.3v2.3c-5.1 5.1-5.1 10.5-2 16.5-2.6 5.7-7.1 10.5-6.5 17.6-2.8 7.1 6.5 13.9 0 21-2.3.9-4.5 3.4-6.5-.3 2-8.8 2.8-17.6 1.1-27-7.7 4.5-7.7 13.1-13.9 17.1-.9-.3-2-.3-2.8-.6.3-2.8.6-5.4 2.3-8 2-3.4.6-7.1-1.7-9.7-2.6-2.8-6-1.7-9.4-.3-3.1 1.1-5.1 3.4-7.4 5.4-1.7-4.3-5.1-4.8-9.1-4.3-2.1.1-2.1-1.6-2.1-3.3z" class="st11"/><path id="svg_23" d="M255.3 379.3c-2.3-5.1-4.8-10.5-7.1-15.6 4.8-3.4 10.2-6 13.6-11.1 8-4 14.8-9.7 21.3-15.6 1.4-1.1 2.6-2.3 4-3.7 4.3-1.4 7.7-3.7 10.8-6.5 6.3-2.6 10.2-9.1 17.1-10.8 0 7.7-8.2 9.4-10.8 15.1l-6.3 6.3c-2.8 1.4-5.1 3.4-6.3 6.5-4.5 2.8-6.5 8-9.1 12.2-1.1.9-2.6 2-3.7 2.8-2.3.6-4 1.4-3.7 4.3l-.6.6c-6.5 1.4-8.8 8-13.6 11.4-1.6 1.3-3.6 2.7-5.6 4.1z" class="st2"/><path id="svg_24" d="M366.7 267.6c.6-.6.9-1.1 1.4-1.4-10.2-8.8-9.1-21.3-10.8-33 5.7 5.7 5.7 5.7 7.1 1.7 3.4 2.8 1.7 10.2 7.1 10.2 6.3 0 8.5-6.3 11.1-11.1.9-1.7 1.7-3.7 2.6-5.4 3.7-.6 4-4.8 6.5-6.3.6 0 1.4.3 2 .6-.9 3.7-5.4 6.3-4 10.8-.6 2-.3 4.5-1.7 6-6.3 8.2-7.4 15.1 7.4 18.5-5.4 2.6-9.4 4.3-8.5 8.8-.3.3-.6.6-.9 1.1.3-.3.9-.6 1.1-.6 2 .3 4.8-.6 5.1 2.3.3 3.4-2.8 4.3-5.7 4.3-1.7-1.7-3.7-3.1-5.4-4.8-.6-1.1-1.1-2.6-2-3.7-.6-1.7-.3-3.7-1.4-4.8-1.4-1.1-2.8.6-2.8 1.7.6 5.4-5.7 8-4.8 13.4-2.3.6-4.5.9-7.7 1.4 1.8-3.7 3.2-6.6 4.3-9.7z" class="st11"/><path id="svg_25" d="M206.1 321.9c-1.1-4.8-2.6-9.7-1.7-14.5 1.1-1.7 2-3.1 3.1-4.8.3-3.1.9-6.5 1.1-9.7-1.4-7.7 1.7-14.2 4.3-21h10.5c-4.5 11.1-6.8 22.5 0 33.5 9.1 4.5 8.2 12.8 7.7 21-8.5-1.7-16.8-3.1-25-4.5zm68.8-263.5c.6 5.4-1.4 9.7-6 12.8-6.5 4.5-15.4 1.7-15.1-5.7.6-13.9-7.7-21-17.6-27.3 7.4-2.8 15.1-2.3 22.7-1.7 6.5.3 9.1 5.4 11.7 10.8 1.7 3.7 0 8.5 4.3 11.1zM150.7 458c3.4-13.6 3.4-13.6-8.5-14.2 0-.9.3-1.7.3-2.6 4.3-1.7 8.2-2 12.2.3 6-.9 11.9-2.6 17.3-5.4 7.4 4.8 12.2-2.3 18.2-4 2.8-.9 5.4-5.1 8.2-1.4 2.3 3.1-.9 6.3-2.8 8.2-12.2 12-27 19.4-44.9 19.1z" class="st7"/><path id="svg_26" d="M468.5 405.4c-20.8 18.2-44.9 27.6-72.2 30.1 3.7-4.8 4.3-10.5 5.4-16.2 3.4-1.1 7.4-.9 9.4-4.8 3.7 1.7 7.4 2.6 11.1 0l1.7 1.7c-2 2.8-6.5 3.1-7.4 8.2 17.3-7 33.8-15.5 52-19z" class="st12"/><path id="svg_27" d="M323.5 105.6c-11.4 3.4-20.8-1.4-29.6-7.7-2.6-1.7-4-5.1 1.1-5.4 14.8-.6 24.2-8.2 29.6-21.6 8.3 13 8 23-1.1 34.7zm-32.1 332.5V454c-14.5-2.3-27.9-7.7-39.8-16.5-4.8-3.4-8.2-7.7-6-14.5 7.4 2 12.5 9.1 20.8 7.7 5.4 1.4 11.1 3.1 16.5 4.5 2.2 3.5 5.6 2.1 8.5 2.9z" class="st7"/><path id="svg_28" d="M347.7 313.6c2 .9 4 1.7 6 2.6.9 2 2.3 3.4 4.3 4-2.3 11.4-10.8 18.8-17.6 27.6-8 2.8-14.2 3.1-12.8-8.5v-6c5.6-7.7 8.7-18 20.1-19.7z" class="st13"/><path id="svg_29" d="M340.6 347.7c6.5-8.8 15.1-16.2 17.6-27.6 6.3-2.3 14.2-2 14.8-11.7.9-.6 1.7-.9 2.6-1.4-.3 3.7-.3 7.1-.6 10.8-6.3 4.8-4.5 14.2-11.1 18.8-1.1-2.8 2-7.1-2.3-9.4-5.4 7.1-2.6 14.5-.9 21.6 0 .6.3.9.3 1.4 0-.6.3-.9.3-1.4.3-.9.3-1.4.6-2.3 3.7 2.8 10.2 4 8.5 11.1-3.4.9-6.3-.6-8.8-2.3-8-5.7-11.4-1.1-14.2 5.7-2.3 0-4.8 1.7-6.8-.3-.3-3.6 0-8.1 0-13z" class="st12"/><path id="svg_30" d="M279.2 359.1c1.1-.9 2.6-2 3.7-2.8 3.7.9 7.4.9 11.1-.3 3.1 3.1 6.8 6 11.4 7.1 3.1.6 7.4-1.4 8 4.3-5.7 2.8-11.7 5.1-16.8 8.8-6.5 4.5-12.5 5.4-19.3 2-9.4-3.4-1.1-9.4-2-14.2l.6-.6c2.4-.3 3-2 3.3-4.3z" class="st13"/><path id="svg_31" d="M327.5 333.2v6c-5.4 1.7-2.6 8-6.3 10.8-8.5.3-11.1-5.7-12.5-12.5-.6-2.8.3-6.5-4.5-6.5 2.6-5.7 10.8-7.4 10.8-15.1 5.1 1.1 7.4-2 8.2-6.3 2.6-2 5.7-2.8 8.8-1.7 0 3.7.3 8.5-2.6 9.9-9 4.6-3.1 10.3-1.9 15.4z" class="st12"/><path id="svg_32" d="M359.3 131.1c-3.7-7.4-6-15.6-12.2-21.6l.3-.6c9.9 1.1 19.9 2.3 29.6 3.4-1.7.6-3.1 1.1-4.5 2-2.3 1.4-5.1 2.6-5.1 6 0 .6 1.4 1.4 2.3 1.4 3.1.3 6.3.6 8.5-2.6 1.4-2.3 1.1-4.5.6-7.1 4.8 2.8 10.2-2 15.4.9-8.2 5.1-4.8 14.8-8.5 21.9-7.9-9.1-16.7-8.5-26.4-3.7z" class="st14"/><path id="svg_33" d="M364.4 234.9c-1.4 3.7-1.4 3.7-7.1-1.7h.3c0-3.1-1.1-5.4-4-6.5-.6-5.1-4-8.8-6.3-13.1l-.6-.9-1.1.3h.3c-5.1-13.1-10.8-25.6-21-35.5-.9-4.3-4.5-6.5-7.1-10.5h14.5c0 1.7 0 3.4 1.7 4 8.2 19.6 16.5 39.2 28.4 57.1-.3 2 0 3.7 1.7 4.8-.2 1.1.1 1.7.3 2z" class="st2"/><path id="svg_34" d="M268.4 297.4c8.2-4.8 14.8.9 21.9 3.4.3 8-7.7 12.2-9.1 19.3-5.7 1.1-11.4 4.3-17.3 1.1 1.1-4.8-2.3-9.1-2.3-13.6 2.8-3.4 9.9 0 10.8-6.5.3-.3.3-.6.6-.9-.3.3-.3.6-.6.9-2.3 0-4-.8-4-3.7z" class="st12"/><path id="svg_35" d="M302.5 231.2c0-10.2-.3-20.5 7.7-29 7.1-7.4 1.7-16.8 2.8-25.3 9.4 6.8 11.4 19.3 4.8 30.7-2.8 4.8-5.4 8.2-3.7 15.4 2 6.8-6.2 7.1-11.6 8.2z" class="st5"/><path id="svg_36" d="M402.8 409.4c-6-9.1-7.4-20.8-15.4-29 4.3-.3 8.8-.6 13.4-.9 6.3 6 13.4 11.7 12.5 21.9-.9 1.4-1.7 2.6-2.3 4-2.2 2.6-4.2 5.2-8.2 4z" class="st13"/><path id="svg_37" d="M238.2 322.4c-1.4-8.5-2.6-17.1-4-25.6 7.4-3.1 15.1-5.4 23.3-4.3-.6 2.8 1.1 6.3-2 8.5-1.7-2-2.8-6-6-5.4-3.1.9-3.7 4.8-4.5 8-.6 3.1-.6 6.8 1.4 9.1 4.8 5.4 3.1 10.5.3 15.9-4.8 1-5.6-4.2-8.5-6.2z" class="st14"/><path id="svg_38" d="M375.2 307.4c-.9.6-1.7.9-2.6 1.4-3.4 2.8-6.8 4.8-10.8.9 1.1-5.4-.3-10.2-4-13.9-6.3-6-4.3-11.1 1.4-15.9l11.1 11.1c.6 4.5 3.1 8.2 5.7 11.9.7 1.6.7 3.3-.8 4.5z" class="st15"/><path id="svg_39" d="M363.9 337.2c6.5-4.5 4.8-13.9 11.1-18.8 2 17.3 1.7 34.7 1.1 52-5.7-1.1-2.6-7.4-5.4-9.9 0-.6-.3-1.4-.3-2 1.7-7.1-4.5-8-8.5-11.1v-2.8c2.3-2 2.5-4.5 2-7.4z" class="st14"/><path id="svg_40" d="M376.1 370.5c.3-17.3.9-34.7-1.1-52 .3-3.7.3-7.1.6-10.8 1.4-1.4 1.4-3.1.9-4.8 1.7-4-1.4-8.8 2.6-12.2.3 3.4.3 7.1.6 10.5 1.4 22.2 2.8 44.3 4.3 66.2.6 3.4.9 6.8 1.4 10.5-3.3-2.6-6.2-5.1-9.3-7.4z" class="st2"/><path id="svg_41" d="M298.8 264.7c10.8 4 21.6 7.4 33.5 6.5 4.3-.3 11.4.3 11.4 4.5 0 6-6.5 6-11.7 6h-4.3c-5.1-3.4-11.4-2.6-16.8-4.5-5.9-1.9-13.3-3.4-12.1-12.5z" class="st5"/><path id="svg_42" d="M376.9 139.1c3.1 11.9 3.1 11.9-9.4 14.5-2.3.6-2.8 2.8-3.7 4.8-3.7 7.1-8.5 7.7-14.5 2.8 4.5-5.1 7.1-11.4 9.9-17.6 6.4-1.7 12.1-3.1 17.7-4.5z" class="st12"/><path id="svg_43" d="M280.9 320.5c1.4-7.1 9.4-11.4 9.1-19.3 4.5.3 4.5 6.3 8.5 7.1-.3 6.3-.3 12.5-.6 18.8-3.1 2.8-6.5 5.4-10.8 6.5-2-4.6-4-8.9-6.2-13.1zm104.3 57.4c-.6-3.4-.9-6.8-1.4-10.5 3.1-2.6 6.3-5.1 8-8.8 2.3.3 4.5.3 6.5.6 1.4 1.4 2.8 2.6 4.3 4 .3 2 0 4.8 1.1 5.7 6.8 6 1.7 8.2-3.1 10.8-4.5.3-8.8.6-13.4.9-.3-1-1.2-1.9-2-2.7z" class="st14"/><path id="svg_44" d="M313.3 367.1c-.6-5.4-5.1-3.4-8-4.3-4.5-1.1-8-3.7-11.4-7.1-.9-4 1.4-8.5-2.3-11.9 1.1-3.1 3.4-5.1 6.3-6.5-.6 4.3 2.6 6.5 5.4 8.2 7.4 4.8 12.8 10.8 15.6 19.3-1.7.9-3.6 1.4-5.6 2.3z" class="st15"/><path id="svg_45" d="M302.2 243.4h31.3c4 0 8 .6 10.8 3.1 4 3.4 3.7 6.5-2.3 7.7-8.5-4.8-17.6-2-26.7-1.7-6.6.6-12.5-.3-13.1-9.1zm4.8 37.8c4.5 12.5 23.3 16.8 40.1 11.4.6 3.4-1.1 5.4-3.7 6.8-9.7 5.7-34.1.9-40.4-8.5-1.7-2.6-5.1-6-.6-9.1 1.4 0 2.8-.3 4.3-.3l.3-.3z" class="st5"/><path id="svg_46" d="M337.1 94.2c16.2-2.3 32.1-2.8 48.3-1.7-.9 3.7-3.7 3.4-6.5 4-12.8 2-25.9 4.3-38.7 6.5-4.8-1.4-3.9-5.1-3.1-8.8z" class="st12"/><path id="svg_47" d="M238.2 322.4c3.1 2 3.7 7.1 8.8 6.3.6 2 1.4 4.3 2 6.3-4.5 4.3-6 10.2-2.3 15.1 4 5.1 9.9 4.3 15.4.6 0 .9.3 1.4.3 2.3-3.4 5.1-8.8 7.7-13.6 11.1-7.2-13.2-13.4-26.6-10.6-41.7zm108.9-108.8c2.3 4.3 5.7 8 6.3 13.1-10.2-4.8-20.8-8.2-33.3-7.7 2.8-5.4 5.4-10.8 8-15.9 6.3 2.6 9.7 9.9 17.3 9.9h-.3c0 .6.3 1.1.3 1.7.8-.3 1.1-.8 1.7-1.1z" class="st11"/><path id="svg_48" d="M319 365.1c-2.6-8.5-8.2-14.5-15.6-19.3-2.8-1.7-6-4-5.4-8.2l6.3-6.3c4.8 0 3.7 3.7 4.5 6.5 1.7 6.8 4 12.8 12.5 12.5.9 4.8 3.7 8 7.1 11.1-2.3 2.5-5.8 3.1-9.4 3.7z" class="st14"/><path id="svg_49" d="M298.2 326.7c.3-6.3.3-12.5.6-18.8 8-3.4 15.9-6.5 23 1.4-2.6 1.7-5.4 3.4-6.5 6.8-7.1 1.5-10.8 8.1-17.1 10.6zm78.7-187.6c-5.7 1.4-11.7 2.8-17.3 4.3 0-4.3-.3-8.2-.3-12.5 9.7-4.5 18.5-5.4 25.9 4 .3.6.3 1.1.6 1.7-2.9 1.6-5.7 2.8-8.9 2.5z" class="st15"/><path id="svg_50" d="M345.7 213c-7.7 0-11.1-7.4-17.3-9.9 1.4-8.8 0-17.3-3.7-25.3 10.2 9.6 15.9 22.4 21 35.2z" class="st14"/><path id="svg_51" d="M340.6 103c12.8-2.3 25.9-4.5 38.7-6.5 2.8-.6 5.7-.3 6.5-4 6.3.6 12.5 1.4 18.5 2-16.5 3.4-33.3 6.8-49.7 10.2-2.8.6-6.8-1.1-7.1 4l-.3.6c-2.4-2-4.4-4-6.6-6.3z" class="st11"/><path id="svg_52" d="M274.9 273.3c6.5 4.5 11.9 11.1 21 10.8-.3 3.1 3.4 6.5.9 8.8-2.8 2.6-7.1.6-9.9-.9-8-3.4-15.1-7.9-12-18.7z" class="st5"/><path id="svg_53" d="M255.3 379.3c2-1.4 4-2.8 6.3-4 4.3 5.4 12.2 6.8 15.4 13.4-2.6 3.1-5.1 8.2-9.7 6.5-6.6-2.8-11.2-8.2-12-15.9z" class="st12"/><path id="svg_54" d="M328.6 361.4c-3.4-3.1-6.3-6.5-7.1-11.1 3.7-2.8.9-9.1 6.3-10.8-1.4 11.7 4.8 11.1 12.8 8.5 0 4.5 0 9.1-.3 13.6-4-.2-7.7-1.6-11.7-.2z" class="st11"/><path id="svg_55" d="M327.5 333.2c-1.4-5.4-7.1-10.8 2.3-15.1 2.8-1.4 2.6-6.3 2.6-9.9 5.7 0 12.8-4 15.4 5.4-11.5 1.7-14.6 12-20.3 19.6z" class="st14"/><path id="svg_56" d="M381.2 79.4c-14.2 5.4-29 8-44.1 8.8 0-2-.3-3.7-.3-5.7 15.1.3 29.6-4.5 44.4-3.1z" class="st12"/><path id="svg_57" d="M291.4 162.7c-8.5 10.2-5.4 23-6.8 35-4.8-1.1-5.4-5.1-4.8-6.8 2.3-10.8 3.7-21.6 2.8-32.4 0 0 1.1-.3 2-.3 2.2 1.4 4.5 3.1 6.8 4.5z" class="st13"/><path id="svg_58" d="M276.9 388.7c-3.4-6.5-11.4-8-15.4-13.4 4.8-3.4 7.1-9.9 13.6-11.4.9 4.5-7.4 10.5 2 14.2-2.8 3.2 8 6.9-.2 10.6z" class="st11"/><path id="svg_59" d="M291.4 162.7c-2.3-1.4-4.5-3.1-7.1-4.5.9-4.5 4-7.7 8-9.9.6-.3 3.7 3.7 5.1 6 4.8 7.3 1.4 9.2-6 8.4z" class="st12"/><path id="svg_60" d="M370.4 290.9l-11.1-11.1c.3-5.1-1.7-11.9 7.1-11.9-1.1 2.8-2.3 5.7-3.7 9.4 3.1-.6 5.4-1.1 7.7-1.4 3.7 4.8-1.4 9.9 0 15z" class="st14"/><path id="svg_61" d="M255.6 301.1c3.1-2.3 1.4-5.7 2-8.5 3.4 2 6.5 4.5 10.8 4.8.3 2.6 1.7 3.7 4.3 3.7-1.1 6.5-8 3.1-10.8 6.5-4.3-.2-4.9-3.6-6.3-6.5zm114.5 57.4c.3.6.3 1.1.3 2-8-1.4-15.4 4.5-23.3 1.7 2.6-7.1 6.3-11.4 14.2-5.7 2.6 1.5 5.7 2.6 8.8 2z" class="st11"/><path id="svg_62" d="M206.1 332.4c0-2 .3-3.7.3-5.7 8-.6 15.6 1.1 23 5.7h-23.3z" class="st7"/><path id="svg_63" d="M361.9 309.7c4 3.7 7.4 1.7 10.8-.9-.3 9.7-8.5 9.4-14.8 11.7-2-.9-3.4-2-4.3-4 3.7-1.4 6-4 8.3-6.8z" class="st14"/><path id="svg_64" d="M402.8 409.4c4 .9 6-1.7 8-4.3 0 3.1.3 6.3.3 9.1-2 4-6 3.7-9.4 4.8-2.3-3.3-.3-6.2 1.1-9.6z" class="st8"/><path id="svg_65" d="M315.3 316.2c1.1-3.1 4-4.8 6.5-6.8.6 0 1.1.3 1.7.6-1.1 4.2-3.4 7-8.2 6.2z" class="st2"/><path id="svg_66" d="M353.4 226.6c3.1 1.1 4 3.7 4 6.5-2.3-1.3-4-3.6-4-6.5z" class="st11"/><path id="svg_67" d="M307 281.8c-1.4 0-2.8.3-4.3.3 1.2-3.1 2.6-2.9 4.3-.3z" class="st3"/><path id="svg_68" d="M240.5 260.5c1.1-1.7 2.6-2.3 4.5-1.7-1.1 2-2.8 1.7-4.5 1.7z" class="st5"/><path id="svg_69" d="M149 460.3c0-.6.6-1.1 1.1-1.4-.3.3-.9.8-1.1 1.4z" class="st8"/><path id="svg_70" d="M163.9 137.4c-.6 1.1-1.4 1.4-2.3.3.6-.3 1.1-.6 1.7-1.1 0 .2.2.5.6.8z" class="st3"/><path id="svg_71" d="M521.6 363.4c-4.3-2.8-8.5-6-12.8-8.8 11.9-5.1 7.4-17.3 11.1-26.2v-6.3c5.1-4.3 5.1-9.4 2.3-15.1-2.3-16.2 7.1-29.8 10.8-44.6V313c3.4-9.9 2.3-20.2 3.1-30.4 1.4-18.8 8.8-37.2 3.1-56.3 1.4-.3 2.8-.6 4.5-1.1 1.4 10.8 3.4 21.6 4 32.4 2.1 38.1-11.3 72.2-26.1 105.8z" class="st12"/><path id="svg_72" d="M546.4 194.5c-.3 5.7 10.8 13.9-3.4 16.5.6-6.3-1.7-11.7-5.1-16.8-15.4-23.9-35.8-42.9-56.9-61.4-6-5.1-10.2-12.8-18.8-15.1-4.3-2.8-3.4-10.2-10.2-10.5 2.3-4 2-12.2 10.5-6.8-.9.6-3.7 1.1-2.3 1.7 7.4 3.7 12.5 11.4 21 13.4 3.4 3.1 6.5 6.3 9.9 9.1 4.8 3.7 6.8 11.1 14.8 9.9.6 0 1.1.6.9 1.1-.3 2-.6 4.3 2 5.1 3.1 8.2 8.8 13.9 17.1 17.1l2.3 2.3c-.3 2 .3 3.7 2.3 4.3 1.4 2 2.8 4 4 6 0 2 .3 3.7 2.3 4.8 0 1.7.3 3.4 2.3 4.3 0 1.7.3 3.4 2.3 4.3 0 1.7.3 3.4 2.3 4.3-.5 2.4-1 5.3 2.7 6.4zm-24.8 168.9c14.8-33.5 28.1-67.7 25.9-105.5-.9-10.8-2.6-21.6-4-32.4 4.5-2.3 9.4-6.3 10.5 3.1-4.8 6.3 1.1 12.8 0 19-4 23.6.6 47.8-4.8 71.4-.6 2.6.6 2.8 2.6 3.1-2 15.6-13.4 26.7-21 39.5-2.1 2.9-5.5 5.2-9.2 1.8z" class="st10"/><path id="svg_73" d="M513.7 375.6c-14.2 9.4-28.4 18.8-42.6 28.1-1.4-2.3-3.4-1.4-5.4-.9-14.2 3.4-27.9 8.8-41.5 13.6l-1.7-1.7c1.1-2 2.3-4.3 3.7-6.3 6-3.4 12.2-6.3 15.4-12.8 3.7-1.4 8.2.9 11.7-2.6 8.8-.9 19 1.7 24.4-9.1 5.4-3.1 11.1-6 13.4-12.2 6.3-1.4 1.7-8 5.1-10.8 7 3 10.1 11.3 17.5 14.7zm-124-232.2v-2.3c12.8 1.4 20.8-8.2 30.4-13.9 7.4-4.5 9.4-10.2 3.4-17.6l.3-.3c5.1-.3 6.8 4.8 10.8 6.3-7.1 21.3-16.5 41.8-25.3 62.5-1.1-5.7 3.1-15.6-9.7-13.1l-6-5.1c-2.2-5.5-4.4-10.6-3.9-16.5z" class="st12"/><path id="svg_74" d="M462.2 117.8c8.5 2.3 12.8 9.9 18.8 15.1 21 18.5 41.5 37.5 56.9 61.4 3.4 5.1 5.7 10.5 5.1 16.8-6.3 1.7-12.5 3.4-18.8 5.1 4.8-16.5 2.3-31-10.2-43.8-9.9-9.9-21.3-18.2-32.4-27l-4.3-4.3-4.3-4.3c-.6-.9-1.4-1.4-2-2.3-.2-6.8-7.9-9.9-8.8-16.7z" class="st11"/><path id="svg_75" d="M379.5 301.1c-.3-3.4-.3-7.1-.6-10.5.3-2.8.3-5.7.6-8.5 7.1-1.4 13.9 2.6 21 2.3 4 3.7 8 7.1 11.9 10.8.9.9 1.7 1.4 2.6 2.3 0 3.4 0 6.5-.3 9.9-2.8 4-5.4 8-6 13.1h-6.5c-.6-1.4-1.4-1.4-2.6-.3-1.1 0-2.3-.3-3.4-.3 0-3.4-1.4-8-4.5-6.5-8 3.7-7.1-2.8-8.2-6.3-.6-3.1-1.7-4.8-4-6z" class="st13"/><path id="svg_76" d="M347.4 109c.3-4.8 4.3-3.4 7.1-4 16.5-3.4 33.3-6.8 49.7-10.2 11.9 4 25-.9 37 4.3-1.7 3.4-3.1 7.1-4.8 10.5-4.3-1.4-8.2-2.8-12.5-4.5-.3-.3-.6-.3-.9-.6.3.3.6.3.9.6v4.3l-.3.3c-7.7-2.6-15.4-1.4-23 0-1.7-.3-3.4 0-4.3 1.7-.9.6-1.4 1.1-2.3 1.7-4.8-2.8-10.2 2-15.4-.9-.6-.3-1.1-.3-1.7 0-9.6-1.2-19.6-2.1-29.5-3.2zm104 217.4c9.9 4.8 17.3 13.1 25.9 19.9-2 5.4-4.8 10.2-8.8 14.2-14.8-4.3-20.5-1.4-21.3 10.8-2 0-4.3-.3-6.3-.3 3.7-8-.3-14.5-4-21 2.3-2.8 4.5-6 6.8-8.8 4-4 10.3-7.1 7.7-14.8zm30.2-181.1c11.1 8.8 22.5 17.1 32.4 27 12.8 12.5 15.1 27.3 10.2 43.8-1.1 1.7-2.8 1.7-4.8 1.4 1.1-7.7 6-15.9-4-21.3 0-4 .9-8.2-4.3-10.2 0-2-.3-3.4-2.3-4.3l-2.3-2.3c-1.4-4-4.5-4.5-8.2-4.3-.6-4-4.3-5.1-6.8-7.7-6.3-6-10.5-13.1-11.1-21.6.6.1.9-.2 1.2-.5z" class="st12"/><path id="svg_77" d="M413 286.3c-2.8 0-4.8-1.7-6.3-4 .6-17.9.6-17.6 17.9-24.4 3.7-1.4 6.8-3.7 9.9-5.7 4.5 4.3 4.8 12.8 13.4 12.8v1.7c-7.1.9-9.1 5.7-9.1 11.9-11-5-19.5-2.5-25.8 7.7z" class="st13"/><path id="svg_78" d="M400.3 284.4c-7.1.3-13.6-3.7-21-2.3-3.4-5.7-3.7-11.4 0-16.8.6 1.1 1.1 2.6 2 3.7.6 3.4 1.1 6.8 2 11.4 1.7-3.1 2.6-4.8 3.4-6.5 2.8 0 6-.6 5.7-4.3 0-2.8-3.1-1.7-5.1-2.3l-.3-.3c-.9-4.5 3.1-6.3 8.5-8.8-15.1-3.4-13.6-10.2-7.4-18.5 1.1-1.4 1.1-4 1.7-6 1.4 0 2.8-.3 4.3-.3-2.3 7.7 1.7 11.9 8.2 14.8-1.4 3.4-6 4.8-6 8 4.8 3.7 6.5-2.3 9.9-1.7-1.1 7.1-6.3 13.6-2.8 21.6.6 1.1-2.3 2-4 2.3H394c2.8 2 4.5 4 6.3 6z" class="st14"/><path id="svg_79" d="M481.6 335c-9.9-7.1-20.2-14.2-30.1-21.3h10.3c1.1 1.4 2.6 2.8 4.3.6 6.3-5.1 6.5-13.6 11.1-19.6 5.1-1.7 10.5 2.6 16.5-1.7 2-1.4 5.7 9.7 9.1 14.5 0 .6 0 1.4-.3 2-5.4-1.1-11.1-2-16.2-3.7-7.1-2-9.4.6-9.4 7.7 0 6.3 5.1 10.8 4.8 17.1-.1 1.5-.1 2.9-.1 4.4z" class="st12"/><path id="svg_80" d="M448 265c-8.5 0-8.8-8.5-13.4-12.8 0-1.1-.3-2-.3-3.1 13.1-5.1 26.7-8.5 40.6-9.9-2.8 6-5.7 11.7-8.8 17.6-8.7-4-13.8 1.1-18.1 8.2z" class="st15"/><path id="svg_81" d="M481.6 335c0-1.4 0-2.8.3-4.3 9.4.3 17.6 6.5 27.3 4.5.9-.9 1.7-1.4 2.3-2.3 2 0 3.7 0 4.3-2.3l2.3-2.3c.9 0 1.4 0 2.3-.3-3.7 8.5 1.1 21-11.1 26.2-9.6-6.2-18.7-12.7-27.7-19.2z" class="st11"/><path id="svg_82" d="M451.4 326.4c2.3 7.7-3.7 10.8-8 15.1-3.4-6.3-2-16.5-13.4-15.9-3.1-8.2-10.5-15.1-10.5-24.7 11.7 7.3 22.3 15.9 31.9 25.5z" class="st14"/><path id="svg_83" d="M413 286.3c6.3-10.2 15.1-13.1 25.9-8-.3 9.9 5.7 9.4 12.5 7.7-2 3.1-6 4.5-6.5 8.5-5.4.9-11.4-1.7-16.5 1.7-6.8-.2-10.2-6.4-15.4-9.9z" class="st12"/><path id="svg_84" d="M399.7 165c12.5-2.6 8.2 7.4 9.7 13.1-4.5 11.1-8.8 22.2-13.4 33.3-4.5-8.8.3-18.8-3.1-27.9 3.4-3.1 9.9-4.8 4.3-11.4-2.3-2.9 2.2-4.6 2.5-7.1z" class="st14"/><path id="svg_85" d="M532.4 262.7c-3.7 14.8-12.8 28.4-10.8 44.6-.6 0-1.1.3-2 .3-3.1-2.8-3.4-7.1-4.3-10.8 7.4-1.1 2.6-6.8 4-10.2 2.3-8 8.5-15.1 4.3-24.2-.6-5.4 1.1-9.9 4.5-13.9-.3-6.8 2-14.8-8.8-15.9v-2c3.7-2.8 8.5-2 12.8-3.4.3 12 .3 23.6.3 35.5z" class="st11"/><path id="svg_86" d="M488.1 237.4c.6-.3 1.1-.6 1.7-.6 6.8 1.1 13.1 4 19.3 6.5 1.4 3.7 4 6.3 7.1 8.5-.9 3.7-3.1 6-6.8 6.8-2.3 0-4.3 0-6.5.3-2.3-6.3-8-4.5-12.5-5.1-4-5-6.6-10.1-2.3-16.4z" class="st13"/><path id="svg_87" d="M551.5 322.2c-2 0-3.4-.3-2.6-3.1 5.4-23.6.9-47.8 4.8-71.4 1.1-6.3-4.8-12.8 0-19 6 13.1 5.4 26.4 3.1 40.4-1.7 11.7-.9 23.6-2.8 35.5-.5 5.9-.5 11.9-2.5 17.6z" class="st11"/><path id="svg_88" d="M518.2 218.1c-15.6 6-31.3 10.8-47.8 14.2 0-1.1.3-2.3.3-3.7 8.5-1.1 5.4-10.5 10.2-14.5 7.7 2.6 15.1 6.3 23 .3 2-1.4 6-.3 9.1-.3.7 3.2 2.7 3.7 5.2 4zm-125.9 226c18.2-.6 33.8-9.4 50.3-15.1 9.9-3.4 19.3-8.5 30.4-8.8-16.8 7.7-33.3 16.8-51.2 21.6-6.8 2-12.5 8-20.5 6.3-3.3-.6-7.3.3-9-4zM415 190c.9-6.5-1.4-13.9 4.8-19 5.7 4.3 8-1.1 10.8-4.3 2 1.4 4 2.8 6.3 4.3v10.8c-2 .9-3.4 2.3-4.3 4.5-3.7 3.4-8.8 5.1-10.8 9.9-.6 0-1.1 0-1.7-.3.1-3.4-1.1-5.9-5.1-5.9z" class="st12"/><path id="svg_89" d="M488.1 237.4c-4.3 6-1.7 11.4 2 16.5-8.5 1.7-15.1 7.1-21 13.1-2.3-3.1-2.8-6.5-2.8-10.2 2.8-6 5.7-11.7 8.8-17.6 4.2-2 8.4-1.5 13-1.8z" class="st14"/><path id="svg_90" d="M436.6 170.9c-2-1.4-4-2.8-6.3-4.3-1.4-2.6-3.4-4-6.5-4 .6-2.6 1.7-4.8 3.7-6.5 3.4-.6 7.1-1.4 10.5-2 6.8 3.7 11.4 9.4 13.1 17.1 0 1.7 0 3.4-.3 5.1-5.6 1.5-9-3.9-14.2-5.4z" class="st15"/><path id="svg_91" d="M462.2 235.2c-12.5 4.3-24.7 9.7-38.1 10.2.6-1.4 1.4-2.6 2-4 9.9-.6 13.1-10.5 20.2-15.1.6.9 1.4 2.3 1.7 2.3 2.3-.6.9-2.8 1.4-4.3 6 1.1 9.4 6.3 14.8 8.2-.6 1.3-1.4 1.8-2 2.7z" class="st14"/><path id="svg_92" d="M392.9 183.4c3.4 9.1-1.1 19 3.1 27.9v4.5c-1.4 1.4-2.8 2.8-4.3 4.5 1.7-9.9-4.5-15.6-10.8-21.3v-.3c6.3-7.1-3.1-14.2 0-21 4 1.8 8 3.7 12 5.7z" class="st12"/><path id="svg_93" d="M539 226.6c5.7 19-2 37.5-3.1 56.3-.9 10.2.3 20.5-3.1 30.4v-50.6c6.8-11.7 4.3-23.9 2.3-35.8 1 0 2.5 0 3.9-.3z" class="st11"/><path id="svg_94" d="M419.6 300.8c0 9.7 7.4 16.5 10.5 24.7-3.7 4-4.8 8.5-4.5 13.9h-6c-2.3-10.8 2.8-22.5-4.8-32.4 0-3.4 0-6.5.3-9.9.9.6 1.7 1.1 2.6 1.7.7.9 1.3 1.5 1.9 2zm14.8-51.7c0 1.1.3 2 .3 3.1-3.4 2-6.5 4.3-9.9 5.7-17.6 6.8-17.6 6.5-17.9 24.4-2.6-.9-5.1-2-6.5-4.3 1.7-.3 4.5-1.1 4-2.3-3.7-8 1.7-14.5 2.8-21.6 9.3 1.3 17.8-3.9 27.2-5z" class="st12"/><path id="svg_95" d="M468.5 360.5c4-4.3 6.5-9.1 8.8-14.2 6 5.1 13.4 8.2 18.5 14.5-3.4 2.8 1.1 9.4-5.1 10.8-1.8-15.3-13.7-9.4-22.2-11.1z" class="st11"/><path id="svg_96" d="M428.4 296.6c5.1-3.4 11.1-.9 16.5-1.7 1.7 7.1 4 13.9 13.1 14.8 1.1 1.4 2 2.8 3.1 4.3h-9.4c-8.5-5.2-16.2-10.6-23.3-17.4z" class="st14"/><path id="svg_97" d="M462.2 117.8c.9 6.8 8.5 9.9 8.8 16.8l-.3.3c-2.6-.9-5.4-1.7-8-2.6-.9-1.4-1.7-2.8-2.3-4-3.1-5.1-7.7-8.5-13.1-10.5 1.7-3.4 3.1-6.8 4.8-10.2 6.7-.1 5.9 7.3 10.1 10.2z" class="st12"/><path id="svg_98" d="M447.2 117.8c5.4 2.3 9.9 5.7 13.1 10.5l-.9.9c-2.3-.9-3.7.9-5.7 1.4-4-4-5.1.3-6.5 2.6-2.3 3.4-3.1 8-8.2 8.2-.3-.9-.6-2-.9-2.8 1.1-7.7 5.1-14.3 9.1-20.8zm17 115.1c-5.4-2-9.1-7.1-14.8-8.2-.3-.6-.3-1.4 0-2 2.3-7.7 10.5-8.5 15.1-13.6.6 0 1.4.3 2 .3-7.7 14.8-7.1 16.8 4.5 19.3 0 1.1-.3 2.3-.3 3.7-.6.3-1.1.3-1.7.6-1.7-.1-3.1-.1-4.8-.1zm-38.1 8.5c-.6 1.4-1.4 2.6-2 4-4.3 5.7-12.8 3.4-17.3 8.8-3.7-.6-5.1 5.7-9.9 1.7.3-3.1 4.8-4.8 6-8 7.7.3 10.2-3.7 10.2-10.8 4.3 1.4 8.2 5.1 13.1 2-.4.9-.4 1.8-.1 2.3z" class="st11"/><path id="svg_99" d="M400.3 213.6c.3-1.7 0-3.4 2-4.3.9-.6 1.4-1.4 2.3-2 4.8.3 7.7-5.1 12.8-4.3l.6.3c-.9 4.8-1.4 9.4-2.3 14.2-4.3.9-8.5 2-13.1 2.8-2.6-1.6-1.8-4.5-2.3-6.7z" class="st14"/><path id="svg_100" d="M508.8 243.4c-6.3-2.8-12.5-5.4-19.3-6.5 9.9-3.1 19.9-5.4 30.1-6.3v2c-5.6 1.4-10.5 4-10.8 10.8z" class="st12"/><path id="svg_101" d="M506 134.8c-8 1.1-9.9-6.3-14.8-9.9-3.4-2.8-6.8-6-9.9-9.1 0-.9.3-1.7.3-2.8 11.9 3.1 17.6 13 24.4 21.8z" class="st11"/><path id="svg_102" d="M518.2 218.1c-2.3-.3-4.5-1.1-4.8-4 5.7-6 2.3-11.7 0-17.6l.6-.6h1.8c9.9 5.4 5.1 13.9 4 21.3-.7.6-1.3.9-1.6.9z" class="st14"/><path id="svg_103" d="M535 226.9c2 12.2 4.5 24.4-2.3 35.8 0-11.9-.3-23.6-.3-35.5.9-.3 1.7-.3 2.6-.3zm-134.7-13.3c.6 2.3-.3 5.1 2.3 6.8 2.8 4-8.8 4.5-2.3 9.7-2 1.1-4 2.3-5.7 3.4-1.4 0-2.8.3-4.3.3-1.4-4.5 2.8-7.1 4-10.8 2.6-1.7 3.7-4 2.3-6.8 1.7.5 2.2-1.8 3.7-2.6zm81.3-100.7c0 .9-.3 1.7-.3 2.8-8.5-2-13.6-9.7-21-13.4-1.7-.9 1.4-1.4 2.3-1.7 7.3 2.4 15 4.7 19 12.3zm44.6 45.2c-8.2-3.1-13.9-8.8-17.1-17.1v-2.3c6 6.4 13.7 10.9 17.1 19.4zm-87.9-19.6c.3.9.6 2 .9 2.8-.3 4.3-.6 8.5-.9 12.8-3.4.6-7.1 1.4-10.5 2 2.3-6.5 6-12.2 10.5-17.6zm-21 64.3c-5.1-.9-8 4.5-12.8 4.3.3-4.3-.3-8.8 5.1-11.1 2.6.9 5.1 2 7.7 2.8-.3 1.4-.3 2.8 0 4z" class="st12"/><path id="svg_104" d="M417 198.8c-2.6-.9-5.1-2-7.7-2.8-2-5.4.9-6.5 5.4-6.3 4 0 5.1 2.6 4.8 6-.8 1.4-1.6 2.2-2.5 3.1z" class="st11"/><path id="svg_105" d="M423.8 162.7c3.1 0 5.1 1.7 6.5 4-2.8 3.1-4.8 8.5-10.8 4.3 1.8-2.6 3.2-5.5 4.3-8.3z" class="st14"/><path id="svg_106" d="M423.8 109.2v-4.3c4.3 1.4 8.2 2.8 12.5 4.5.3 2.3.6 4.5-1.7 6.3-3.9-1.6-5.6-6.7-10.8-6.5z" class="st11"/><path id="svg_107" d="M464.2 232.9h4.5c-1.7 2.3-4.3 2.3-6.5 2.3.6-.9 1.4-1.4 2-2.3zm82.2-38.4c-3.7-.9-3.1-4-3.1-6.5 2.8 1.4 1.9 4.5 3.1 6.5zm-2.9-6.5c-2-.9-2.3-2.6-2.3-4.3 2.3.6 2 2.6 2.3 4.3zm-12.8-23.3c-2-.9-2.6-2.3-2.3-4.3 2 .6 2 2.6 2.3 4.3z" class="st12"/><path id="svg_108" d="M509.1 139.1v2.3c-2.6-.9-2.3-3.1-2-5.1.6.8 1.5 1.7 2 2.8z" class="st11"/><path id="svg_109" d="M477.3 418.5c.9-2.3 2.6-2 4.3-2.3-1.5.9-2.9 1.5-4.3 2.3zm-4.3 2.3c.9-2.3 2.6-2.3 4.5-2.3-1.1 1.7-2.8 2-4.5 2.3zm66.3-241.3c-1.7-.9-2.3-2.6-2.3-4.3 2 .8 2.3 2.6 2.3 4.3zm-2.3-4.3c-2-1.1-2.3-2.8-2.3-4.8 1.7 1.4 2.6 2.8 2.3 4.8zm4.2 8.5c-2-.9-2.3-2.6-2.3-4.3 2.3.9 2.6 2.6 2.3 4.3zM415 297.1c-.9-.9-1.7-1.4-2.6-2.3 1.5.4 2.4.9 2.6 2.3z" class="st12"/><path id="svg_110" d="M419.9 301.1l-2-2c.8 0 2 .3 2 2z" class="st14"/><path id="svg_111" d="M528.5 160.4l-2.3-2.3c1.4 0 2 .9 2.3 2.3zm-46.9 255.9c.9-.9 1.7-1.4 2.6-2.3-1.2.8-2.1 1.7-2.6 2.3zM404.5 207c-.9.6-1.4 1.4-2.3 2 .6-.5 1.5-1.1 2.3-2z" class="st12"/><path id="svg_112" d="M246.8 214.7c-3.4 5.4-6 11.7-10.8 15.9-2.8.3-5.7 1.1-6 4.5-7.7 3.1-10.8-1.4-13.4-7.7-6-14.2-5.7-28.1 3.7-40.6 6.8-9.1 15.9-5.1 24.7-2.8 1.8 10 2.3 20.2 1.8 30.7z" class="st9"/><path id="svg_113" d="M141.6 209.9c7.4-3.1 15.4-5.4 22.2-9.4 9.1-4.8 10.2-12.2 3.1-19-5.1-5.1 0-7.4 1.1-10.8l.6-.3.6.3c9.9.9 21.3-.9 22.7 13.9 3.1 13.9-1.7 23-15.1 26.7-11.9 3.7-23.6 3.4-35.2-1.4z" class="st5"/><path id="svg_114" d="M245.3 183.7c-8.7-2.3-18-6.3-25.2 2.8-9.9 12.5-9.9 26.4-3.8 40.6 2.7 6.3 5.8 10.8 13.7 7.7-4.1 9.4-13.7 10.5-21.7 12.2-14.8 3.1-29.6 8.2-46.7.6 16.5-.9 31 .6 45.2-4.3 8.7-2.8 11.9-5.4 6.6-14.5-5.5-9.1-6.1-19-3.8-29.8 2.9-13.6 11.3-21 24.7-23.9 4 2.9 10.7 1.8 11 8.6zm-103.7 26.2c11.7 4.8 23.3 5.1 35.2 1.7 13.4-4 18.2-12.8 15.1-26.7 7.1 1.1 5.1 6.8 4.8 10.8-.9 9.4-6.5 15.6-15.1 18.8-16.2 6.3-31.8 5.1-46.9-3.1-7.1-3.7-10.8-10.2-9.4-18.5 1.1-7.1 4-13.1 12.8-15.6-13.3 18.1-12.2 25.8 3.5 32.6zm27.5-38.6l-.6-.3-.6.3h-11.7c.9-5.3.9-10.2 2.3-14.6 1.7-5.3 4.8-10.8 11.4-8.5 5.7 2.4 6 8.2 4.8 14-.7 4.2-2.7 6.8-5.6 9.1zm60.6-8.3c-11.1-3.4-21.3-5.1-31 1.4 10-13.7 20.2-14.2 31-1.4z" class="st1"/><path id="svg_115" d="M246.8 214.7c.3-10.2 0-20.8-2-31 5.4 1.7 4 7.4 6.8 10.8-1.4 6.8 0 14.2-4.8 20.2zm-35-85.8c.9 1.1 1.7 2.6 2.6 3.7-6.8 1.1-15.1-1.7-19 7.1.7-10.8 8.7-10.6 16.4-10.8zM230 235.2c.6-3.7 3.1-4.3 6-4.5-.6 3.3-1.8 5.9-6 4.5zm-41.1-119.5c.6-2.6 2.6-2.6 4.5-2.6-.8 2.6-2.8 2.3-4.5 2.6zm70.9 12.6c-2.8-1.4-6.5-2-6.8-6 2.8-1.1 4.5.9 6.3 2.3.2 1.4.2 2.6.5 3.7zm-117.4 313c0 .9-.3 1.7-.3 2.6-12.5-.3-25 2.8-37.2-2.3l-.6-.6c12.8-.6 25.6-.6 38.1.3zm-38.1 0l.6.6c-1.7 2.8-3.7.9-5.4.3 1.4-2.4 3.1-2.4 4.8-.9zm61.4-148.7c-4 8.8-8 17.3-11.9 26.2-2-3.7-1.7-8.2-6.8-10.8-5.1-2.6-2.3-6.5 1.4-8.8 5.1-2.9 11.1-5.2 17.3-6.6zm41.5 9.9c-1.1 1.7-2 3.1-3.1 4.8-6.5-.3-13.1-.6-19.6-.9 0-.3.6-.6.3-.6-.3-.6-.6-.9-.9-1.1 7.1-.9 13.9-1.4 21-2.3l.9.3 1.4-.2z" class="st1"/><path id="svg_116" d="M184.5 304.5c.3.3.6.9.9 1.1 0 .3-.3.6-.3.6-4.3 2-8.8.9-13.4.9-4 0-5.1-1.7-2.6-5.1 4.6 3.7 10.3.5 15.4 2.5z" class="st1"/><path id="svg_117" d="M207.2 302.5l-1.1.3-.9-.3c-.6-3.7-.3-7.1 3.1-9.7-.2 3.2-.5 6.6-1.1 9.7z" class="st6"/><path id="svg_118" d="M163.2 115.2c.9-1.1 2.6-2 3.1-.9.9 1.7-1.4 1.1-2.3 1.7-.3-.2-.5-.5-.8-.8z" class="st1"/><path id="svg_119" d="M423.8 416.3c13.6-4.8 27.3-10.2 41.5-13.6 2-.6 4-1.4 5.4.9-.9.6-1.7 1.4-2.3 2-18.2 3.1-34.7 11.7-52 19 1.2-4.9 5.7-5.2 7.4-8.3z" class="st11"/><path id="svg_120" d="M400.5 109.8c7.7-1.4 15.4-2.8 23 0 6.3 7.1 4.3 13.1-3.4 17.6-9.7 6-17.6 15.4-30.4 13.9-.6-2-2-3.4-4-4.3 0-.6-.3-1.1-.6-2 4-6.8.6-16.5 8.5-21.9.9-.6 1.4-1.1 2.3-1.7 1.5-.4 2.9-1 4.6-1.6zm-36.1 125.1c-.3-.6-.6-.9-.6-1.4.3-2 .9-4-1.7-4.8.3-6-5.7-13.6 4.8-17.1 1.4-.3 1.1-5.1 1.7-7.7 3.4 0 3.4-4.3 6-5.4 2 3.7 4.3 1.1 6.5.3v.3c0 3.4 0 7.1 2 9.9 4.3 6.3 4.3 12.8 2 19.6-.9 1.7-1.7 3.7-2.6 5.4-2.6 4.8-4.8 11.1-11.1 11.1-5.3.3-3.8-7.4-7-10.2z" class="st13"/><path id="svg_121" d="M369 203.6c-.6 2.8-.6 7.4-1.7 7.7-10.8 3.4-4.5 11.1-4.8 17.1-11.7-17.9-19.9-37.5-28.4-57.1 4-.6 7.4 0 9.1 4.3-.6 7.1 2.3 10.8 9.7 10.2 2.6-.3 4.8.3 6.8 2 .9.3 2 .3 2.8.6 3.4 4.4 4.5 10.1 6.5 15.2z" class="st12"/><path id="svg_122" d="M392.9 183.4c-4-2-7.7-4-11.7-6-.6-6.8 4-11.7 6.5-17.6 2 0 4-.3 6-.3l6 5.1c-.3 2.6-4.8 4.3-2.8 7.1 5.6 6.9-.6 8.6-4 11.7z" class="st1"/><path id="svg_123" d="M369 203.6c-2-5.1-3.1-10.8-6.8-15.4 6-4 6-12.5 13.9-17.1 1.7 9.7.9 18.2-1.1 27-2.6 1.5-2.6 5.5-6 5.5z" class="st15"/><path id="svg_124" d="M359.3 188c-2-1.7-4.3-2.3-6.8-2-7.4.6-10.2-3.4-9.7-10.2 2.3-2 4-4.3 7.4-5.4 3.4-1.1 6.8-2.6 9.4.3 2.3 2.6 4 6.3 1.7 9.7-1.1 2.2-1.7 4.7-2 7.6z" class="st1"/><path id="svg_125" d="M393.7 159.8c-2 0-4 .3-6 .3-3.1-6-3.1-11.7 2-16.5-.5 5.7 1.7 10.8 4 16.2z" class="st15"/><path id="svg_126" d="M280.9 320.5c2 4.3 4.3 8.8 6.3 13.1-1.4 1.1-2.6 2.6-4 3.7-6.3 2.3-14.5-4.3-19.6 4.3-2.8-3.1-4.5-8-10.2-6.8-.6-7.4 5.1-10.2 10.2-13.1 6.2 2.7 11.6-.4 17.3-1.2z" class="st13"/><path id="svg_127" d="M263.8 341.2c5.1-8.5 13.1-2 19.6-4.3-6.5 6-13.4 11.7-21.3 15.6 0-.9-.3-1.4-.3-2.3 2.3-2.5 2.9-5.6 2-9zm28.1 2.6c3.4 3.4 1.1 8 2.3 11.9-3.7 1.1-7.4 1.1-11.1.3 2.3-4.3 4-9.1 8.8-12.2z" class="st12"/><path id="svg_128" d="M279.2 359.1c-.3 2.3-.9 4.3-3.7 4.3-.3-2.9 1.1-4 3.7-4.3z" class="st11"/><path id="svg_129" d="M379.5 265c-4 5.7-3.4 11.1 0 16.8-.3 2.8-.3 5.7-.6 8.5-4.3 3.4-.9 8.2-2.6 12.2-2.6-3.7-5.4-7.4-5.7-11.9-1.4-5.1 3.7-10.2 0-15.1-.9-5.4 5.4-8 4.8-13.4 0-1.1 1.4-3.1 2.8-1.7 1 .9.7 3.2 1.3 4.6z" class="st12"/><path id="svg_130" d="M385.2 228.4c2-6.8 2-13.4-2-19.6-2-3.1-2-6.5-2-9.9 6.5 5.7 12.5 11.7 10.8 21.3-.3.6-.3 1.1-.3 2-2.5 1.6-2.8 5.6-6.5 6.2z" class="st14"/><path id="svg_131" d="M386.9 273.6c-.9 1.7-2 3.4-3.4 6.5-.9-4.5-1.4-8-2-11.4 1.7 1.7 3.7 3.1 5.4 4.9z" class="st13"/><path id="svg_132" d="M391.7 222.1c0-.6 0-1.1.3-2 1.4-1.4 2.8-2.8 4.3-4.5 1.4 3.1.3 5.1-2.3 6.8-.9 0-1.4 0-2.3-.3z" class="st2"/><path id="svg_133" d="M387.7 267.3c-.3.3-.9.6-1.1.6.3-.3.6-.6.9-1.1 0 .2.2.5.2.5z" class="st14"/><path id="svg_134" d="M425.8 408.3c-1.1 2-2.3 4.3-3.7 6.3-3.7 2.6-7.4 2-11.1 0 0-3.1-.3-6.3-.3-9.1.9-1.4 1.7-2.6 2.3-4 2.8-.6 5.4-1.4 8.2-2 0 .6.3 1.1.6 1.7 1.5 2.3 2.6 4.8 4 7.1z" class="st1"/><path id="svg_135" d="M361.9 344.6v2.8c-.3.9-.3 1.4-.6 2.3h-.9c-1.4-7.1-4.5-14.5.9-21.6 4.3 2.3 1.1 6.3 2.3 9.4h.3c-3.2 1.4-2.3 4.3-2 7.1z" class="st8"/><path id="svg_136" d="M360.5 349.7h.9c0 .6-.3.9-.3 1.4-.4-.5-.4-1.1-.6-1.4z" class="st11"/><path id="svg_137" d="M376.9 112.1c.6-.3 1.1-.3 1.7 0 .3 2.6.9 4.8-.6 7.1-2.3 3.1-5.4 2.6-8.5 2.6-.9 0-2.3-1.1-2.3-1.4 0-3.4 2.6-4.5 5.1-6 1.5-.9 3.2-1.5 4.6-2.3z" class="st8"/><path id="svg_138" d="M362.2 228.6c2.6.9 2 2.8 1.7 4.8-1.7-1.4-2-2.8-1.7-4.8z" class="st12"/><path id="svg_139" d="M347.1 213.6c-.3.3-.9.6-1.1 1.1 0-.6-.3-1.1-.3-1.7l1.1-.3.3.9z" class="st14"/><path id="svg_140" d="M263.8 321.6c-5.1 2.8-10.8 5.7-10.2 13.1-1.4.3-3.1.3-4.5.6-.6-2-1.4-4.3-2-6.3 2.8-5.4 4.5-10.5-.3-15.9-2.3-2.3-2-6-1.4-9.1s1.1-7.1 4.5-8c3.1-.9 4.3 3.1 6 5.4 1.4 2.8 2 6.3 6 6.5-.7 4.6 3 8.6 1.9 13.7z" class="st15"/><path id="svg_141" d="M272.6 301.1c.3-.3.3-.6.6-.9-.3.4-.6.6-.6.9-.3 0 0 0 0 0z" class="st11"/><path id="svg_142" d="M421.3 399.5c-2.8.6-5.4 1.4-8.2 2 .9-9.9-6.3-15.6-12.5-21.9 4.8-2.6 9.9-4.8 3.1-10.8-1.1-1.1-.9-3.7-1.1-5.7 4.3-3.4 8.5-7.1 12.8 0 1.7 2.8 5.1 2.6 7.4 1.1 9.4-6 11.7.3 13.4 7.4-3.1 2-6.5 1.7-9.9 2.6-10.2 2-10.8 3.4-5.1 12.5.4 4.3.4 8.5.1 12.8zm-59.4-54.9c-.3-2.8-1.1-5.7 2.3-7.4.2 2.9 0 5.4-2.3 7.4zm17.6-43.5c2.3 1.1 3.4 2.8 4.3 5.4 1.1 3.7.3 9.9 8.2 6.3 3.1-1.4 4.5 3.1 4.5 6.5 2.3 4.8 5.1 9.9 4.3 15.6l-4.3 4.3c-9.4 2.6-11.1 10.8-4.3 19-1.7 3.7-5.1 6.3-8 8.8-1.9-21.5-3.3-43.7-4.7-65.9z" class="st12"/><path id="svg_143" d="M396.3 339.5l4.3-4.3c6 4 11.4 8.8 19 8.8.3.3.6.3.9.6-.3-.3-.6-.3-.9-.6v-4.3h6c1.4 6 6.3 8.5 11.1 10.8 3.7 6.5 8 13.1 4 21h-4.3c-2-7.1-4.3-13.4-13.4-7.4-2.6 1.7-5.7 2-7.4-1.1-4.5-7.1-8.5-3.4-12.8 0-1.4-1.4-2.8-2.6-4.3-4 4-2 9.7-2.3 8.2-9.1.3-.3.6-.6.9-.6h-.6c-.3.3-.3.6-.3.9-1-5.9-6.7-7.6-10.4-10.7z" class="st11"/><path id="svg_144" d="M406.8 350c1.4 6.8-4.3 7.1-8.2 9.1-2.3-.3-4.5-.3-6.5-.6-6.8-8.2-4.8-16.5 4.3-19 3.6 3.1 9.3 4.8 10.4 10.5zM249 335c1.4-.3 3.1-.3 4.5-.6 5.7-1.1 7.4 3.7 10.2 6.8.9 3.4.3 6.5-2 9.1-5.1 3.7-11.4 4.5-15.4-.6-3.2-4.2-2.1-10.2 2.7-14.7z" class="st1"/><path id="svg_145" d="M519.9 307.7c.6 0 1.1 0 2-.3 2.8 5.4 3.1 10.5-2.3 15.1 0-2-.3-4-.3-6 .1-3.2.3-6 .6-8.8zm-.3 21c-.9 0-1.4 0-2.3.3-.9-2.6.3-4.8 2-6.5.3 1.9.3 3.9.3 6.2z" class="st10"/><path id="svg_146" d="M468.5 360.5c8.5 1.4 20.5-4.3 21.9 11.1-2.3 6.5-8 9.1-13.4 12.2-9.4.6-19.6 7.4-27.6-3.4l-2.8-2.8c1.4-2 2.8-4 .6-6.3.8-12.2 6.5-15 21.3-10.8z" class="st13"/><path id="svg_147" d="M446.6 377.9l2.8 2.8c-2.6 2.6-.9 5.4-.6 8.2-3.1-.9-6.3-.6-9.1 1.1-1.1.9-4-.3-3.7 2.3.3 2.3 3.1 2.3 4.8 3.1-3.1 6.5-9.4 9.4-15.4 12.8-1.4-2.3-2.6-4.5-4-6.8 7.7-2.6 9.9-6.5 4-13.1 9.5.4 15.2-5.6 21.2-10.4z" class="st14"/><path id="svg_148" d="M449.1 389c-.3-2.8-2-5.7.6-8.2 8 10.8 18.2 3.7 27.6 3.4-5.4 10.5-15.4 8.2-24.2 9.1-1.7-1.8-2.8-2.9-4-4.3z" class="st15"/><path id="svg_149" d="M449.1 389c1.1 1.4 2.6 2.8 3.7 4.3-3.4 3.1-8 1.1-11.7 2.6-1.7-.9-4.5-.9-4.8-3.1-.3-2.6 2.6-1.4 3.7-2.3 2.9-2.1 6-2.4 9.1-1.5z" class="st8"/><path id="svg_150" d="M473 136.8l4.3 4.3-1.7 1.7c-.9-.6-1.7-1.4-2.6-2v-4c-.3.3 0 0 0 0zm4.3 4.3l4.3 4.3-.9.9c-1.1-.3-2.6-.6-3.7-.9-.6-.9-1.1-1.7-1.4-2.6l1.7-1.7zm-6.3-6.6c.6.9 1.4 1.4 2 2.3l-.3.3c-.9-.6-1.4-1.4-2.3-2l.6-.6z" class="st12"/><path id="svg_151" d="M419.6 343.8c-7.7.3-13.1-4.8-19-8.8 1.1-6-1.7-10.8-4.3-15.6 1.1 0 2.3.3 3.4.3.9 0 1.7.3 2.6.3h6.5c.3 8.2 6.3 13.4 10.5 19.3.3 1.6.3 3 .3 4.5z" class="st15"/><path id="svg_152" d="M419.6 339.5c-4.3-6-10.2-11.1-10.5-19.3.6-5.1 2.8-9.1 6-13.1 7.3 9.9 2.2 21.9 4.5 32.4z" class="st11"/><path id="svg_153" d="M402.2 320.2c-.9 0-1.7-.3-2.6-.3 1.2-1.2 2.1-1.2 2.6.3z" class="st12"/><path id="svg_154" d="M400.5 109.8c-1.4.6-2.8 1.1-4.3 1.7.9-2 2.3-2 4.3-1.7z" class="st14"/><path id="svg_155" d="M423.8 105c-.3-.3-.6-.3-.9-.6.4.3.7.3.9.6z" class="st11"/><path id="svg_156" d="M446.6 377.9c-6.3 4.8-11.9 10.8-20.8 10.2-1.4-.6-2.8-1.1-4.3-1.7-5.7-9.1-5.1-10.8 5.1-12.5 3.4-.6 6.8-.6 9.9-2.6h4.3c2 0 4.3.3 6.3.3 2.3 2.3 1.2 4.3-.5 6.3z" class="st15"/><path id="svg_157" d="M436.6 350.3c-5.1-2.3-9.7-4.8-11.1-10.8-.3-5.1.9-9.9 4.5-13.9 11.4-.6 9.9 9.7 13.4 15.9-2.2 2.8-4.5 6-6.8 8.8z" class="st1"/><path id="svg_158" d="M477 145.3c1.1.3 2.6.6 3.7.9.9 8.8 5.1 15.6 11.1 21.6 2.3 2.3 6.3 3.4 6.8 7.7 2.3 2.6 4.5 4.5 8.2 4.3 0 1.4.9 2.3 2.3 2.3-.6 2 .3 3.4 2.3 4.3.9 3.4 1.7 6.8 2.6 10.2l-.6.6c-19.6-6-27.9-2-32.1 15.4-1.4-1.1-3.1-2-4.5-3.1.9-4 1.7-8.2 2.3-12.2 8.2-3.7 11.4-10.2 11.1-19 1.7-4.3-2.8-4.3-4.3-6.5-2.3-6.5-6.5-11.1-13.4-13.1 1.7-4.8 3.1-9.1 4.5-13.4z" class="st14"/><path id="svg_159" d="M514 196.2c-.9-3.4-1.7-6.8-2.6-10.2 5.1 2 4.3 6.3 4.3 10.2H514zm-7.1-16.5c-3.7.3-6-1.7-8.2-4.3 3.6-.2 6.7.4 8.2 4.3zm4.2 6.3c-2-.9-2.6-2.3-2.3-4.3 2 .9 2.6 2.6 2.3 4.3z" class="st10"/><path id="svg_160" d="M509.1 181.7c-1.4 0-2.3-.9-2.3-2.3.9.9 1.5 1.8 2.3 2.3z" class="st10"/><path id="svg_161" d="M451.4 286.3c-6.8 1.7-12.8 2-12.5-7.7.3-6.3 2.3-11.1 9.1-11.9 5.4 13.4 13.4 3.7 20.5 2.3 2.6 2.6 1.1 9.1 6.5 8.5 9.7-.9 16.8 5.1 25.6 6.8.9 2 1.7 4 2.3 5.7.9 6 11.4 11.9 0 17.6-3.4-5.1-7.1-16.2-9.1-14.5-6 4.3-11.4 0-16.5 1.7-.6-3.1 4-6 .6-9.4-4.8 2.3-9.4 4.5-13.9 6.8-2.9-4.7-6.9-7.3-12.6-5.9z" class="st11"/><path id="svg_162" d="M468.5 269c-7.1 1.4-15.1 11.1-20.5-2.3V265c4.3-7.1 9.4-11.9 18.5-8 0 3.7.6 7.1 2.8 10.2-.8.4-.8 1-.8 1.8zm-74.2-35.8c2-1.1 4-2.3 5.7-3.4 2.8 1.1 6 2 8.8 3.1 1.1 1.4 2.6 2.8 3.7 4.3.3 7.1-2.6 11.1-10.2 10.8-6.3-2.9-10.3-6.9-8-14.8z" class="st1"/><path id="svg_163" d="M519.6 322.2c-2 1.7-2.8 4-2 6.5-1.7-.3-2.3.6-2.3 2.3-2-.6-3.4.6-4.3 2.3-.9.9-1.7 1.4-2.3 2.3-9.7 2.3-17.9-4-27.3-4.5.6-6.3-4.8-10.8-4.8-17.1 0-7.1 2.3-9.7 9.4-7.7 5.4 1.4 10.8 2.6 16.2 3.7 4.8 3.7 11.1 4.3 16.5 6.8.7 1.4.7 3.4.9 5.4z" class="st13"/><path id="svg_164" d="M463.9 292c4.5-2.3 9.1-4.5 13.9-6.8 3.4 3.4-1.1 6.3-.6 9.4-4.5 6-5.1 14.5-11.1 19.6-1.4-.3-2.8-.3-4.3-.6h-.9c-1.1-1.4-2-2.8-3.1-4.3 4-2.6 6.3-6.3 4-10.8-1.3-2.8-1.3-5.1 2.1-6.5z" class="st15"/><path id="svg_165" d="M519.1 316.2c-5.4-2.6-11.7-2.8-16.5-6.8 0-.6 0-1.4.3-2 11.4-6 .9-11.9 0-17.6 5.1.6 6.8-4 10.2-6l.6.6c-.3 4.3-1.1 8.8 2 12.5 1.1 3.7 1.1 8 4.3 10.8-.4 2.8-.6 5.6-.9 8.5zm-57.4-2.6c1.4.3 2.8.3 4.3.6-1.8 2.6-2.9.9-4.3-.6z" class="st14"/><path id="svg_166" d="M511.1 333c.9-1.7 2.3-2.6 4.3-2.3-.6 2.3-2.3 2.5-4.3 2.3zm-2.3 2.2c.9-.9 1.7-1.4 2.3-2.3-.6.9-1.4 1.5-2.3 2.3zm6.6-4.2c0-1.4.3-2.6 2.3-2.3-.9.9-1.5 1.4-2.3 2.3z" class="st10"/><path id="svg_167" d="M463.9 292c-3.4 1.4-3.4 3.4-2 6.5 2 4.5-.3 8-4 10.8-9.1-.9-11.4-7.4-13.1-14.8.6-4.3 4.5-5.7 6.5-8.5 5.8-1.1 9.8 1.5 12.6 6zm44.9-48.6c.3-7.1 5.1-9.4 10.8-10.8 10.5 1.1 8.5 9.1 8.8 15.9-3.4 3.4-8.2 2.3-12.5 3.4-3.1-2.2-5.6-4.8-7.1-8.5z" class="st1"/><path id="svg_168" d="M523.9 262.5c4.3 9.1-2 16.2-4.3 24.2-1.7-1.1-3.4-2.8-5.7-2.3l-.6-.6c2.8-6 2.3-12.5 2.6-18.8 2.6-.8 5.2-1.7 8-2.5z" class="st14"/><path id="svg_169" d="M523.9 262.5c-2.8.9-5.4 1.7-8.2 2.6-3.7-.3-6.3-2-6.5-6 3.7-.9 6-3.1 6.8-6.8 4.3-1.1 9.1 0 12.5-3.4-3.7 3.6-5.4 8.2-4.6 13.6z" class="st12"/><path id="svg_170" d="M513.7 284.4c2.6-.6 4 .9 5.7 2.3-1.1 3.4 3.4 9.1-4 10.2-2.9-4-2.3-8.3-1.7-12.5z" class="st8"/><path id="svg_171" d="M468.5 269c0-.6.3-1.4.6-2 6-6 12.2-11.4 21-13.1 4.5.6 10.2-1.1 12.5 5.1-3.7 8.2-.9 16.8-2 25-8.8-1.4-16.2-7.7-25.6-6.8-5.4.6-4.2-5.6-6.5-8.2z" class="st12"/><path id="svg_172" d="M500.6 284.1c1.1-8.2-1.7-17.1 2-25 2.3 0 4.3 0 6.5-.3.3 4 2.8 5.7 6.5 6-.3 6.3.3 12.8-2.6 18.8-3.4 2-5.1 6.8-10.2 6-.8-1.6-1.6-3.5-2.2-5.5z" class="st15"/><path id="svg_173" d="M481.3 211.9c4.3-17.3 12.2-21.3 32.1-15.4 2.3 6 5.7 11.7 0 17.6-3.1 0-7.1-1.1-9.1.3-8 6-15.4 2.3-23-.3v-2.2z" class="st13"/><path id="svg_174" d="M481.3 211.9c0 .9-.3 1.7-.3 2.3-4.8 4-1.4 13.4-10.2 14.5-11.7-2.6-11.9-4.5-4.5-19.3 3.4-.3 6.8-.3 10.2-.6 1.9 1.1 3.3 2.2 4.8 3.1z" class="st1"/><path id="svg_175" d="M432.4 186.3c.6-2.3 2-3.7 4.3-4.5 7.7.9 14.8 2.8 21.6 6.5 0 3.1 2.3 4.3 5.1 4.5-.3 2-.6 4.3-.9 6.3-7.4-1.1-13.4 2-19 6.3.6-4.3 1.4-8.5 2-12.8-.3-1.7-.6-4.5-.9-4.5-2.6 0-2.8 2.3-3.1 4.3h-8.2c-.9-2.1-.9-4.1-.9-6.1z" class="st11"/><path id="svg_176" d="M458 188.3c-6.8-3.7-13.9-5.7-21.6-6.5V171c5.1 1.4 8.5 6.8 14.8 5.4 5.3 2.2 5.9 7 6.8 11.9zm-25.6-2v6c-3.4 1.7-7.1 3.1-10.5 4.8l-.6-.6c2.3-5.1 7.4-6.8 11.1-10.2z" class="st14"/><path id="svg_177" d="M417 198.8c.9-.9 1.7-2 2.8-2.8.6.3 1.1.3 1.7.3l.6.6c-.3 2.8-.3 6-4.3 6.3l-.6-.3c-.2-1.3-.2-2.7-.2-4.1z" class="st14"/><path id="svg_178" d="M458 188.3c-.6-4.8-1.4-9.7-6.5-11.7 0-1.7 0-3.4.3-5.1 10.5 2.3 15.9-2.6 17.3-12.8 1.4 0 2.6 0 4-.3 6.8 1.7 11.1 6.5 13.4 13.1-2.6.6-5.4-1.4-7.7.9 2 6.3 6 7.7 11.9 5.7.3 8.8-2.8 15.4-11.1 19-3.7-8.2-10.2-5.7-16.2-4.3-3.2-.5-5.4-1.4-5.4-4.5z" class="st12"/><path id="svg_179" d="M468.8 158.4c-1.4 10.2-6.5 15.1-17.3 12.8-1.7-7.7-6.3-13.4-13.1-17.1.3-4.3.6-8.5.9-12.8 5.1-.6 6-5.1 8.2-8.2 1.7-2.3 2.6-6.5 6.5-2.6.3 6.5 7.4 9.4 8.5 15.4-.8 5.4 3.4 8.5 6.3 12.5z" class="st13"/><path id="svg_180" d="M426.1 241.4v-2.3c1.7-.6 1.7-1.4 0-2v-2.3c1.7-.9 2.3-2.6 2.3-4.3 3.1-1.4 4-3.7 1.7-6.5 6-3.7 8-10.5 11.9-15.9.6.6 1.4 1.1 2 1.7-1.7 5.7 2.8 10.5 2.6 16.2-7.4 5.2-10.5 14.9-20.5 15.4z" class="st12"/><path id="svg_181" d="M446.3 226.6c.3-5.7-4.3-10.5-2.6-16.2 5.7 2.3 4 8.2 5.7 12.5-.3.6 0 1.4 0 2-.9 1.4.9 3.7-1.4 4.3-.3-.3-1.1-2-1.7-2.6z" class="st8"/><path id="svg_182" d="M470.8 135.1c.9.6 1.4 1.4 2.3 2 0 1.1.3 2.6.3 3.7-2.3 0-4.3.3-6.5.3-3.1-2-3.4-5.4-4.3-8.5l.3-.3c2.5.8 5 1.7 7.9 2.8zm-10.6-6.8c.9 1.4 1.7 2.8 2.3 4l-.3.3c-.9-1.1-1.7-2.6-2.8-3.7.3 0 .5-.3.8-.6z" class="st11"/><path id="svg_183" d="M459.4 129.1c.9 1.1 1.7 2.6 2.8 3.7.9 3.1 1.1 6.5 4.3 8.5-1.4 1.4-2.8 2.8-4.3 4.5-1.1-6-8.2-8.5-8.5-15.4 2-.7 3.7-2.4 5.7-1.3z" class="st8"/><path id="svg_184" d="M449.4 222.7c-1.7-4.3 0-9.9-5.7-12.5-.6-.6-1.4-1.1-2-1.7.6-1.1.9-2.3 1.4-3.4 5.7-4.3 11.7-7.4 19-6.3 2.3 3.1 2.3 6.8 2.3 10.2-4.5 5.1-12.7 6-15 13.7z" class="st12"/><path id="svg_185" d="M464.5 209c0-3.7-.3-7.1-2.3-10.2.3-2 .6-4.3.9-6.3 6.3-1.4 12.5-4 16.2 4.3-.9 4-1.7 8.2-2.3 12.2-3.4.3-6.8.3-10.2.6-.9-.3-1.7-.3-2.3-.6z" class="st15"/><path id="svg_186" d="M425.8 235.2v4.3c-4.8 3.1-8.8-.6-13.1-2-1.1-1.4-2.6-2.8-3.7-4.3 5.1.6 9.4-1.7 14.2-2.8l.6.6c.6 1.3 1.5 2.8 2 4.2z" class="st14"/><path id="svg_187" d="M443.2 205c-.3 1.1-.9 2.3-1.4 3.4-3.7 5.4-5.7 12.2-11.9 15.9-2-.6-4-1.4-6-2-2-3.1-4.8-5.1-8.5-4.8.9-4.8 1.4-9.4 2.3-14.2 4-.3 4-3.4 4.3-6.3 3.4-1.4 7.1-3.1 10.5-4.8h8.2c1.4 0 2.8.3 4.3.3-.7 4.3-1.3 8.6-1.8 12.5z" class="st13"/><path id="svg_188" d="M415.6 217.3c4 0 6.5 1.7 8.5 4.8-.3 2.6-.6 5.4-.9 8-4.8.9-9.1 3.4-14.2 2.8-2.8-1.1-6-2-8.8-3.1-6.3-4.8 5.1-5.4 2.3-9.7 4.3-.8 8.6-1.7 13.1-2.8z" class="st15"/><path id="svg_189" d="M421.6 386.4c1.4.6 2.8 1.1 4.3 1.7 6 6.5 3.7 10.8-4 13.1-.3-.6-.6-1.1-.6-1.7.3-4.3.3-8.5.3-13.1z" class="st11"/><path id="svg_190" d="M406.8 350.3c0-.3 0-.6.3-.9h.6c-.3.3-.6.3-.9.9 0-.3 0 0 0 0z" class="st1"/><path id="svg_191" d="M419.6 343.8c.3.3.6.3.9.6-.3-.4-.6-.6-.9-.6z" class="st15"/><path id="svg_192" d="M462.5 145.6c1.4-1.4 2.8-2.8 4.3-4.5 2.3 0 4.3-.3 6.5-.3.9.6 1.7 1.4 2.6 2 .6.9 1.1 1.7 1.4 2.6-1.4 4.3-2.8 8.5-4.3 12.8-1.4 0-2.6 0-4 .3-3.1-4.1-7.3-7.2-6.5-12.9z" class="st1"/><path id="svg_193" d="M490.4 177.8c-5.7 2.3-9.9.6-11.9-5.7 2.3-2.3 5.1-.3 7.7-.9 1.3 2.3 5.9 2.3 4.2 6.6z" class="st8"/><path id="svg_194" d="M444.9 192.5c-1.4 0-2.8-.3-4.3-.3.6-2 .6-4.3 3.1-4.3.6.1.9 2.9 1.2 4.6zm-21.6 37.8c.3-2.6.6-5.4.9-8 2 .6 4 1.4 6 2 2 2.8 1.4 5.1-1.7 6.5h-4.3l-.9-.5z" class="st14"/><path id="svg_195" d="M423.8 230.9h4.3c-.3 1.7-.6 3.4-2.3 4.3-.5-1.4-1.4-2.9-2-4.3zm2 8.3v-2c1.7.8 1.7 1.4 0 2z" class="st11"/><path id="svg_196" d="M89.6 439.8c8.5-.6 11.7.6 11.7.6l-1.7 2.3-11.9-.9 1.9-2zm52.8 1.5l5.7-1.4s4.8 0 6.8 1.7-2.8 4.5-2.8 4.5l-9.9-2.3.2-2.5z" class="st1"/><path id="svg_197" d="M87.8 441.6l27.9 2.5V441l-26.1-1.2m62.5.9l19.9-4.5 4.8 1.4-22.7 6.8m110-16.5l27.3 6.8-6.6 2.3-21.6-5.7" class="st1"/><path id="svg_198" d="M165.7 292.6l4.9-14.2 7.4-2-9.1 25.9" class="st2"/><path id="svg_199" d="M230.5 239.7l-.5-4.5 5.9-4.6-1.7 4-3.9.6 7.1-6" class="st3"/><path id="svg_200" d="M236.8 230.9l-4.3 2.9 1.7 2.8 3.7-2.8" class="st3"/><path id="svg_201" d="M230 235.2s0-1.4.6-2 2-2 3.1-2.3 1.7-.3 2.3-.3" class="st9"/><path id="svg_202" d="M243.3 179.7l4.9 6.6-2.6 1.7m-7.7 40.6s-5.4 2.8-6.3-11.1-1.1-17.3-.6-23.6c.7-6.2 6.9 34.7 6.9 34.7z" class="st1"/><path id="svg_203" d="M226.6 240.6s13.6-8.8 16.8-15.9c3.1-7.1 4.8-11.9 4.8-11.9l-21.6 27.8zm15.6-57.4s2.3-.3 2.8.3c.6.6.9 2 .6 2.6-.3.6-.3-.3-.3-.3" class="st1"/><path id="svg_204" d="M246.8 211.9s.9 2 0 4c-.9 1.9 0-4 0-4z" class="st1"/><path id="svg_205" d="M230 231.5l3.19999695-.80000305L233 231.8999939l-2.6000061 1.7000122" class="st9"/><path id="svg_206" d="M228.6000061 235.6000061L232.5 233.80000305l-5.19999695 6.30000305-3.1000061 1.2999878z" class="st1"/><g id="svg_219" fill="#BF2634" stroke="null"><path id="svg_211" d="M662.442677 194.531744c9.32381 0 18.647619-1.087778 27.660635.155397 24.708095 3.263333 36.362857 18.647619 35.74127 45.220476-.621587 23.775714-14.141111 37.916826-38.849206 39.936984-7.303651.621587-14.607302.776984-21.910952.46619-5.749683-.155397-8.546825 1.553968-8.080635 7.769841.310794 4.506508-.46619 9.32381.155397 13.830318 1.864762 11.033175-3.263333 12.587143-13.20873 13.20873-12.276349.621587-14.296508-3.574127-14.141111-14.762698.776984-32.32254.46619-64.489683.155397-96.812223-.155397-7.459048 1.709365-10.566984 9.479206-9.945397 7.614444.621587 15.384286.155397 22.99873.155397v.776984zm-5.438889 42.11254c0 20.667778 0 20.667778 20.356984 20.201587 14.607302-.310794 20.667778-5.905079 21.133968-19.735397.46619-12.74254-5.283492-18.647619-19.58-20.046191-21.910952-2.020159-21.910952-2.020159-21.910952 19.58z"/><path id="svg_212" d="M1105.012837 262.906348c-7.459048-21.444762 11.499365-30.457778 20.201587-46.152857-10.411587 0-19.424603-.310794-28.437619.155397-11.188571.46619-6.83746-7.614444-7.459048-12.897937-.46619-5.283492-1.398571-10.566984 7.459048-10.256191 17.715238.621587 35.430476 0 53.145714.310794 4.195714 0 10.877778-2.797143 12.276349 2.641746 1.553968 6.215873 2.797143 13.519524-2.797143 19.58-6.83746 7.303651-13.20873 14.918095-19.735397 22.377143.310794 2.797143 2.797143 2.486349 4.195714 3.107937 18.181429 7.303651 25.95127 19.424603 24.552698 38.227619-1.398571 17.249048-14.141111 30.923968-32.167143 34.498095-16.16127 3.263333-31.079365-.155397-45.53127-7.459048-6.992857-3.574127-7.925238-6.682064-4.351111-13.985714 4.506508-9.013016 7.925238-13.674921 18.026032-6.37127 6.526667 4.817302 14.918095 6.060476 23.154127 5.128095 8.546825-.932381 14.762698-4.817302 15.073492-14.296508.46619-9.32381-5.438889-13.985714-13.519524-16.005873-8.080635-1.864762-16.005873-.621587-24.086508 1.398571z"/><path id="svg_213" d="M1064.609662 279.999999c0 9.168413-.155397 18.492222 0 27.660635.155397 4.817302-1.243175 7.925238-6.37127 6.526667-6.37127-1.709365-15.384286 5.749683-19.11381-6.215873-1.243175-3.729524-4.817302 1.243175-6.992857 2.486349-12.120952 7.148254-24.241905 6.526667-36.052064 0-10.722381-5.749683-15.695079-15.228889-15.228889-27.660635.621587-14.918095 10.722381-24.863492 27.971429-26.41746 7.614444-.621587 15.384286-.621587 22.99873-.46619 8.702222.155397 7.614444-4.351111 4.817302-9.479206-2.486349-4.351111-6.682064-5.905079-11.654762-6.215873-8.391429-.621587-16.16127 1.553968-23.154127 5.594286-4.817302 2.797143-7.148254 1.864762-10.256191-2.330952-8.080635-11.033175-8.080635-11.810159 4.661905-17.715238 13.674921-6.215873 27.816032-8.702222 42.57873-4.817302 16.938254 4.506508 24.708095 13.674921 25.485079 31.079365.46619 9.168413 0 18.492222 0 27.660635.155397.310794.310794.310794.310794.310794zm-37.916826-6.060476c-7.769841 2.020159-19.11381-2.330952-19.735397 10.722381-.46619 8.857619 7.459048 9.479206 14.141111 9.634603 9.79.155397 17.870635-6.682064 17.559841-14.607302-.46619-9.634603-8.391429-3.107937-11.965556-5.749683z"/><path id="svg_214" d="M918.381249 293.208729c15.850476 0 28.126825.46619 40.247778-.155397 9.634603-.46619 7.925238 5.594286 8.080635 11.188571 0 5.283492 1.398571 10.722381-7.459048 10.411587-22.221746-.621587-44.598889-.310794-66.976032-.155397-4.972698 0-6.526667-1.553968-6.682064-6.526667-.46619-9.634603.932381-17.559841 8.236032-25.018889 11.810159-11.965556 22.53254-25.174286 35.585873-40.092381-12.587143 0-22.99873-.46619-33.410318.155397-7.925238.46619-7.925238-4.195714-7.148254-9.32381.776984-4.661905-3.884921-12.431746 6.682064-12.276349 20.356984.310794 40.713968 0 61.070953.155397 2.486349 0 6.37127-1.087778 6.526667 2.641746.46619 7.459048 2.797143 15.228889-3.41873 21.910952-10.100794 11.033175-19.890794 22.377143-29.836191 33.565714-3.263333 3.729524-6.37127 7.459048-11.499365 13.519524z"/><path id="svg_215" d="M833.689979 242.860157c-12.897937 0-23.154127-.46619-33.410318.155397-9.479206.621587-6.992857-5.905079-6.992857-10.722381 0-4.817302-2.330952-11.188571 6.992857-10.877778 17.249048.46619 34.653492-.155397 51.90254.310794 5.283492.155397 13.364127-3.574127 15.228889 2.797143 2.175556 7.614444 2.486349 16.16127-4.817302 23.464921-10.877778 10.877778-20.512381 22.843333-30.613175 34.342699-2.486349 2.797143-4.817302 5.905079-8.857619 10.722381h17.249048c30.302381 0 30.302381 0 30.457778 10.411587 0 10.877778 0 10.877778-30.923968 10.877778-11.188571 0-22.377143.310794-33.410318-.155397-5.438889-.155397-14.141111 3.263333-15.695079-2.330952-2.175556-8.236032-3.263333-17.559841 4.661905-25.640476 12.897937-13.053333 24.397302-27.349841 38.227619-43.355714z"/><path id="svg_216" d="M1231.816647 255.136506c0 16.472064-.46619 33.099524.155397 49.571587.310794 8.391429-2.641746 10.256191-10.411587 9.945397-18.181429-.776984-15.384286 2.175556-15.384286-15.073492-.155397-23.464921-.621587-46.929841.155397-70.394762.310794-10.100794-2.175556-14.451905-12.587143-12.431746-10.100794 2.020159-10.877778-3.574127-11.033175-11.810159-.155397-8.080635 1.398571-12.276349 10.722381-11.188571 12.431746 1.398571 29.214603-5.438889 36.362857 2.641746 6.215873 7.148254 1.864762 23.464921 2.020159 35.74127.155397 7.614444 0 15.228889 0 22.99873z"/><path id="svg_217" d="M770.598868 268.034443c0 12.74254-.310794 25.329683.155397 38.072222.155397 6.37127-1.398571 8.546825-8.236032 8.702222-17.404445 0-17.404445.310794-17.404445-16.62746 0-22.687937.621587-45.375873-.310794-68.06381-.310794-10.411587 5.749683-9.168413 11.654762-8.546825 5.749683.621587 14.918095-4.506508 14.296508 8.236032-.621587 12.74254-.155397 25.485079-.155397 38.227619z"/><path id="svg_218" d="M772.92982 198.727459c-.155397 8.702222-6.682064 14.918095-15.695079 14.451905-9.168413-.46619-13.830318-5.594286-14.296508-14.607302-.46619-8.236032 6.83746-15.539683 14.918095-15.539683 7.925238 0 15.073492 7.614444 15.073492 15.695079z"/></g></svg>