<?xml version="1.0" encoding="utf-8"?>
<!-- Generator: Adobe Illustrator 20.1.0, SVG Export Plug-In . SVG Version: 6.00 Build 0)  -->
<svg version="1.1" id="Layer_1" xmlns="http://www.w3.org/2000/svg" xmlns:xlink="http://www.w3.org/1999/xlink" x="0px" y="0px"
	 viewBox="0 0 387.9 85.5" enable-background="new 0 0 387.9 85.5" xml:space="preserve">
<path fill="#BF2634" d="M21,7.4C27,7.4,33,6.7,38.8,7.5c15.9,2.1,23.4,12,23,29.1c-0.4,15.3-9.1,24.4-25,25.7
	c-4.7,0.4-9.4,0.5-14.1,0.3c-3.7-0.1-5.5,1-5.2,5c0.2,2.9-0.3,6,0.1,8.9c1.2,7.1-2.1,8.1-8.5,8.5c-7.9,0.4-9.2-2.3-9.1-9.5
	c0.5-20.8,0.3-41.5,0.1-62.3C0,8.4,1.2,6.4,6.2,6.8c4.9,0.4,9.9,0.1,14.8,0.1C21,7.1,21,7.2,21,7.4z M17.5,34.5
	c0,13.3,0,13.3,13.1,13c9.4-0.2,13.3-3.8,13.6-12.7c0.3-8.2-3.4-12-12.6-12.9C17.5,20.6,17.5,20.6,17.5,34.5z"/>
<path fill="#BF2634" d="M305.8,51.4c-4.8-13.8,7.4-19.6,13-29.7c-6.7,0-12.5-0.2-18.3,0.1c-7.2,0.3-4.4-4.9-4.8-8.3
	c-0.3-3.4-0.9-6.8,4.8-6.6c11.4,0.4,22.8,0,34.2,0.2c2.7,0,7-1.8,7.9,1.7c1,4,1.8,8.7-1.8,12.6c-4.4,4.7-8.5,9.6-12.7,14.4
	c0.2,1.8,1.8,1.6,2.7,2c11.7,4.7,16.7,12.5,15.8,24.6c-0.9,11.1-9.1,19.9-20.7,22.2c-10.4,2.1-20-0.1-29.3-4.8
	c-4.5-2.3-5.1-4.3-2.8-9c2.9-5.8,5.1-8.8,11.6-4.1c4.2,3.1,9.6,3.9,14.9,3.3c5.5-0.6,9.5-3.1,9.7-9.2c0.3-6-3.5-9-8.7-10.3
	C316.1,49.3,311,50.1,305.8,51.4z"/>
<path fill="#BF2634" d="M279.8,62.4c0,5.9-0.1,11.9,0,17.8c0.1,3.1-0.8,5.1-4.1,4.2c-4.1-1.1-9.9,3.7-12.3-4
	c-0.8-2.4-3.1,0.8-4.5,1.6c-7.8,4.6-15.6,4.2-23.2,0c-6.9-3.7-10.1-9.8-9.8-17.8c0.4-9.6,6.9-16,18-17c4.9-0.4,9.9-0.4,14.8-0.3
	c5.6,0.1,4.9-2.8,3.1-6.1c-1.6-2.8-4.3-3.8-7.5-4c-5.4-0.4-10.4,1-14.9,3.6c-3.1,1.8-4.6,1.2-6.6-1.5c-5.2-7.1-5.2-7.6,3-11.4
	c8.8-4,17.9-5.6,27.4-3.1c10.9,2.9,15.9,8.8,16.4,20c0.3,5.9,0,11.9,0,17.8C279.7,62.4,279.8,62.4,279.8,62.4z M255.4,58.5
	c-5,1.3-12.3-1.5-12.7,6.9c-0.3,5.7,4.8,6.1,9.1,6.2c6.3,0.1,11.5-4.3,11.3-9.4C262.8,56,257.7,60.2,255.4,58.5z"/>
<path fill="#BF2634" d="M185.7,70.9c10.2,0,18.1,0.3,25.9-0.1c6.2-0.3,5.1,3.6,5.2,7.2c0,3.4,0.9,6.9-4.8,6.7
	c-14.3-0.4-28.7-0.2-43.1-0.1c-3.2,0-4.2-1-4.3-4.2c-0.3-6.2,0.6-11.3,5.3-16.1c7.6-7.7,14.5-16.2,22.9-25.8
	c-8.1,0-14.8-0.3-21.5,0.1c-5.1,0.3-5.1-2.7-4.6-6c0.5-3-2.5-8,4.3-7.9c13.1,0.2,26.2,0,39.3,0.1c1.6,0,4.1-0.7,4.2,1.7
	c0.3,4.8,1.8,9.8-2.2,14.1c-6.5,7.1-12.8,14.4-19.2,21.6C191,64.6,189,67,185.7,70.9z"/>
<path fill="#BF2634" d="M131.2,38.5c-8.3,0-14.9-0.3-21.5,0.1c-6.1,0.4-4.5-3.8-4.5-6.9c0-3.1-1.5-7.2,4.5-7
	c11.1,0.3,22.3-0.1,33.4,0.2c3.4,0.1,8.6-2.3,9.8,1.8c1.4,4.9,1.6,10.4-3.1,15.1c-7,7-13.2,14.7-19.7,22.1c-1.6,1.8-3.1,3.8-5.7,6.9
	c4.5,0,7.8,0,11.1,0c19.5,0,19.5,0,19.6,6.7c0,7,0,7-19.9,7c-7.2,0-14.4,0.2-21.5-0.1c-3.5-0.1-9.1,2.1-10.1-1.5
	c-1.4-5.3-2.1-11.3,3-16.5C114.9,58,122.3,48.8,131.2,38.5z"/>
<path fill="#BF2634" d="M387.4,46.4c0,10.6-0.3,21.3,0.1,31.9c0.2,5.4-1.7,6.6-6.7,6.4c-11.7-0.5-9.9,1.4-9.9-9.7
	c-0.1-15.1-0.4-30.2,0.1-45.3c0.2-6.5-1.4-9.3-8.1-8c-6.5,1.3-7-2.3-7.1-7.6c-0.1-5.2,0.9-7.9,6.9-7.2c8,0.9,18.8-3.5,23.4,1.7
	c4,4.6,1.2,15.1,1.3,23C387.5,36.5,387.4,41.4,387.4,46.4z"/>
<path fill="#BF2634" d="M90.6,54.7c0,8.2-0.2,16.3,0.1,24.5c0.1,4.1-0.9,5.5-5.3,5.6C74.2,84.8,74.2,85,74.2,74.1
	c0-14.6,0.4-29.2-0.2-43.8c-0.2-6.7,3.7-5.9,7.5-5.5c3.7,0.4,9.6-2.9,9.2,5.3C90.3,38.3,90.6,46.5,90.6,54.7z"/>
<path fill="#BF2634" d="M92.1,10.1c-0.1,5.6-4.3,9.6-10.1,9.3c-5.9-0.3-8.9-3.6-9.2-9.4C72.5,4.7,77.2,0,82.4,0
	C87.5,0,92.1,4.9,92.1,10.1z"/>
</svg>
