<svg xmlns="http://www.w3.org/2000/svg" id="Layer_1" viewBox="0 0 597 491.8"><style>.st0{fill:#BF2533;} .st1{fill:#322B2A;} .st2{fill:#FBF8F6;} .st3{fill:#F5B995;} .st4{fill:#FEFCFC;} .st5{fill:#F1A26F;} .st6{fill:#598AC4;} .st7{fill:#A4A6A9;} .st8{fill:#985D33;} .st9{fill:#E61C24;} .st10{fill:#FEE991;} .st11{fill:#F4B443;} .st12{fill:#F1D55E;} .st13{fill:#E6602E;} .st14{fill:#ED942B;} .st15{fill:#FCD08D;}</style><path d="M110.3 363.1c1.7-6.3-.9-9.9-6.8-12.2-8.2-3.4-15.4-8.8-21.3-15.4-14.2-15.1-13.4-32.7 2.3-46.3 7.7-6.8 17.1-11.4 26.2-16.8-9.4-4.5-18.8-8.2-26.7-14.2-21.3-16.8-25.3-41.5-11.9-72.2 6.8-15.4 16.2-29.3 27-41.8 4-4.5 3.1-6.5-1.7-9.1-3.1-1.7-6.5-2.8-9.9-3.4-9.4-1.7-16.8-6.5-18.8-16.2-2-9.9 1.7-18.8 10.2-24.2 6.3-4 9.1-8.2 10.2-15.6 2-12.8 10.8-19.6 23-21.6 20.5-3.4 39.2 3.4 57.7 11.4 3.4 1.4 6.3 4.8 11.7 3.4-5.4-10.2-9.1-20.5-5.1-31.8 4.3-11.1 11.7-19.3 21.6-25.6 21.3-13.6 57.7-17.6 75 2.3 2.3 2.8 4.8 3.1 8.5 3.1 24.4-.9 43.2 9.7 55.4 30.7 3.7 6.3 7.7 7.7 14.5 7.1 20.5-1.7 40.6-7.4 61.4-4.5 19.9 2.6 38.9 7.1 55.4 19.6 1.7 1.4 3.7 1.7 5.7 2.3 26.7 7.7 47.5 23.3 63.7 45.5 3.4 4.5 7.7 8.2 11.7 12.2 21 21.9 35.5 46.6 37 77.9 0 2 1.1 4 2 6 15.6 48.3 9.7 95.5-11.4 140.1-9.9 21-26.4 39.2-41.5 57.4-13.6 16.8-31.8 27.9-52.3 35.5-10.2 4-20.8 7.7-30.4 12.8-17.9 9.7-36.4 13.4-56.3 10.5-6.5-.9-12.2 2.3-18.2 4.5-41.2 16.2-82.4 15.9-123.7 1.4-12.8-4.5-24.2-11.7-33.3-22.2-5.1-6-13.9-8.2-17.1-16.8 3.7-12.2-2.8-23.3-3.4-35 5.1-.3 10.8-2.6 12.2 5.7 2.3 13.1 5.1 24.7 17.9 33.8 9.7 7.1 17.9 16.2 29.3 20.2 43.2 15.4 85.8 15.1 126.5-8.5 1.4-.9 2-1.1 3.4-.3 14.5 7.7 28.7 4.3 42.6-2s27.9-12.5 41.8-18.5c21.9-9.1 40.4-23 52.3-43.5 5.1-8.8 11.4-16.2 17.9-23.9 11.4-13.4 19-29 23-46.3 4.5-20.8 4-42.4 6.3-63.4 1.7-15.4-1.4-29.6-9.9-42.4-.9-1.1-2-1.7-1.4-3.4 4.8-13.1-1.1-24.4-6.3-35.5-14.5-31-38.7-54.9-64-77-8.8-7.7-20.5-10.5-31.6-14.2-10.2-3.7-18.2-12.8-29.6-15.9-15.9-4.3-31.8-7.1-48.3-4.5-12.5 2-25.3 2.8-38.1 4.8-6.3.9-9.4-1.1-11.9-7.1-6.8-15.1-18.2-26.4-34.7-28.7-13.1-2-26.2-.9-35.2-13.1-1.7-2.3-6.3-3.4-9.7-4-21-3.1-39.5 2.3-54.3 17.6-5.7 6-9.1 13.4-8.8 22.2.6 9.4 9.1 22.2 15.6 23.3 2.6 3.4 5.4 6.8 8 10.2-8 4.5-14.8 3.7-22.5-1.7C173.6 73 154 65.3 132.1 65c-14.8-.3-24.4 8.2-23 20.2.9 6.8-1.4 9.4-6.8 11.7-4.5 2-8.2 5.4-10.5 9.9-5.1 9.9-.6 17.6 11.1 19 8.8 3.4 17.3 7.1 26.2 10.5-3.7 4.5-7.4 9.4-11.4 13.9-11.7 14.8-22.5 30.1-27.9 48.3-9.1 30.4-.3 49.5 29 62 7.7 3.4 15.6 5.7 24.4 9.1-3.7 1.4-6.3 2.6-8.8 3.7-11.7 5.7-23.9 11.1-33.3 20.5-8.2 8.5-10.2 18.8-4.8 27 4.3 6.3 8.5 13.1 15.6 15.4 16.5 5.4 20.8 16.8 18.2 32.1v2c-6.5-2-12.5-4.5-19.6-4.3-.2-.4-.2-1.5-.2-2.9z" class="st0"/><path d="M128.2 136.8c-8.8-3.4-17.3-7.1-26.2-10.5-2.6-17.6 12.5-19.3 23.3-24.7-8.8-12.5-4-23.3 10.5-24.2 21.9-1.1 40.9 6.5 58.6 19 10.8 7.7 21.6 7.1 30.7-2.8-4-2-7.1-6-12.2-6-2.6-3.4-5.4-6.8-8-10.2-4.8-10.8-8.8-21.9.6-32.4 13.6-14.8 30.7-20.8 50.6-17.3 7.7 1.4 14.2 5.1 17.6 12.2 2 4.3 4 4.3 8 3.7 26.4-3.7 46.6 10.5 52.9 36.7 0 2 .3 3.7.3 5.7v6.3c-.9 3.7-2 7.4 3.1 8.8 2.3 2 4.5 4.3 6.5 6.3 6.3 6 8.5 14.2 12.2 21.6 0 4.3.3 8.2.3 12.5-2.8 6-5.7 12.2-9.9 17.6-5.7 2.8-10.8 6.3-17.6 6.3H315c2.6 4 6.3 6.3 7.1 10.5 3.7 8.2 5.1 16.5 3.7 25.3-2.6 5.1-5.4 10.2-8 15.9 12.5-.6 23 2.8 33.3 7.7 0 3.1 1.7 5.1 4 6.5h-.3c1.7 11.7.6 24.2 10.8 33-.6.6-.9 1.1-1.4 1.4-8.8.3-6.5 6.8-7.1 11.9-5.7 4.8-7.7 9.9-1.4 15.9 4 3.7 5.1 8.5 4 13.9-2.6 2.6-4.8 5.4-8.2 6.5-2-.9-4-1.7-6-2.6-2.6-9.4-9.7-5.4-15.4-5.4-3.1-1.1-6.3-.3-8.8 1.7-.6-.3-1.1-.6-1.7-.6-7.4-8-15.1-4.8-23-1.4-4-.9-4-6.8-8.5-7.1-7.1-2.6-13.6-8.2-21.9-3.4-4.3-.3-7.4-2.8-10.8-4.8-8.2-1.1-15.9 1.1-23.3 4.3.3-3.7-3.7-3.4-5.4-5.7 7.7-2.6 15.1-3.1 22.7-3.4 6-.3 13.4.9 17.6-2 4.8-3.1-.6-10.5 1.1-16.2.6-2.6 2.8-5.1.9-8.5-15.1 2.3-29 12.2-45.2 8.8-.6 0-1.4 1.4-2.3 2H211c-15.9-5.7-29.8 4.5-44.3 7.1-17.1 3.1-33.5 11.4-47.8 22.2-9.9 7.7-10.2 15.6-.6 23.6 7.7 6.3 16.2 10.5 25.3 13.9 2.8-4 1.1-9.1 5.4-11.7-.3 7.4 2 9.9 9.9 8.2 14.8-3.1 30.1-1.7 45.2-2.6h23.3c-7.4-4.3-14.8-6.3-23-5.7-16.8-.9-33.5-2-50-2.8 16.5-4.3 33.3-2.3 49.7-2 8.2 1.4 16.5 2.8 25.3 4.5.3-8.2 1.4-16.5-7.7-21 7.1 1.7 8-4.5 10.8-8.5 1.4 8.5 2.6 17.1 4 25.6-2.8 15.4 3.4 28.4 9.9 41.2 2.3 5.1 4.8 10.5 7.1 15.6.9 7.7 5.4 13.1 11.9 15.6 4.5 1.7 7.1-3.4 9.7-6.5 8-3.4-2.6-7.1 0-10.8 6.8 3.7 13.1 2.8 19.3-2 5.1-3.7 11.1-6 16.8-8.8 2-.6 4-1.4 5.7-2 3.4-.3 7.1-.9 9.7-3.7 4-1.4 7.7.3 11.7.3 2.3 2 4.5.3 6.8.3 8 2.8 15.4-2.8 23.3-1.7 2.8 2.8 0 8.8 5.4 9.9 3.1 2.6 6 4.8 9.1 7.4.9.9 1.4 1.7 2.3 2.6 8 8.2 9.4 19.9 15.4 29-1.7 3.1-3.4 6.3-1.1 9.9-1.1 5.7-1.7 11.4-5.4 16.2-1.4 2-3.1 4-4.5 6-10.5 9.4-22.5 15.9-36.1 18.8-24.2 5.1-48.6 6.3-72.5-.6-30.1-8.5-55.1-23.3-60.3-58.6-.6-2.8-1.1-7.1-5.7-6-5.7 1.1-11.9-.6-16.8 3.4-.6.3 1.1 3.1 1.7 4.5.9 11.7 7.4 22.7 3.4 35-.9 1.1-1.7 2.3-2.6 3.1-.6 1.7-1.1 3.4-1.4 5.1v.9c-4.3.9-6.8 4.3-10.2 6.5-15.9 5.4-31.3 13.1-48.3 14.2-28.1 2-56 1.7-81-14.2-13.4-8.5-21.3-20.5-19.6-37.2 4-33.8 37.5-56.9 70.2-48 6.8-.3 13.1 2.3 19.6 4.3 3.7 2 7.4 5.1 12.5 4.8-.6-6.5-2.6-12.8-1.4-18.5 2.3-11.7-2.8-17.3-12.8-21.6-11.1-4.5-21.6-11.7-22.2-24.7-.6-13.4 11.7-18.5 21.3-24.2 11.7-7.1 24.4-11.4 38.4-16.8-18.2-4.5-35.5-7.7-50-17.9-13.1-9.1-19.3-20.8-16.5-37.2 4.8-26.4 19.9-46.6 37-65.9 3.1-3.4 7.7-6 8.8-12.5-6.4 1.2-11.8 1.2-16.9 1.2zm161.2 23.9c7.4.9 10.8-1.1 6-8.8-1.4-2.3-4.5-6.3-5.1-6-3.7 2.3-7.1 5.1-8 9.9-.6 0-2 .3-2 .3 1.1 11.1-.6 21.9-2.8 32.4-.3 1.7.3 5.7 4.8 6.8 1.7-11.6-1.4-24.4 7.1-34.6zM305 279.8c-1.7-2.6-3.1-2.8-4.3.3-4.5 3.1-1.4 6.5.6 9.1 6.3 9.1 30.7 14.2 40.4 8.5 2.6-1.4 4.3-3.4 3.7-6.8 1.4-5.1 2.3-10.5 4.8-15.1 7.1-13.4.9-26.7.9-40.4 0-2.3-2.8-5.1-4.8-6.5-11.9-8.8-38.9-1.1-45.5 12.8.6 8.8 6.5 9.4 13.4 9.1 9.1-.3 18.2-3.1 26.7 1.7-.3 2.8-2 2.6-4.5 2.6-9.1-.3-18.2 0-27.3-.3-6-.3-9.9 2-11.7 8-1.1 9.1 6.3 10.5 12.2 12.5 5.4 2 11.7 1.1 16.8 4.5-7.1 5.1-13.9-.6-20.8-.6l-.6.6zM148.1 456.9l.6-.6c17.9.3 32.7-7.1 45.2-19.3 2-2 5.1-5.1 2.8-8.2-2.8-3.7-5.4.6-8.2 1.4-6 1.7-10.8 8.8-18.2 4 6.8-2.8 13.6-5.4 19.6-10.5-12.5-8.8-23.6-18.5-31.8-31.3 3.7 0 7.4.9 11.1 0 16.5-3.1 33.3-4.8 50-6.3 10.2 1.4 20.8-.3 32.1 2.6-5.1-12.2-9.9-23.3-14.5-34.4-8-20.2-8-20.2-30.1-19-16.8 0-33.8-1.1-50.6 1.7-5.1.9-7.7 2.6-7.7 7.7-.6 16.5-.6 32.7 9.4 46.9-6.8 1.7-10.5-4.3-15.4-6.8-16.8-8.2-33-17.3-52.9-11.9-22.2 2-39.5 18.8-42.6 40.4-.6 4.5 1.1 6.5 4.8 9.1 11.1 7.7 23.6 10.5 35.8 15.1-1.4 2.3-3.1 1.4-5.4 1.1-11.1-2.3-21.6-5.1-32.7-9.9 4 12.2 13.4 20.5 29.6 25.6 22.5 7.1 45.2 8.2 68.2 3.7 0-.3.6-.8.9-1.1zm141.3-4.8c25.6 5.1 50.6 4.3 75.3-4.5 9.1-3.1 17.1-8.5 22.7-16.5.9-1.4 2-3.7 1.4-4.8-1.1-2.6-3.4-.9-5.4-.3-6 2-12.2 3.7-18.2 5.4-25 6.5-50.6 4.3-75.9 4.5-2.8-1.1-6.3.6-8.2-2.6 3.1-.3 6-.6 9.1-.9 15.9.3 32.1 1.7 47.8.3 17.1-1.7 34.1-5.4 49.2-15.1 4.8-3.1 6-6 5.1-11.1-3.7-23-22.7-38.9-47.2-39.2-29.3-2.8-51.2 12.8-71.9 30.4-8 6.8-14.2 15.4-23.9 19.6 4 6 12.2 5.1 15.4 11.7-8.2 1.4-13.4-5.7-20.8-7.7-2.3 6.8 1.1 10.8 6 14.5 11.6 8.6 25 14 39.5 16.3zm11.1-222.9c5.1-1.1 13.6-1.4 11.9-8.2s1.1-10.5 3.7-15.4c6.5-11.4 4.5-23.9-4.8-30.7-2-8.5-8.8-6.8-14.5-6.3-6.3.6-7.4 5.7-7.1 11.1.3 3.4.6 7.1.9 10.5 2 23 4.8 46.1-13.4 65.1-3.7 3.7-5.4 9.9-4.5 15.9-3.1 10.8 4 15.4 11.9 18.8 2.8 1.4 7.1 3.4 9.9.9 2.6-2.3-1.1-5.7-.9-8.8 1.7-3.4 4.3-6.5.9-10.5-4.5-5.7-3.1-11.1.9-16.5 1.1-1.4 3.1-2.8 2.3-4.3-5.5-8.2-.1-14.8 2.8-21.6zm-139.3-116l.9.9c-10.2 8-23.3 8.5-35.8 13.6 9.4 5.1 17.1.6 24.4-1.4 12.5-3.1 23.3-11.7 36.7-12.8-8.2 7.7-19.6 11.1-25.9 21-.6.3-1.1.6-1.7 1.1.9 1.1 1.7.9 2.3-.3 3.7.9 8.8-.9 10.8 4.5-15.4 0-27.3 6-36.1 17.9-3.7 4.8-8 9.1-11.1 14.2-9.9 14.8-18.5 30.4-19.6 48.6-.9 15.4 4 23 18.2 28.7 14.5 6 29.6 10.2 44.9 12.5 23.3 3.1 46.6 4.5 69.1-3.7 1.7 0 3.4.3 4.5-1.7 16.8-6 30.1-15.6 31.6-34.7 1.4-17.9 1.4-36.1-18.8-46.3 5.7-2 13.9 2.6 15.1-7.7.9-9.7-2-16.5-11.1-20.8-7.1-3.4-12.5-2.6-15.4 5.1-9.7-11.1-20.2-19.9-31.6-27.9-6.8-4.8-11.4-13.1-21-12.8 4-8.2.6-12.8-7.4-15.9-10.2-4-20.5-7.4-31.3-10.2-6.3-1.7-12.5-2-18.8 0-3.4 1.1-7.4 2.6-7.4 6.5 0 4.5 4.3 5.4 7.7 6.3 11.1 2.3 22.5 4 35 6.3-4.8 4.3-9.7 3.4-13.6 2.3-11.4-3.1-21.9-.9-32.1 2.8-5.4 2-15.1 3.4-13.4 9.4 1.4 5.7 10.8 5.1 17.6 3.4 1.4-.3 2.8-.9 4-1.1 9.7-2.7 19.6-5.2 29.3-7.8zm96.6 13.1c11.1 3.7 11.1 16.2 18.2 23.6 2.6-2.6 5.4-4.5 7.7-7.4 5.7-6.8 10.2-8.5 14.8 1.4 1.7 3.7 5.1 6.8 8.5 9.4 8.5 6.8 25.3 7.1 35.2.6 7.7-4.8 10.8-11.9 8-20.8-2-17.1-14.2-29.6-28.4-29.3 9.1-11.7 9.4-21.6 1.1-34.7-9.7-20.2-36.7-26.7-49.7-12.5-4.3-2.6-2.6-7.7-4.3-11.4-2.6-5.4-5.1-10.2-11.7-10.8-7.7-.6-15.4-1.1-22.7 1.7-16.2 1.7-27.6 10.2-27.9 21-.3 7.4 3.4 13.6 7.7 19.3 7.1 9.1 17.1 11.4 28.1 12.5-5.7 2.8-8.2 9.1-13.4 11.9-7.4 4.3-1.1 5.7 1.1 8.2h-27c.3.9.6 2 1.1 2.6 12.5 10.2 26.4 18.8 38.1 30.1.9.9 2.8 2 3.7 1.4 8-4.5 14.5 1.4 21.9 4.3.2-9.5-8.7-13.7-10.1-21.1z" class="st1"/><path d="M189.3 452.3c3.1-2.6 5.7-6 10.2-6.5 1.4 10.5-6.5 15.9-13.1 21.3-17.3 14.2-38.1 20.5-59.7 23-26.2 3.1-52.3 2.3-77.9-5.7-29-9.4-48.9-31.6-48.9-54 .3-33 24.4-62.3 57.1-68.8 9.7-2 19.6-3.4 29.6-2 0 1.1.3 2.3.3 3.4-6 .9-11.9 1.1-17.6 2.8-24.4 6.8-42.4 30.1-44.1 56.6-1.1 19 13.1 38.1 37.5 46.3 38.9 13.1 77.9 12.5 115.4-6 4.7-2.4 10.7-3.5 11.2-10.4z" class="st0"/><path d="M189.3 452.3c-.3 6.8-6.5 8-10.8 10.2-37.5 18.5-76.5 19-115.4 6-24.4-8.2-38.4-27.3-37.5-46.3 1.4-26.4 19.3-49.7 44.1-56.6 5.7-1.7 11.9-2 17.6-2.8h14.2c2.8 0 5.7 0 8.5.3 0 1.4.3 2.6.3 4-32.7-8.5-66.2 14.5-70.2 48-2 16.8 6 28.7 19.6 37.2 25 15.9 52.9 16.2 81 14.2 17.4-1.1 32.7-8.5 48.6-14.2zm10.5-50.8c-.6-1.7-2-4.3-1.7-4.5 4.8-4.3 11.1-2.3 16.8-3.4 4.5-.9 5.4 3.1 5.7 6 5.1 35 30.1 50 60.3 58.6 23.9 6.5 48.3 5.7 72.5.6 13.6-2.8 25.9-9.4 36.1-18.8.3.9.3 1.7.6 2.6 1.7 4.3 5.4 3.4 8.8 4 8.2 1.7 13.6-4.3 20.5-6.3 17.9-4.8 34.4-13.6 51.2-21.6h-.3c1.7 0 3.4-.3 4.5-2.3h-.3c1.4-.9 2.8-1.4 4.3-2.3.9-.9 1.7-1.4 2.6-2.3 13.6-7.4 22.2-19.9 31.6-31.6 1.7-2.3 4-6-1.7-7.1-7.4-3.1-10.5-11.7-17.9-14.5-5.1-6.3-12.5-9.4-18.5-14.5-8.5-6.8-15.9-15.1-25.9-19.9-9.7-9.7-20.5-18.2-31.8-25.6v.3c0-1.4-.9-2-2-2-.9-.6-1.7-1.1-2.6-1.7-.3-1.4-1.1-2-2.6-2.3-4-3.7-8-7.1-11.9-10.8-1.7-2-3.7-4-5.7-6.3h5.4c1.4 2.6 4 3.7 6.5 4.3 1.4 2.3 3.4 4 6.3 4 5.1 3.4 8.5 9.7 15.4 9.9 6.8 6.8 14.8 12.2 23 17.3 9.9 7.1 20.2 14.2 30.1 21.3 9.1 6.5 18.2 13.1 27.3 19.6 4.3 2.8 8.5 6 12.8 8.8 3.7 3.1 7.1 1.1 8.8-1.7 7.7-12.8 19-23.6 21-39.5 2-5.7 2-11.7 2.8-17.6 1.7-11.9.9-23.9 2.8-35.5 2-13.6 2.6-27.3-3.1-40.4-1.1-9.4-6-5.4-10.5-3.1-1.4.3-2.8.6-4.5 1.1h-4c-.9 0-1.7.3-2.6.3-4.3 1.4-8.8.6-12.8 3.4-10.2.9-20.2 3.4-30.1 6.3-.6 0-1.1.3-1.7.6-4.3.3-8.8-.3-12.8 1.7-13.9 1.1-27.6 4.8-40.6 9.9-9.4 1.1-17.9 6.3-27.6 5.1 4.5-5.4 12.8-3.4 17.3-8.8 13.4-.6 25.6-6 38.1-10.2 2.6 0 4.8.3 6.5-2.3.6 0 1.1-.3 1.7-.6 16.2-3.7 32.1-8.2 47.8-14.2.6 0 .9-.3 1.1-.6 1.7.3 3.7.3 4.8-1.4 6.3-1.7 12.5-3.4 18.8-5.1 14.5-2.8 3.1-10.8 3.4-16.5-1.1-2-.3-5.1-3.1-6.5 0-1.7 0-3.7-2.3-4.3.3-2 0-3.7-2.3-4.3.3-2 0-3.7-2.3-4.3.3-2-.6-3.7-2.3-4.8-1.4-2-2.8-4-4-6-.3-1.7-.3-3.7-2.3-4.3-.3-1.4-.9-2.3-2.3-2.3-3.4-8.5-11.1-13.1-17.1-19-.6-1.1-1.4-2-2-3.1 0-.6-.3-1.1-.9-1.1-6.8-8.8-12.5-18.8-24.4-21.6-4.3-7.7-11.7-10.2-19-12.5-8.5-5.4-8 2.8-10.5 6.8-1.7 3.4-3.1 6.8-4.8 10.2-4 6.5-8 13.1-8.8 21-4.5 5.4-8.2 10.8-10.5 17.6-2.3 1.7-3.1 4-3.7 6.5-1.4 2.8-2.8 5.4-4.3 8.2-6.3 5.1-4 12.5-4.8 19-4.5-.6-7.4.6-5.4 6.3-5.1 2-4.5 6.8-5.1 11.1-.9.6-1.4 1.4-2.3 2-2 .9-1.7 2.8-2 4.3-1.4.9-2 2.8-4.3 2.3v-4.5c4.5-11.1 8.8-22.2 13.4-33.3 8.8-20.8 18.2-41.2 25.3-62.5 2.3-1.7 2-4 1.7-6.3 1.7-3.4 3.1-7.1 4.8-10.5 1.7-2 4.8-4.5 1.4-6.5-12.8-8.2-27.9-11.9-42.6-14.2-5.7-.9-12.2 1.7-18.8 1.4-15.1-1.1-29.6 3.7-44.3 3.1-6.3-26.4-26.4-40.6-52.9-37-4 .6-6 .6-8-3.7-3.4-7.1-9.7-10.8-17.6-12.2-19.9-3.4-37 2.6-50.6 17.3-9.7 10.5-5.4 21.6-.6 32.4-6.5-1.1-15.1-14.2-15.6-23.3-.3-8.8 2.8-16.2 8.8-22.2 15.1-15.4 33.5-20.5 54.3-17.6 3.4.6 8 1.4 9.7 4 9.1 11.9 22.2 11.1 35.2 13.1 16.5 2.3 27.9 13.6 34.7 28.7 2.6 6 6 8 11.9 7.1 12.5-1.7 25.3-2.8 38.1-4.8 16.5-2.6 32.4.3 48.3 4.5 11.4 3.1 19.3 12.2 29.6 15.9 11.1 4 22.5 6.5 31.6 14.2 25.6 22.2 49.5 45.8 64 77 5.1 11.1 11.1 22.5 6.3 35.5-.6 1.7.6 2.3 1.4 3.4 8.5 12.8 11.9 27.3 9.9 42.4-2.3 21-1.7 42.6-6.3 63.4-4 17.3-11.7 32.7-23 46.3-6.5 7.7-12.5 15.1-17.9 23.9-11.9 20.5-30.4 34.1-52.3 43.5-13.9 6-27.9 12.2-41.8 18.5s-28.1 9.7-42.6 2c-1.4-.9-2-.6-3.4.3-40.6 23.6-83.3 23.6-126.5 8.5-11.7-4-19.6-13.4-29.3-20.2-12.5-9.1-15.6-20.8-17.9-33.8-.8-8-6.4-5.4-11.6-5.4zm-71.6-264.7h16.5c-.9 6.5-5.7 8.8-8.8 12.5-17.1 19.3-32.4 39.5-37 65.9-2.8 16.5 3.4 28.1 16.5 37.2 14.5 10.2 31.8 13.1 50 17.9-13.6 5.4-26.7 9.9-38.4 16.8-9.7 5.7-21.9 10.8-21.3 24.2.6 13.1 11.1 20.2 22.2 24.7 10.2 4.3 15.1 9.9 12.8 21.6-1.1 5.7.9 11.9 1.4 18.5-5.1.3-8.8-2.6-12.5-4.8 0-.6-.3-1.4 0-2 2.3-15.6-1.7-26.7-18.2-32.1-7.1-2.3-11.4-9.4-15.6-15.4-5.4-8.2-3.7-18.5 4.8-27 9.4-9.7 21.6-14.8 33.3-20.5 2.6-1.1 5.1-2.3 8.8-3.7-8.8-3.1-16.8-5.7-24.4-9.1-29.3-12.8-38.1-31.6-29-62 5.4-18.5 15.9-33.8 27.9-48.3 3.3-5 7.3-9.8 11-14.4z" class="st2"/><path d="M212.9 87.6c5.1 0 8 4 12.2 6-9.1 9.9-20.2 10.5-30.7 2.8-17.3-12.5-36.7-20.2-58.6-19-14.5.9-19.3 11.7-10.5 24.2-10.8 5.4-25.9 7.1-23.3 24.7-11.7-1.4-15.9-9.1-11.1-19 2.3-4.5 6-8 10.5-9.9 5.4-2.6 7.7-4.8 6.8-11.7-1.4-12.2 8.2-20.5 23-20.2 21.9.3 41.5 8 59.1 20.8 7.8 5 14.9 5.9 22.6 1.3z" class="st2"/><path d="M238.5 258.5c-22.7 8.2-46.1 7.1-69.1 3.7-15.4-2.3-30.4-6.5-44.9-12.5-14.2-5.7-19.3-13.4-18.2-28.8 1.1-18.6 9.7-33.9 19.6-48.8 3.4-5.1 7.4-9.4 11.1-14.2 9.1-11.7 21-18 36.1-18-2.3-5.7-7.1-3.7-10.8-4.5l-.9-.9c6.3-9.9 17.9-13.4 25.9-21.1h-.3c1.7-.3 3.7 0 4.5-2.3v.3c9.7-.3 14.5 8.2 21 12.8-.9.9-1.7 1.4-2.6 2.3-7.7.3-15.6 0-16.8 10.8 4.3-8.8 12.5-6 19-7.1 7.1 13.9 22.2 24.5 19.3 43-13.4 2.8-21.3 10.2-24.2 24-2.3 10.5-1.4 20.9 3.7 29.9 5.4 9.1 2 11.7-6.5 14.5-13.9 4.8-28.1 3.1-44.3 4.3 16.8 7.7 31.6 2.6 45.8-.6 8-1.7 17.3-2.8 21.3-12.2 4.3 1.4 5.4-1.4 6-4.5 5.1-4.3 7.4-10.5 10.8-15.9 4.8-6 3.4-13.4 4.8-20.3 7.7 19.7 8.2 39-4.3 57.1-1.7 2.6-3.1 4.5-2.3 7.4-1.1-.7-2.6-.4-3.7 1.6zm-48.6-75.6c-1.4-14.8-12.8-13.1-22.7-13.9 2.8-2.3 4.8-4.8 5.7-8.5 1.4-5.7.9-11.4-4.8-13.6-6.5-2.6-9.7 2.8-11.4 8.2-1.4 4.3-1.4 8.8-2.3 14.2h11.7c-1.1 3.4-6.3 5.7-1.1 10.8 7.1 7.1 6 14.2-3.1 19-7.1 3.7-14.8 6.3-22.2 9.4-15.6-6.8-16.8-14.5-3.4-33-8.8 2.6-11.7 8.5-12.8 15.6-1.4 8.2 2.3 14.8 9.4 18.5 15.1 8 31 9.4 46.9 3.1 8.5-3.4 14.2-9.4 15.1-18.8.1-4.2 2.1-10.2-5-11zm37.8-21.9c-10.8-12.8-21.3-12.2-31 1.4 9.7-6.3 19.9-4.8 31-1.4z" class="st3"/><path d="M272.9 56.4c13.1-14.5 40.1-7.7 49.7 12.5-5.4 13.4-14.5 21-29.6 21.6-5.1.3-3.7 3.7-1.1 5.4 8.8 6.3 18.2 11.1 29.6 7.7 14.2-.3 26.4 12.5 28.4 29.3-10.5 7.1-21.3 8.5-32.4 2-7.1-4.3-12.5-10.2-17.1-17.1-8.2-12.2-17.9-13.4-29.3-4-4.3 3.4-8.2 8-13.9 8.8-1.7-1.4-3.4-3.4-6.3-2.3-4.3-8.8-13.6-8.2-21-11.1-2.3-2.6-8.5-4-1.1-8.2 5.1-2.8 7.7-9.1 13.4-11.9-11.1-1.1-21-3.4-28.1-12.5-4.5-5.7-8-11.9-7.7-19.3.3-10.8 11.7-19.6 27.9-21 10.2 6.3 18.2 13.4 17.6 27.3-.3 7.4 8.5 10.2 15.1 5.7 4.2-3.3 6.5-7.5 5.9-12.9zM87.6 437.8c-12.2-4.5-25-7.4-35.8-15.1-3.7-2.6-5.4-4.5-4.8-9.1 2.8-21.6 20.5-38.1 42.6-40.4-3.1 11.1-1.1 15.1 9.7 17.6 4.5 1.1 9.1 1.7 13.6 2 30.1 2.8 42.1 16.8 40.4 46.6-4-2.3-8.2-2-12.2-.3-12.8-.9-25.6-.9-38.1 0-1.7-1.4-3.4-1.4-4.8.6-4.1-.7-7.2-1.3-10.6-1.9zm257.5-70.5c24.4.3 43.2 16.5 47.2 39.2.9 5.1-.3 8-5.1 11.1-15.1 9.7-32.1 13.6-49.2 15.1-15.9 1.4-31.8 0-47.8-.3-1.1-14.2 5.7-24.4 17.3-31.3 7.1-4.3 15.1-7.7 22.5-11.7 9.1-4.1 14.5-11.5 15.1-22.1zm-125.9 18.8c-16.8 1.4-33.5 3.1-50 6.3-3.7.6-7.4 0-11.1 0l-.3-.3c-10.2-14.2-9.9-30.4-9.7-46.9.3-5.1 2.6-6.8 7.7-7.7 16.8-2.8 33.8-1.7 50.6-1.7 4.2 16.5 8.5 33.5 12.8 50.3z" class="st4"/><path d="M242.2 257.1c-.6-2.8.6-5.2 2.4-7.5 12.8-18.1 12.2-37.7 4.4-57.7-2.9-3.4-1.4-9.2-7-10.9-.3-6.9-7-5.8-10.8-8.3 2.9-18.7-12.8-29.4-19.8-43.5-.9-1.1-1.7-2.6-2.7-3.7.9-.9 1.7-1.4 2.7-2.3 11.7 8.1 22.4 17 32.4 28.3 3.2-7.8 8.7-8.6 15.8-5.2 9 4.4 12.2 11.2 11.4 21.1-1.1 10.3-9.6 5.8-15.5 7.8 20.4 10.6 20.4 29.1 19.3 46.9-1.6 18.8-15.4 28.9-32.6 35z" class="st5"/><path d="M149 324.7c-4.3 2.6-2.3 8-5.4 11.7-9.1-3.4-17.6-7.7-25.3-13.9-9.7-8-9.4-15.6.6-23.6 14.2-11.1 30.7-19.3 47.8-22.2 14.5-2.6 28.4-12.8 44.3-7.1-2.6 6.8-5.7 13.6-4.3 21-3.7 2.3-4 5.7-3.1 9.7-7.1.9-13.9 1.4-21 2.3-4.8-2-10.5.9-15.4-2.3-1.1-3.1 2.8-8.2-3.4-9.7-6.3 1.1-11.9 3.4-17.3 6.5-3.7 2.3-6.5 6.3-1.4 8.8 5.1 2.6 4.8 7.1 6.8 10.8.7 3.5-4.4 4.6-2.9 8z" class="st6"/><path d="M345.1 367.3c-.6 10.5-6 17.9-15.1 22.5-7.4 4-15.4 7.4-22.5 11.7-11.7 7.1-18.5 17.1-17.3 31.3-3.1.3-6 .6-9.1.9-5.4-1.4-11.1-3.1-16.5-4.5-2.8-6.5-11.1-5.7-15.4-11.7 9.7-4.5 16.2-13.1 23.9-19.6 20.8-17.8 42.7-33.4 72-30.6zm-192.2 72.3c1.7-29.8-10.5-43.5-40.4-46.6-4.5-.6-9.1-1.1-13.6-2-10.8-2.6-12.8-6.5-9.7-17.6 19.9-5.7 36.1 3.4 52.9 11.9 5.1 2.6 8.5 8.5 15.4 6.8l.3.3c8.2 12.8 19.3 22.5 31.8 31.3-6 5.4-13.1 7.7-19.6 10.5-5.4 2.5-11.1 4.5-17.1 5.4zm104.4-317c6-1.1 9.7-5.4 13.9-8.8 11.4-9.4 21-8.2 29.3 4 4.5 6.8 9.9 12.8 17.1 17.1 11.4 6.5 22.2 5.1 32.4-2 2.8 9.1-.3 15.9-8 20.8-10.2 6.5-27 6.3-35.2-.6-3.4-2.6-6.8-5.7-8.5-9.4-4.5-9.7-9.1-8.2-14.8-1.4-2.3 2.6-5.1 4.8-7.7 7.4-7.1-7.4-6.8-19.9-18.2-23.6v.3c-.1-1.2-.1-2.4-.3-3.8z" class="st7"/><path d="M296.8 262.7c1.7-6 5.7-8.2 11.7-8 9.1.3 18.2 0 27.3.3 2.3 0 4.3.3 4.5-2.6 6-1.1 6.3-4.3 2.3-7.7-2.8-2.6-6.8-3.1-10.8-3.1-10.5.3-21 0-31.3 0 6.8-13.9 33.8-21.6 45.5-12.8 2.3 1.7 4.8 4.3 4.8 6.5 0 13.4 6.3 27-.9 40.4-2.6 4.5-3.1 9.9-4.8 15.1-16.8 5.7-35.5 1.4-40.1-11.4 6.8 0 13.6 5.7 20.8.6 1.4 0 2.8-.3 4.3 0 5.1.3 11.7 0 11.7-6 0-4.3-6.8-4.8-11.4-4.5-12 .6-22.8-2.8-33.6-6.8z" class="st3"/><path d="M161.2 113.2c-9.9 2.6-19.9 5.4-29.6 8-1.4.3-2.8.9-4 1.1-6.5 2-15.9 2.3-17.6-3.4-1.7-5.7 8-7.4 13.4-9.4 10.5-3.7 21-6 32.1-2.8 4 1.1 9.1 2 13.6-2.3-12.2-2-23.6-4-35-6.3-3.1-.6-7.7-1.7-7.7-6.3 0-4 4-5.4 7.4-6.5 6.3-2 12.5-1.7 18.8 0 10.8 2.6 21 6 31.3 10.2 8 3.1 11.4 7.7 7.4 15.9v-.3c-2 0-3.7 0-4.5 2.3h.3c-13.4 1.1-24.2 9.4-36.7 12.8-7.7 2-15.1 6.5-24.4 1.4 12.5-5.1 25.6-5.7 35.8-13.9.9-.6 3.1 0 2.3-1.7-.4-.8-2.1.1-2.9 1.2z" class="st8"/><path d="M272.9 271.3c-1.1-6 .9-12.2 4.5-15.9 18.2-19 15.4-42.1 13.4-65.1-.3-3.4-.9-7.1-.9-10.5-.3-5.4 1.1-10.5 7.1-11.1 5.7-.6 12.5-2.3 14.5 6.3-1.1 8.5 4 17.9-2.8 25.3-8 8.5-7.7 18.8-7.7 29-2.8 6.8-8.2 13.4-2.6 21.6 1.1 1.4-1.1 2.8-2.3 4.3-4 5.1-5.7 10.8-.9 16.5 3.1 4 .6 7.1-.9 10.5-9.5.2-14.9-6.4-21.4-10.9z" class="st3"/><path d="M289.4 436.1c25.3-.3 50.9 2 75.9-4.5 6.3-1.7 12.2-3.7 18.2-5.4 2-.6 4.3-2 5.4.3.6 1.1-.6 3.4-1.4 4.8-5.7 8.2-13.9 13.4-22.7 16.5-24.4 8.8-49.7 9.7-75.3 4.5-.1-5.4-.1-10.8-.1-16.2zm-201.8 1.7c3.4.6 6.8 1.4 10.2 2 1.7.6 3.7 2.8 5.4-.3 12.2 5.1 24.7 1.7 37.2 2.3 11.7.6 11.7.6 8.5 14.2l-.6.6c-.6.3-.9.9-1.1 1.4-23 4.5-45.8 3.4-68.2-3.7-15.9-5.1-25.6-13.4-29.6-25.6 10.8 4.8 21.6 7.7 32.7 9.9 2 .7 4 1.5 5.5-.8z" class="st9"/><path d="M219.2 386.1c-4.3-16.8-8.5-33.8-12.5-50.6 22.2-1.1 22.2-1.1 30.1 19 4.5 11.1 9.4 21.9 14.5 34.4-11.4-3.1-21.9-1.4-32.1-2.8z" class="st7"/><path d="M390.3 442.1c-.3-.9-.3-1.7-.6-2.6 1.4-2 3.1-4 4.5-6 27.3-2.6 51.5-11.9 72.2-30.1.9-.6 1.7-1.4 2.3-2 14.2-9.4 28.4-18.8 42.6-28.1 5.4 1.1 3.4 4.8 1.7 7.1-9.4 11.7-17.6 24.4-31.6 31.6-.9.9-1.7 1.4-2.6 2.3-1.7.3-3.7 0-4.3 2.3h.3c-1.7 0-3.7 0-4.5 2.3h.3c-10.8.3-20.2 5.4-30.4 8.8-16.1 5-31.7 13.8-49.9 14.4z" class="st10"/><path d="M232.2 294.9c-2.8 3.7-3.7 9.9-10.8 8.5-6.8-11.1-4.5-22.5 0-33.5.9-.9 1.7-2.3 2.3-2 16.2 3.1 30.1-6.8 45.2-8.8 2 3.4 0 6.3-.9 8.5-1.4 5.7 3.7 13.1-1.1 16.2-4.3 2.8-11.7 1.7-17.6 2-7.7.6-15.4 1.1-22.7 3.4 1.7 2.5 5.9 2 5.6 5.7z" class="st6"/><path d="M163.7 290.6c6 1.4 2.3 6.5 3.4 9.7-2.6 3.4-1.4 5.1 2.6 5.1 4.5 0 8.8.9 13.4-.9 6.5.3 13.1.6 19.6.9-.6 5.1.6 9.7 1.7 14.5-16.8 0-33.3-2-49.7 2 16.8.9 33.5 2 50 2.8 0 2-.3 3.7-.3 5.7-15.1.9-30.4-.6-45.2 2.6-8 1.7-10.2-.9-9.9-8.2-1.4-3.4 3.7-4.5 2.8-8 3.7-8.6 7.7-17.4 11.6-26.2z" class="st2"/><path d="M379.2 77.4c6.3.3 13.1-2 18.8-1.4 14.8 2.3 29.8 5.7 42.6 14.2 3.4 2.3 0 4.5-1.4 6.5-11.9-5.1-25-.3-37-4.3-6.3-.6-12.5-1.4-18.5-2-16.2-1.4-32.4-.6-48.3 1.7v-6.3c15.1-.4 29.9-3.3 43.8-8.4z" class="st10"/><path d="M230 109.2c7.4 2.8 16.8 2.3 21 11.1.3 4.3 4 4.5 6.8 6v-.3c1.4 7.7 10.2 11.7 9.9 21.3-7.4-2.8-13.9-8.8-21.9-4.3-.9.3-2.8-.6-3.7-1.4-11.7-11.4-25.6-19.9-38.1-30.1-.6-.6-.9-1.7-1.1-2.6 9.4.3 18.3.3 27.1.3z" class="st8"/><path d="M330 165.2c6.5.3 11.9-3.1 17.6-6.3 6 4.8 10.8 4.3 14.5-2.8.9-1.7 1.1-4.3 3.7-4.8 12.5-2.6 12.5-2.3 9.4-14.5 3.1.3 6-.9 8.8-2.3 2 .9 3.4 2.3 4 4.3v2.3c-5.1 5.1-5.1 10.5-2 16.5-2.6 5.7-7.1 10.5-6.5 17.6-2.8 7.1 6.5 13.9 0 21-2.3.9-4.5 3.4-6.5-.3 2-8.8 2.8-17.6 1.1-27-7.7 4.5-7.7 13.1-13.9 17.1-.9-.3-2-.3-2.8-.6.3-2.8.6-5.4 2.3-8 2-3.4.6-7.1-1.7-9.7-2.6-2.8-6-1.7-9.4-.3-3.1 1.1-5.1 3.4-7.4 5.4-1.7-4.3-5.1-4.8-9.1-4.3-2.1.1-2.1-1.6-2.1-3.3z" class="st11"/><path d="M253.3 377.3c-2.3-5.1-4.8-10.5-7.1-15.6 4.8-3.4 10.2-6 13.6-11.1 8-4 14.8-9.7 21.3-15.6 1.4-1.1 2.6-2.3 4-3.7 4.3-1.4 7.7-3.7 10.8-6.5 6.3-2.6 10.2-9.1 17.1-10.8 0 7.7-8.2 9.4-10.8 15.1l-6.3 6.3c-2.8 1.4-5.1 3.4-6.3 6.5-4.5 2.8-6.5 8-9.1 12.2-1.1.9-2.6 2-3.7 2.8-2.3.6-4 1.4-3.7 4.3l-.6.6c-6.5 1.4-8.8 8-13.6 11.4-1.6 1.3-3.6 2.7-5.6 4.1z" class="st2"/><path d="M364.7 265.6c.6-.6.9-1.1 1.4-1.4-10.2-8.8-9.1-21.3-10.8-33 5.7 5.7 5.7 5.7 7.1 1.7 3.4 2.8 1.7 10.2 7.1 10.2 6.3 0 8.5-6.3 11.1-11.1.9-1.7 1.7-3.7 2.6-5.4 3.7-.6 4-4.8 6.5-6.3.6 0 1.4.3 2 .6-.9 3.7-5.4 6.3-4 10.8-.6 2-.3 4.5-1.7 6-6.3 8.2-7.4 15.1 7.4 18.5-5.4 2.6-9.4 4.3-8.5 8.8-.3.3-.6.6-.9 1.1.3-.3.9-.6 1.1-.6 2 .3 4.8-.6 5.1 2.3.3 3.4-2.8 4.3-5.7 4.3-1.7-1.7-3.7-3.1-5.4-4.8-.6-1.1-1.1-2.6-2-3.7-.6-1.7-.3-3.7-1.4-4.8-1.4-1.1-2.8.6-2.8 1.7.6 5.4-5.7 8-4.8 13.4-2.3.6-4.5.9-7.7 1.4 1.8-3.7 3.2-6.6 4.3-9.7z" class="st11"/><path d="M204.1 319.9c-1.1-4.8-2.6-9.7-1.7-14.5 1.1-1.7 2-3.1 3.1-4.8.3-3.1.9-6.5 1.1-9.7-1.4-7.7 1.7-14.2 4.3-21h10.5c-4.5 11.1-6.8 22.5 0 33.5 9.1 4.5 8.2 12.8 7.7 21-8.5-1.7-16.8-3.1-25-4.5zm68.8-263.5c.6 5.4-1.4 9.7-6 12.8-6.5 4.5-15.4 1.7-15.1-5.7.6-13.9-7.7-21-17.6-27.3 7.4-2.8 15.1-2.3 22.7-1.7 6.5.3 9.1 5.4 11.7 10.8 1.7 3.7 0 8.5 4.3 11.1zM148.7 456c3.4-13.6 3.4-13.6-8.5-14.2 0-.9.3-1.7.3-2.6 4.3-1.7 8.2-2 12.2.3 6-.9 11.9-2.6 17.3-5.4 7.4 4.8 12.2-2.3 18.2-4 2.8-.9 5.4-5.1 8.2-1.4 2.3 3.1-.9 6.3-2.8 8.2-12.2 12-27 19.4-44.9 19.1z" class="st7"/><path d="M466.5 403.4c-20.8 18.2-44.9 27.6-72.2 30.1 3.7-4.8 4.3-10.5 5.4-16.2 3.4-1.1 7.4-.9 9.4-4.8 3.7 1.7 7.4 2.6 11.1 0l1.7 1.7c-2 2.8-6.5 3.1-7.4 8.2 17.3-7 33.8-15.5 52-19z" class="st12"/><path d="M321.5 103.6c-11.4 3.4-20.8-1.4-29.6-7.7-2.6-1.7-4-5.1 1.1-5.4 14.8-.6 24.2-8.2 29.6-21.6 8.3 13 8 23-1.1 34.7zm-32.1 332.5V452c-14.5-2.3-27.9-7.7-39.8-16.5-4.8-3.4-8.2-7.7-6-14.5 7.4 2 12.5 9.1 20.8 7.7 5.4 1.4 11.1 3.1 16.5 4.5 2.2 3.5 5.6 2.1 8.5 2.9z" class="st7"/><path d="M345.7 311.6c2 .9 4 1.7 6 2.6.9 2 2.3 3.4 4.3 4-2.3 11.4-10.8 18.8-17.6 27.6-8 2.8-14.2 3.1-12.8-8.5v-6c5.6-7.7 8.7-18 20.1-19.7z" class="st13"/><path d="M338.6 345.7c6.5-8.8 15.1-16.2 17.6-27.6 6.3-2.3 14.2-2 14.8-11.7.9-.6 1.7-.9 2.6-1.4-.3 3.7-.3 7.1-.6 10.8-6.3 4.8-4.5 14.2-11.1 18.8-1.1-2.8 2-7.1-2.3-9.4-5.4 7.1-2.6 14.5-.9 21.6 0 .6.3.9.3 1.4 0-.6.3-.9.3-1.4.3-.9.3-1.4.6-2.3 3.7 2.8 10.2 4 8.5 11.1-3.4.9-6.3-.6-8.8-2.3-8-5.7-11.4-1.1-14.2 5.7-2.3 0-4.8 1.7-6.8-.3-.3-3.6 0-8.1 0-13z" class="st12"/><path d="M277.2 357.1c1.1-.9 2.6-2 3.7-2.8 3.7.9 7.4.9 11.1-.3 3.1 3.1 6.8 6 11.4 7.1 3.1.6 7.4-1.4 8 4.3-5.7 2.8-11.7 5.1-16.8 8.8-6.5 4.5-12.5 5.4-19.3 2-9.4-3.4-1.1-9.4-2-14.2l.6-.6c2.4-.3 3-2 3.3-4.3z" class="st13"/><path d="M325.5 331.2v6c-5.4 1.7-2.6 8-6.3 10.8-8.5.3-11.1-5.7-12.5-12.5-.6-2.8.3-6.5-4.5-6.5 2.6-5.7 10.8-7.4 10.8-15.1 5.1 1.1 7.4-2 8.2-6.3 2.6-2 5.7-2.8 8.8-1.7 0 3.7.3 8.5-2.6 9.9-9 4.6-3.1 10.3-1.9 15.4z" class="st12"/><path d="M357.3 129.1c-3.7-7.4-6-15.6-12.2-21.6l.3-.6c9.9 1.1 19.9 2.3 29.6 3.4-1.7.6-3.1 1.1-4.5 2-2.3 1.4-5.1 2.6-5.1 6 0 .6 1.4 1.4 2.3 1.4 3.1.3 6.3.6 8.5-2.6 1.4-2.3 1.1-4.5.6-7.1 4.8 2.8 10.2-2 15.4.9-8.2 5.1-4.8 14.8-8.5 21.9-7.9-9.1-16.7-8.5-26.4-3.7z" class="st14"/><path d="M362.4 232.9c-1.4 3.7-1.4 3.7-7.1-1.7h.3c0-3.1-1.1-5.4-4-6.5-.6-5.1-4-8.8-6.3-13.1l-.6-.9-1.1.3h.3c-5.1-13.1-10.8-25.6-21-35.5-.9-4.3-4.5-6.5-7.1-10.5h14.5c0 1.7 0 3.4 1.7 4 8.2 19.6 16.5 39.2 28.4 57.1-.3 2 0 3.7 1.7 4.8-.2 1.1.1 1.7.3 2z" class="st2"/><path d="M266.4 295.4c8.2-4.8 14.8.9 21.9 3.4.3 8-7.7 12.2-9.1 19.3-5.7 1.1-11.4 4.3-17.3 1.1 1.1-4.8-2.3-9.1-2.3-13.6 2.8-3.4 9.9 0 10.8-6.5.3-.3.3-.6.6-.9-.3.3-.3.6-.6.9-2.3 0-4-.8-4-3.7z" class="st12"/><path d="M300.5 229.2c0-10.2-.3-20.5 7.7-29 7.1-7.4 1.7-16.8 2.8-25.3 9.4 6.8 11.4 19.3 4.8 30.7-2.8 4.8-5.4 8.2-3.7 15.4 2 6.8-6.2 7.1-11.6 8.2z" class="st5"/><path d="M400.8 407.4c-6-9.1-7.4-20.8-15.4-29 4.3-.3 8.8-.6 13.4-.9 6.3 6 13.4 11.7 12.5 21.9-.9 1.4-1.7 2.6-2.3 4-2.2 2.6-4.2 5.2-8.2 4z" class="st13"/><path d="M236.2 320.4c-1.4-8.5-2.6-17.1-4-25.6 7.4-3.1 15.1-5.4 23.3-4.3-.6 2.8 1.1 6.3-2 8.5-1.7-2-2.8-6-6-5.4-3.1.9-3.7 4.8-4.5 8-.6 3.1-.6 6.8 1.4 9.1 4.8 5.4 3.1 10.5.3 15.9-4.8 1-5.6-4.2-8.5-6.2z" class="st14"/><path d="M373.2 305.4c-.9.6-1.7.9-2.6 1.4-3.4 2.8-6.8 4.8-10.8.9 1.1-5.4-.3-10.2-4-13.9-6.3-6-4.3-11.1 1.4-15.9l11.1 11.1c.6 4.5 3.1 8.2 5.7 11.9.7 1.6.7 3.3-.8 4.5z" class="st15"/><path d="M361.9 335.2c6.5-4.5 4.8-13.9 11.1-18.8 2 17.3 1.7 34.7 1.1 52-5.7-1.1-2.6-7.4-5.4-9.9 0-.6-.3-1.4-.3-2 1.7-7.1-4.5-8-8.5-11.1v-2.8c2.3-2 2.5-4.5 2-7.4z" class="st14"/><path d="M374.1 368.5c.3-17.3.9-34.7-1.1-52 .3-3.7.3-7.1.6-10.8 1.4-1.4 1.4-3.1.9-4.8 1.7-4-1.4-8.8 2.6-12.2.3 3.4.3 7.1.6 10.5 1.4 22.2 2.8 44.3 4.3 66.2.6 3.4.9 6.8 1.4 10.5-3.3-2.6-6.2-5.1-9.3-7.4z" class="st2"/><path d="M296.8 262.7c10.8 4 21.6 7.4 33.5 6.5 4.3-.3 11.4.3 11.4 4.5 0 6-6.5 6-11.7 6h-4.3c-5.1-3.4-11.4-2.6-16.8-4.5-5.9-1.9-13.3-3.4-12.1-12.5z" class="st5"/><path d="M374.9 137.1c3.1 11.9 3.1 11.9-9.4 14.5-2.3.6-2.8 2.8-3.7 4.8-3.7 7.1-8.5 7.7-14.5 2.8 4.5-5.1 7.1-11.4 9.9-17.6 6.4-1.7 12.1-3.1 17.7-4.5z" class="st12"/><path d="M278.9 318.5c1.4-7.1 9.4-11.4 9.1-19.3 4.5.3 4.5 6.3 8.5 7.1-.3 6.3-.3 12.5-.6 18.8-3.1 2.8-6.5 5.4-10.8 6.5-2-4.6-4-8.9-6.2-13.1zm104.3 57.4c-.6-3.4-.9-6.8-1.4-10.5 3.1-2.6 6.3-5.1 8-8.8 2.3.3 4.5.3 6.5.6 1.4 1.4 2.8 2.6 4.3 4 .3 2 0 4.8 1.1 5.7 6.8 6 1.7 8.2-3.1 10.8-4.5.3-8.8.6-13.4.9-.3-1-1.2-1.9-2-2.7z" class="st14"/><path d="M311.3 365.1c-.6-5.4-5.1-3.4-8-4.3-4.5-1.1-8-3.7-11.4-7.1-.9-4 1.4-8.5-2.3-11.9 1.1-3.1 3.4-5.1 6.3-6.5-.6 4.3 2.6 6.5 5.4 8.2 7.4 4.8 12.8 10.8 15.6 19.3-1.7.9-3.6 1.4-5.6 2.3z" class="st15"/><path d="M300.2 241.4h31.3c4 0 8 .6 10.8 3.1 4 3.4 3.7 6.5-2.3 7.7-8.5-4.8-17.6-2-26.7-1.7-6.6.6-12.5-.3-13.1-9.1zm4.8 37.8c4.5 12.5 23.3 16.8 40.1 11.4.6 3.4-1.1 5.4-3.7 6.8-9.7 5.7-34.1.9-40.4-8.5-1.7-2.6-5.1-6-.6-9.1 1.4 0 2.8-.3 4.3-.3l.3-.3z" class="st5"/><path d="M335.1 92.2c16.2-2.3 32.1-2.8 48.3-1.7-.9 3.7-3.7 3.4-6.5 4-12.8 2-25.9 4.3-38.7 6.5-4.8-1.4-3.9-5.1-3.1-8.8z" class="st12"/><path d="M236.2 320.4c3.1 2 3.7 7.1 8.8 6.3.6 2 1.4 4.3 2 6.3-4.5 4.3-6 10.2-2.3 15.1 4 5.1 9.9 4.3 15.4.6 0 .9.3 1.4.3 2.3-3.4 5.1-8.8 7.7-13.6 11.1-7.2-13.2-13.4-26.6-10.6-41.7zm108.9-108.8c2.3 4.3 5.7 8 6.3 13.1-10.2-4.8-20.8-8.2-33.3-7.7 2.8-5.4 5.4-10.8 8-15.9 6.3 2.6 9.7 9.9 17.3 9.9h-.3c0 .6.3 1.1.3 1.7.8-.3 1.1-.8 1.7-1.1z" class="st11"/><path d="M317 363.1c-2.6-8.5-8.2-14.5-15.6-19.3-2.8-1.7-6-4-5.4-8.2l6.3-6.3c4.8 0 3.7 3.7 4.5 6.5 1.7 6.8 4 12.8 12.5 12.5.9 4.8 3.7 8 7.1 11.1-2.3 2.5-5.8 3.1-9.4 3.7z" class="st14"/><path d="M296.2 324.7c.3-6.3.3-12.5.6-18.8 8-3.4 15.9-6.5 23 1.4-2.6 1.7-5.4 3.4-6.5 6.8-7.1 1.5-10.8 8.1-17.1 10.6zm78.7-187.6c-5.7 1.4-11.7 2.8-17.3 4.3 0-4.3-.3-8.2-.3-12.5 9.7-4.5 18.5-5.4 25.9 4 .3.6.3 1.1.6 1.7-2.9 1.6-5.7 2.8-8.9 2.5z" class="st15"/><path d="M343.7 211c-7.7 0-11.1-7.4-17.3-9.9 1.4-8.8 0-17.3-3.7-25.3 10.2 9.6 15.9 22.4 21 35.2z" class="st14"/><path d="M338.6 101c12.8-2.3 25.9-4.5 38.7-6.5 2.8-.6 5.7-.3 6.5-4 6.3.6 12.5 1.4 18.5 2-16.5 3.4-33.3 6.8-49.7 10.2-2.8.6-6.8-1.1-7.1 4l-.3.6c-2.4-2-4.4-4-6.6-6.3z" class="st11"/><path d="M272.9 271.3c6.5 4.5 11.9 11.1 21 10.8-.3 3.1 3.4 6.5.9 8.8-2.8 2.6-7.1.6-9.9-.9-8-3.4-15.1-7.9-12-18.7z" class="st5"/><path d="M253.3 377.3c2-1.4 4-2.8 6.3-4 4.3 5.4 12.2 6.8 15.4 13.4-2.6 3.1-5.1 8.2-9.7 6.5-6.6-2.8-11.2-8.2-12-15.9z" class="st12"/><path d="M326.6 359.4c-3.4-3.1-6.3-6.5-7.1-11.1 3.7-2.8.9-9.1 6.3-10.8-1.4 11.7 4.8 11.1 12.8 8.5 0 4.5 0 9.1-.3 13.6-4-.2-7.7-1.6-11.7-.2z" class="st11"/><path d="M325.5 331.2c-1.4-5.4-7.1-10.8 2.3-15.1 2.8-1.4 2.6-6.3 2.6-9.9 5.7 0 12.8-4 15.4 5.4-11.5 1.7-14.6 12-20.3 19.6z" class="st14"/><path d="M379.2 77.4c-14.2 5.4-29 8-44.1 8.8 0-2-.3-3.7-.3-5.7 15.1.3 29.6-4.5 44.4-3.1z" class="st12"/><path d="M289.4 160.7c-8.5 10.2-5.4 23-6.8 35-4.8-1.1-5.4-5.1-4.8-6.8 2.3-10.8 3.7-21.6 2.8-32.4 0 0 1.1-.3 2-.3 2.2 1.4 4.5 3.1 6.8 4.5z" class="st13"/><path d="M274.9 386.7c-3.4-6.5-11.4-8-15.4-13.4 4.8-3.4 7.1-9.9 13.6-11.4.9 4.5-7.4 10.5 2 14.2-2.8 3.2 8 6.9-.2 10.6z" class="st11"/><path d="M289.4 160.7c-2.3-1.4-4.5-3.1-7.1-4.5.9-4.5 4-7.7 8-9.9.6-.3 3.7 3.7 5.1 6 4.8 7.3 1.4 9.2-6 8.4z" class="st12"/><path d="M368.4 288.9l-11.1-11.1c.3-5.1-1.7-11.9 7.1-11.9-1.1 2.8-2.3 5.7-3.7 9.4 3.1-.6 5.4-1.1 7.7-1.4 3.7 4.8-1.4 9.9 0 15z" class="st14"/><path d="M253.6 299.1c3.1-2.3 1.4-5.7 2-8.5 3.4 2 6.5 4.5 10.8 4.8.3 2.6 1.7 3.7 4.3 3.7-1.1 6.5-8 3.1-10.8 6.5-4.3-.2-4.9-3.6-6.3-6.5zm114.5 57.4c.3.6.3 1.1.3 2-8-1.4-15.4 4.5-23.3 1.7 2.6-7.1 6.3-11.4 14.2-5.7 2.6 1.5 5.7 2.6 8.8 2z" class="st11"/><path d="M204.1 330.4c0-2 .3-3.7.3-5.7 8-.6 15.6 1.1 23 5.7h-23.3z" class="st7"/><path d="M359.9 307.7c4 3.7 7.4 1.7 10.8-.9-.3 9.7-8.5 9.4-14.8 11.7-2-.9-3.4-2-4.3-4 3.7-1.4 6-4 8.3-6.8z" class="st14"/><path d="M400.8 407.4c4 .9 6-1.7 8-4.3 0 3.1.3 6.3.3 9.1-2 4-6 3.7-9.4 4.8-2.3-3.3-.3-6.2 1.1-9.6z" class="st8"/><path d="M313.3 314.2c1.1-3.1 4-4.8 6.5-6.8.6 0 1.1.3 1.7.6-1.1 4.2-3.4 7-8.2 6.2z" class="st2"/><path d="M351.4 224.6c3.1 1.1 4 3.7 4 6.5-2.3-1.3-4-3.6-4-6.5z" class="st11"/><path d="M305 279.8c-1.4 0-2.8.3-4.3.3 1.2-3.1 2.6-2.9 4.3-.3z" class="st3"/><path d="M238.5 258.5c1.1-1.7 2.6-2.3 4.5-1.7-1.1 2-2.8 1.7-4.5 1.7z" class="st5"/><path d="M147 458.3c0-.6.6-1.1 1.1-1.4-.3.3-.9.8-1.1 1.4z" class="st8"/><path d="M161.9 135.4c-.6 1.1-1.4 1.4-2.3.3.6-.3 1.1-.6 1.7-1.1 0 .2.2.5.6.8z" class="st3"/><path d="M519.6 361.4c-4.3-2.8-8.5-6-12.8-8.8 11.9-5.1 7.4-17.3 11.1-26.2v-6.3c5.1-4.3 5.1-9.4 2.3-15.1-2.3-16.2 7.1-29.8 10.8-44.6V311c3.4-9.9 2.3-20.2 3.1-30.4 1.4-18.8 8.8-37.2 3.1-56.3 1.4-.3 2.8-.6 4.5-1.1 1.4 10.8 3.4 21.6 4 32.4 2.1 38.1-11.3 72.2-26.1 105.8z" class="st12"/><path d="M544.4 192.5c-.3 5.7 10.8 13.9-3.4 16.5.6-6.3-1.7-11.7-5.1-16.8-15.4-23.9-35.8-42.9-56.9-61.4-6-5.1-10.2-12.8-18.8-15.1-4.3-2.8-3.4-10.2-10.2-10.5 2.3-4 2-12.2 10.5-6.8-.9.6-3.7 1.1-2.3 1.7 7.4 3.7 12.5 11.4 21 13.4 3.4 3.1 6.5 6.3 9.9 9.1 4.8 3.7 6.8 11.1 14.8 9.9.6 0 1.1.6.9 1.1-.3 2-.6 4.3 2 5.1 3.1 8.2 8.8 13.9 17.1 17.1l2.3 2.3c-.3 2 .3 3.7 2.3 4.3 1.4 2 2.8 4 4 6 0 2 .3 3.7 2.3 4.8 0 1.7.3 3.4 2.3 4.3 0 1.7.3 3.4 2.3 4.3 0 1.7.3 3.4 2.3 4.3-.5 2.4-1 5.3 2.7 6.4zm-24.8 168.9c14.8-33.5 28.1-67.7 25.9-105.5-.9-10.8-2.6-21.6-4-32.4 4.5-2.3 9.4-6.3 10.5 3.1-4.8 6.3 1.1 12.8 0 19-4 23.6.6 47.8-4.8 71.4-.6 2.6.6 2.8 2.6 3.1-2 15.6-13.4 26.7-21 39.5-2.1 2.9-5.5 5.2-9.2 1.8z" class="st10"/><path d="M511.7 373.6c-14.2 9.4-28.4 18.8-42.6 28.1-1.4-2.3-3.4-1.4-5.4-.9-14.2 3.4-27.9 8.8-41.5 13.6l-1.7-1.7c1.1-2 2.3-4.3 3.7-6.3 6-3.4 12.2-6.3 15.4-12.8 3.7-1.4 8.2.9 11.7-2.6 8.8-.9 19 1.7 24.4-9.1 5.4-3.1 11.1-6 13.4-12.2 6.3-1.4 1.7-8 5.1-10.8 7 3 10.1 11.3 17.5 14.7zm-124-232.2v-2.3c12.8 1.4 20.8-8.2 30.4-13.9 7.4-4.5 9.4-10.2 3.4-17.6l.3-.3c5.1-.3 6.8 4.8 10.8 6.3-7.1 21.3-16.5 41.8-25.3 62.5-1.1-5.7 3.1-15.6-9.7-13.1l-6-5.1c-2.2-5.5-4.4-10.6-3.9-16.5z" class="st12"/><path d="M460.2 115.8c8.5 2.3 12.8 9.9 18.8 15.1 21 18.5 41.5 37.5 56.9 61.4 3.4 5.1 5.7 10.5 5.1 16.8-6.3 1.7-12.5 3.4-18.8 5.1 4.8-16.5 2.3-31-10.2-43.8-9.9-9.9-21.3-18.2-32.4-27l-4.3-4.3-4.3-4.3c-.6-.9-1.4-1.4-2-2.3-.2-6.8-7.9-9.9-8.8-16.7z" class="st11"/><path d="M377.5 299.1c-.3-3.4-.3-7.1-.6-10.5.3-2.8.3-5.7.6-8.5 7.1-1.4 13.9 2.6 21 2.3 4 3.7 8 7.1 11.9 10.8.9.9 1.7 1.4 2.6 2.3 0 3.4 0 6.5-.3 9.9-2.8 4-5.4 8-6 13.1h-6.5c-.6-1.4-1.4-1.4-2.6-.3-1.1 0-2.3-.3-3.4-.3 0-3.4-1.4-8-4.5-6.5-8 3.7-7.1-2.8-8.2-6.3-.6-3.1-1.7-4.8-4-6z" class="st13"/><path d="M345.4 107c.3-4.8 4.3-3.4 7.1-4 16.5-3.4 33.3-6.8 49.7-10.2 11.9 4 25-.9 37 4.3-1.7 3.4-3.1 7.1-4.8 10.5-4.3-1.4-8.2-2.8-12.5-4.5-.3-.3-.6-.3-.9-.6.3.3.6.3.9.6v4.3l-.3.3c-7.7-2.6-15.4-1.4-23 0-1.7-.3-3.4 0-4.3 1.7-.9.6-1.4 1.1-2.3 1.7-4.8-2.8-10.2 2-15.4-.9-.6-.3-1.1-.3-1.7 0-9.6-1.2-19.6-2.1-29.5-3.2zm104 217.4c9.9 4.8 17.3 13.1 25.9 19.9-2 5.4-4.8 10.2-8.8 14.2-14.8-4.3-20.5-1.4-21.3 10.8-2 0-4.3-.3-6.3-.3 3.7-8-.3-14.5-4-21 2.3-2.8 4.5-6 6.8-8.8 4-4 10.3-7.1 7.7-14.8zm30.2-181.1c11.1 8.8 22.5 17.1 32.4 27 12.8 12.5 15.1 27.3 10.2 43.8-1.1 1.7-2.8 1.7-4.8 1.4 1.1-7.7 6-15.9-4-21.3 0-4 .9-8.2-4.3-10.2 0-2-.3-3.4-2.3-4.3l-2.3-2.3c-1.4-4-4.5-4.5-8.2-4.3-.6-4-4.3-5.1-6.8-7.7-6.3-6-10.5-13.1-11.1-21.6.6.1.9-.2 1.2-.5z" class="st12"/><path d="M411 284.3c-2.8 0-4.8-1.7-6.3-4 .6-17.9.6-17.6 17.9-24.4 3.7-1.4 6.8-3.7 9.9-5.7 4.5 4.3 4.8 12.8 13.4 12.8v1.7c-7.1.9-9.1 5.7-9.1 11.9-11-5-19.5-2.5-25.8 7.7z" class="st13"/><path d="M398.3 282.4c-7.1.3-13.6-3.7-21-2.3-3.4-5.7-3.7-11.4 0-16.8.6 1.1 1.1 2.6 2 3.7.6 3.4 1.1 6.8 2 11.4 1.7-3.1 2.6-4.8 3.4-6.5 2.8 0 6-.6 5.7-4.3 0-2.8-3.1-1.7-5.1-2.3l-.3-.3c-.9-4.5 3.1-6.3 8.5-8.8-15.1-3.4-13.6-10.2-7.4-18.5 1.1-1.4 1.1-4 1.7-6 1.4 0 2.8-.3 4.3-.3-2.3 7.7 1.7 11.9 8.2 14.8-1.4 3.4-6 4.8-6 8 4.8 3.7 6.5-2.3 9.9-1.7-1.1 7.1-6.3 13.6-2.8 21.6.6 1.1-2.3 2-4 2.3H392c2.8 2 4.5 4 6.3 6z" class="st14"/><path d="M479.6 333c-9.9-7.1-20.2-14.2-30.1-21.3h10.3c1.1 1.4 2.6 2.8 4.3.6 6.3-5.1 6.5-13.6 11.1-19.6 5.1-1.7 10.5 2.6 16.5-1.7 2-1.4 5.7 9.7 9.1 14.5 0 .6 0 1.4-.3 2-5.4-1.1-11.1-2-16.2-3.7-7.1-2-9.4.6-9.4 7.7 0 6.3 5.1 10.8 4.8 17.1-.1 1.5-.1 2.9-.1 4.4z" class="st12"/><path d="M446 263c-8.5 0-8.8-8.5-13.4-12.8 0-1.1-.3-2-.3-3.1 13.1-5.1 26.7-8.5 40.6-9.9-2.8 6-5.7 11.7-8.8 17.6-8.7-4-13.8 1.1-18.1 8.2z" class="st15"/><path d="M479.6 333c0-1.4 0-2.8.3-4.3 9.4.3 17.6 6.5 27.3 4.5.9-.9 1.7-1.4 2.3-2.3 2 0 3.7 0 4.3-2.3l2.3-2.3c.9 0 1.4 0 2.3-.3-3.7 8.5 1.1 21-11.1 26.2-9.6-6.2-18.7-12.7-27.7-19.2z" class="st11"/><path d="M449.4 324.4c2.3 7.7-3.7 10.8-8 15.1-3.4-6.3-2-16.5-13.4-15.9-3.1-8.2-10.5-15.1-10.5-24.7 11.7 7.3 22.3 15.9 31.9 25.5z" class="st14"/><path d="M411 284.3c6.3-10.2 15.1-13.1 25.9-8-.3 9.9 5.7 9.4 12.5 7.7-2 3.1-6 4.5-6.5 8.5-5.4.9-11.4-1.7-16.5 1.7-6.8-.2-10.2-6.4-15.4-9.9z" class="st12"/><path d="M397.7 163c12.5-2.6 8.2 7.4 9.7 13.1-4.5 11.1-8.8 22.2-13.4 33.3-4.5-8.8.3-18.8-3.1-27.9 3.4-3.1 9.9-4.8 4.3-11.4-2.3-2.9 2.2-4.6 2.5-7.1z" class="st14"/><path d="M530.4 260.7c-3.7 14.8-12.8 28.4-10.8 44.6-.6 0-1.1.3-2 .3-3.1-2.8-3.4-7.1-4.3-10.8 7.4-1.1 2.6-6.8 4-10.2 2.3-8 8.5-15.1 4.3-24.2-.6-5.4 1.1-9.9 4.5-13.9-.3-6.8 2-14.8-8.8-15.9v-2c3.7-2.8 8.5-2 12.8-3.4.3 12 .3 23.6.3 35.5z" class="st11"/><path d="M486.1 235.4c.6-.3 1.1-.6 1.7-.6 6.8 1.1 13.1 4 19.3 6.5 1.4 3.7 4 6.3 7.1 8.5-.9 3.7-3.1 6-6.8 6.8-2.3 0-4.3 0-6.5.3-2.3-6.3-8-4.5-12.5-5.1-4-5-6.6-10.1-2.3-16.4z" class="st13"/><path d="M549.5 320.2c-2 0-3.4-.3-2.6-3.1 5.4-23.6.9-47.8 4.8-71.4 1.1-6.3-4.8-12.8 0-19 6 13.1 5.4 26.4 3.1 40.4-1.7 11.7-.9 23.6-2.8 35.5-.5 5.9-.5 11.9-2.5 17.6z" class="st11"/><path d="M516.2 216.1c-15.6 6-31.3 10.8-47.8 14.2 0-1.1.3-2.3.3-3.7 8.5-1.1 5.4-10.5 10.2-14.5 7.7 2.6 15.1 6.3 23 .3 2-1.4 6-.3 9.1-.3.7 3.2 2.7 3.7 5.2 4zm-125.9 226c18.2-.6 33.8-9.4 50.3-15.1 9.9-3.4 19.3-8.5 30.4-8.8-16.8 7.7-33.3 16.8-51.2 21.6-6.8 2-12.5 8-20.5 6.3-3.3-.6-7.3.3-9-4zM413 188c.9-6.5-1.4-13.9 4.8-19 5.7 4.3 8-1.1 10.8-4.3 2 1.4 4 2.8 6.3 4.3v10.8c-2 .9-3.4 2.3-4.3 4.5-3.7 3.4-8.8 5.1-10.8 9.9-.6 0-1.1 0-1.7-.3.1-3.4-1.1-5.9-5.1-5.9z" class="st12"/><path d="M486.1 235.4c-4.3 6-1.7 11.4 2 16.5-8.5 1.7-15.1 7.1-21 13.1-2.3-3.1-2.8-6.5-2.8-10.2 2.8-6 5.7-11.7 8.8-17.6 4.2-2 8.4-1.5 13-1.8z" class="st14"/><path d="M434.6 168.9c-2-1.4-4-2.8-6.3-4.3-1.4-2.6-3.4-4-6.5-4 .6-2.6 1.7-4.8 3.7-6.5 3.4-.6 7.1-1.4 10.5-2 6.8 3.7 11.4 9.4 13.1 17.1 0 1.7 0 3.4-.3 5.1-5.6 1.5-9-3.9-14.2-5.4z" class="st15"/><path d="M460.2 233.2c-12.5 4.3-24.7 9.7-38.1 10.2.6-1.4 1.4-2.6 2-4 9.9-.6 13.1-10.5 20.2-15.1.6.9 1.4 2.3 1.7 2.3 2.3-.6.9-2.8 1.4-4.3 6 1.1 9.4 6.3 14.8 8.2-.6 1.3-1.4 1.8-2 2.7z" class="st14"/><path d="M390.9 181.4c3.4 9.1-1.1 19 3.1 27.9v4.5c-1.4 1.4-2.8 2.8-4.3 4.5 1.7-9.9-4.5-15.6-10.8-21.3v-.3c6.3-7.1-3.1-14.2 0-21 4 1.8 8 3.7 12 5.7z" class="st12"/><path d="M537 224.6c5.7 19-2 37.5-3.1 56.3-.9 10.2.3 20.5-3.1 30.4v-50.6c6.8-11.7 4.3-23.9 2.3-35.8 1 0 2.5 0 3.9-.3z" class="st11"/><path d="M417.6 298.8c0 9.7 7.4 16.5 10.5 24.7-3.7 4-4.8 8.5-4.5 13.9h-6c-2.3-10.8 2.8-22.5-4.8-32.4 0-3.4 0-6.5.3-9.9.9.6 1.7 1.1 2.6 1.7.7.9 1.3 1.5 1.9 2zm14.8-51.7c0 1.1.3 2 .3 3.1-3.4 2-6.5 4.3-9.9 5.7-17.6 6.8-17.6 6.5-17.9 24.4-2.6-.9-5.1-2-6.5-4.3 1.7-.3 4.5-1.1 4-2.3-3.7-8 1.7-14.5 2.8-21.6 9.3 1.3 17.8-3.9 27.2-5z" class="st12"/><path d="M466.5 358.5c4-4.3 6.5-9.1 8.8-14.2 6 5.1 13.4 8.2 18.5 14.5-3.4 2.8 1.1 9.4-5.1 10.8-1.8-15.3-13.7-9.4-22.2-11.1z" class="st11"/><path d="M426.4 294.6c5.1-3.4 11.1-.9 16.5-1.7 1.7 7.1 4 13.9 13.1 14.8 1.1 1.4 2 2.8 3.1 4.3h-9.4c-8.5-5.2-16.2-10.6-23.3-17.4z" class="st14"/><path d="M460.2 115.8c.9 6.8 8.5 9.9 8.8 16.8l-.3.3c-2.6-.9-5.4-1.7-8-2.6-.9-1.4-1.7-2.8-2.3-4-3.1-5.1-7.7-8.5-13.1-10.5 1.7-3.4 3.1-6.8 4.8-10.2 6.7-.1 5.9 7.3 10.1 10.2z" class="st12"/><path d="M445.2 115.8c5.4 2.3 9.9 5.7 13.1 10.5l-.9.9c-2.3-.9-3.7.9-5.7 1.4-4-4-5.1.3-6.5 2.6-2.3 3.4-3.1 8-8.2 8.2-.3-.9-.6-2-.9-2.8 1.1-7.7 5.1-14.3 9.1-20.8zm17 115.1c-5.4-2-9.1-7.1-14.8-8.2-.3-.6-.3-1.4 0-2 2.3-7.7 10.5-8.5 15.1-13.6.6 0 1.4.3 2 .3-7.7 14.8-7.1 16.8 4.5 19.3 0 1.1-.3 2.3-.3 3.7-.6.3-1.1.3-1.7.6-1.7-.1-3.1-.1-4.8-.1zm-38.1 8.5c-.6 1.4-1.4 2.6-2 4-4.3 5.7-12.8 3.4-17.3 8.8-3.7-.6-5.1 5.7-9.9 1.7.3-3.1 4.8-4.8 6-8 7.7.3 10.2-3.7 10.2-10.8 4.3 1.4 8.2 5.1 13.1 2-.4.9-.4 1.8-.1 2.3z" class="st11"/><path d="M398.3 211.6c.3-1.7 0-3.4 2-4.3.9-.6 1.4-1.4 2.3-2 4.8.3 7.7-5.1 12.8-4.3l.6.3c-.9 4.8-1.4 9.4-2.3 14.2-4.3.9-8.5 2-13.1 2.8-2.6-1.6-1.8-4.5-2.3-6.7z" class="st14"/><path d="M506.8 241.4c-6.3-2.8-12.5-5.4-19.3-6.5 9.9-3.1 19.9-5.4 30.1-6.3v2c-5.6 1.4-10.5 4-10.8 10.8z" class="st12"/><path d="M504 132.8c-8 1.1-9.9-6.3-14.8-9.9-3.4-2.8-6.8-6-9.9-9.1 0-.9.3-1.7.3-2.8 11.9 3.1 17.6 13 24.4 21.8z" class="st11"/><path d="M516.2 216.1c-2.3-.3-4.5-1.1-4.8-4 5.7-6 2.3-11.7 0-17.6l.6-.6h1.8c9.9 5.4 5.1 13.9 4 21.3-.7.6-1.3.9-1.6.9z" class="st14"/><path d="M533 224.9c2 12.2 4.5 24.4-2.3 35.8 0-11.9-.3-23.6-.3-35.5.9-.3 1.7-.3 2.6-.3zm-134.7-13.3c.6 2.3-.3 5.1 2.3 6.8 2.8 4-8.8 4.5-2.3 9.7-2 1.1-4 2.3-5.7 3.4-1.4 0-2.8.3-4.3.3-1.4-4.5 2.8-7.1 4-10.8 2.6-1.7 3.7-4 2.3-6.8 1.7.5 2.2-1.8 3.7-2.6zm81.3-100.7c0 .9-.3 1.7-.3 2.8-8.5-2-13.6-9.7-21-13.4-1.7-.9 1.4-1.4 2.3-1.7 7.3 2.4 15 4.7 19 12.3zm44.6 45.2c-8.2-3.1-13.9-8.8-17.1-17.1v-2.3c6 6.4 13.7 10.9 17.1 19.4zm-87.9-19.6c.3.9.6 2 .9 2.8-.3 4.3-.6 8.5-.9 12.8-3.4.6-7.1 1.4-10.5 2 2.3-6.5 6-12.2 10.5-17.6zm-21 64.3c-5.1-.9-8 4.5-12.8 4.3.3-4.3-.3-8.8 5.1-11.1 2.6.9 5.1 2 7.7 2.8-.3 1.4-.3 2.8 0 4z" class="st12"/><path d="M415 196.8c-2.6-.9-5.1-2-7.7-2.8-2-5.4.9-6.5 5.4-6.3 4 0 5.1 2.6 4.8 6-.8 1.4-1.6 2.2-2.5 3.1z" class="st11"/><path d="M421.8 160.7c3.1 0 5.1 1.7 6.5 4-2.8 3.1-4.8 8.5-10.8 4.3 1.8-2.6 3.2-5.5 4.3-8.3z" class="st14"/><path d="M421.8 107.2v-4.3c4.3 1.4 8.2 2.8 12.5 4.5.3 2.3.6 4.5-1.7 6.3-3.9-1.6-5.6-6.7-10.8-6.5z" class="st11"/><path d="M462.2 230.9h4.5c-1.7 2.3-4.3 2.3-6.5 2.3.6-.9 1.4-1.4 2-2.3zm82.2-38.4c-3.7-.9-3.1-4-3.1-6.5 2.8 1.4 1.9 4.5 3.1 6.5zm-2.9-6.5c-2-.9-2.3-2.6-2.3-4.3 2.3.6 2 2.6 2.3 4.3zm-12.8-23.3c-2-.9-2.6-2.3-2.3-4.3 2 .6 2 2.6 2.3 4.3z" class="st12"/><path d="M507.1 137.1v2.3c-2.6-.9-2.3-3.1-2-5.1.6.8 1.5 1.7 2 2.8z" class="st11"/><path d="M475.3 416.5c.9-2.3 2.6-2 4.3-2.3-1.5.9-2.9 1.5-4.3 2.3zm-4.3 2.3c.9-2.3 2.6-2.3 4.5-2.3-1.1 1.7-2.8 2-4.5 2.3zm66.3-241.3c-1.7-.9-2.3-2.6-2.3-4.3 2 .8 2.3 2.6 2.3 4.3zm-2.3-4.3c-2-1.1-2.3-2.8-2.3-4.8 1.7 1.4 2.6 2.8 2.3 4.8zm4.2 8.5c-2-.9-2.3-2.6-2.3-4.3 2.3.9 2.6 2.6 2.3 4.3zM413 295.1c-.9-.9-1.7-1.4-2.6-2.3 1.5.4 2.4.9 2.6 2.3z" class="st12"/><path d="M417.9 299.1l-2-2c.8 0 2 .3 2 2z" class="st14"/><path d="M526.5 158.4l-2.3-2.3c1.4 0 2 .9 2.3 2.3zm-46.9 255.9c.9-.9 1.7-1.4 2.6-2.3-1.2.8-2.1 1.7-2.6 2.3zM402.5 205c-.9.6-1.4 1.4-2.3 2 .6-.5 1.5-1.1 2.3-2z" class="st12"/><path d="M244.8 212.7c-3.4 5.4-6 11.7-10.8 15.9-2.8.3-5.7 1.1-6 4.5-7.7 3.1-10.8-1.4-13.4-7.7-6-14.2-5.7-28.1 3.7-40.6 6.8-9.1 15.9-5.1 24.7-2.8 1.8 10 2.3 20.2 1.8 30.7z" class="st9"/><path d="M139.6 207.9c7.4-3.1 15.4-5.4 22.2-9.4 9.1-4.8 10.2-12.2 3.1-19-5.1-5.1 0-7.4 1.1-10.8l.6-.3.6.3c9.9.9 21.3-.9 22.7 13.9 3.1 13.9-1.7 23-15.1 26.7-11.9 3.7-23.6 3.4-35.2-1.4z" class="st5"/><path d="M243.3 181.7c-8.7-2.3-18-6.3-25.2 2.8-9.9 12.5-9.9 26.4-3.8 40.6 2.7 6.3 5.8 10.8 13.7 7.7-4.1 9.4-13.7 10.5-21.7 12.2-14.8 3.1-29.6 8.2-46.7.6 16.5-.9 31 .6 45.2-4.3 8.7-2.8 11.9-5.4 6.6-14.5-5.5-9.1-6.1-19-3.8-29.8 2.9-13.6 11.3-21 24.7-23.9 4 2.9 10.7 1.8 11 8.6zm-103.7 26.2c11.7 4.8 23.3 5.1 35.2 1.7 13.4-4 18.2-12.8 15.1-26.7 7.1 1.1 5.1 6.8 4.8 10.8-.9 9.4-6.5 15.6-15.1 18.8-16.2 6.3-31.8 5.1-46.9-3.1-7.1-3.7-10.8-10.2-9.4-18.5 1.1-7.1 4-13.1 12.8-15.6-13.3 18.1-12.2 25.8 3.5 32.6zm27.5-38.6l-.6-.3-.6.3h-11.7c.9-5.3.9-10.2 2.3-14.6 1.7-5.3 4.8-10.8 11.4-8.5 5.7 2.4 6 8.2 4.8 14-.7 4.2-2.7 6.8-5.6 9.1zm60.6-8.3c-11.1-3.4-21.3-5.1-31 1.4 10-13.7 20.2-14.2 31-1.4z" class="st1"/><path d="M244.8 212.7c.3-10.2 0-20.8-2-31 5.4 1.7 4 7.4 6.8 10.8-1.4 6.8 0 14.2-4.8 20.2zm-35-85.8c.9 1.1 1.7 2.6 2.6 3.7-6.8 1.1-15.1-1.7-19 7.1.7-10.8 8.7-10.6 16.4-10.8zM228 233.2c.6-3.7 3.1-4.3 6-4.5-.6 3.3-1.8 5.9-6 4.5zm-41.1-119.5c.6-2.6 2.6-2.6 4.5-2.6-.8 2.6-2.8 2.3-4.5 2.6zm70.9 12.6c-2.8-1.4-6.5-2-6.8-6 2.8-1.1 4.5.9 6.3 2.3.2 1.4.2 2.6.5 3.7zm-117.4 313c0 .9-.3 1.7-.3 2.6-12.5-.3-25 2.8-37.2-2.3l-.6-.6c12.8-.6 25.6-.6 38.1.3zm-38.1 0l.6.6c-1.7 2.8-3.7.9-5.4.3 1.4-2.4 3.1-2.4 4.8-.9zm61.4-148.7c-4 8.8-8 17.3-11.9 26.2-2-3.7-1.7-8.2-6.8-10.8-5.1-2.6-2.3-6.5 1.4-8.8 5.1-2.9 11.1-5.2 17.3-6.6zm41.5 9.9c-1.1 1.7-2 3.1-3.1 4.8-6.5-.3-13.1-.6-19.6-.9 0-.3.6-.6.3-.6-.3-.6-.6-.9-.9-1.1 7.1-.9 13.9-1.4 21-2.3l.9.3 1.4-.2z" class="st1"/><path d="M182.5 302.5c.3.3.6.9.9 1.1 0 .3-.3.6-.3.6-4.3 2-8.8.9-13.4.9-4 0-5.1-1.7-2.6-5.1 4.6 3.7 10.3.5 15.4 2.5z" class="st1"/><path d="M205.2 300.5l-1.1.3-.9-.3c-.6-3.7-.3-7.1 3.1-9.7-.2 3.2-.5 6.6-1.1 9.7z" class="st6"/><path d="M161.2 113.2c.9-1.1 2.6-2 3.1-.9.9 1.7-1.4 1.1-2.3 1.7-.3-.2-.5-.5-.8-.8z" class="st1"/><path d="M421.8 414.3c13.6-4.8 27.3-10.2 41.5-13.6 2-.6 4-1.4 5.4.9-.9.6-1.7 1.4-2.3 2-18.2 3.1-34.7 11.7-52 19 1.2-4.9 5.7-5.2 7.4-8.3z" class="st11"/><path d="M398.5 107.8c7.7-1.4 15.4-2.8 23 0 6.3 7.1 4.3 13.1-3.4 17.6-9.7 6-17.6 15.4-30.4 13.9-.6-2-2-3.4-4-4.3 0-.6-.3-1.1-.6-2 4-6.8.6-16.5 8.5-21.9.9-.6 1.4-1.1 2.3-1.7 1.5-.4 2.9-1 4.6-1.6zm-36.1 125.1c-.3-.6-.6-.9-.6-1.4.3-2 .9-4-1.7-4.8.3-6-5.7-13.6 4.8-17.1 1.4-.3 1.1-5.1 1.7-7.7 3.4 0 3.4-4.3 6-5.4 2 3.7 4.3 1.1 6.5.3v.3c0 3.4 0 7.1 2 9.9 4.3 6.3 4.3 12.8 2 19.6-.9 1.7-1.7 3.7-2.6 5.4-2.6 4.8-4.8 11.1-11.1 11.1-5.3.3-3.8-7.4-7-10.2z" class="st13"/><path d="M367 201.6c-.6 2.8-.6 7.4-1.7 7.7-10.8 3.4-4.5 11.1-4.8 17.1-11.7-17.9-19.9-37.5-28.4-57.1 4-.6 7.4 0 9.1 4.3-.6 7.1 2.3 10.8 9.7 10.2 2.6-.3 4.8.3 6.8 2 .9.3 2 .3 2.8.6 3.4 4.4 4.5 10.1 6.5 15.2z" class="st12"/><path d="M390.9 181.4c-4-2-7.7-4-11.7-6-.6-6.8 4-11.7 6.5-17.6 2 0 4-.3 6-.3l6 5.1c-.3 2.6-4.8 4.3-2.8 7.1 5.6 6.9-.6 8.6-4 11.7z" class="st1"/><path d="M367 201.6c-2-5.1-3.1-10.8-6.8-15.4 6-4 6-12.5 13.9-17.1 1.7 9.7.9 18.2-1.1 27-2.6 1.5-2.6 5.5-6 5.5z" class="st15"/><path d="M357.3 186c-2-1.7-4.3-2.3-6.8-2-7.4.6-10.2-3.4-9.7-10.2 2.3-2 4-4.3 7.4-5.4 3.4-1.1 6.8-2.6 9.4.3 2.3 2.6 4 6.3 1.7 9.7-1.1 2.2-1.7 4.7-2 7.6z" class="st1"/><path d="M391.7 157.8c-2 0-4 .3-6 .3-3.1-6-3.1-11.7 2-16.5-.5 5.7 1.7 10.8 4 16.2z" class="st15"/><path d="M278.9 318.5c2 4.3 4.3 8.8 6.3 13.1-1.4 1.1-2.6 2.6-4 3.7-6.3 2.3-14.5-4.3-19.6 4.3-2.8-3.1-4.5-8-10.2-6.8-.6-7.4 5.1-10.2 10.2-13.1 6.2 2.7 11.6-.4 17.3-1.2z" class="st13"/><path d="M261.8 339.2c5.1-8.5 13.1-2 19.6-4.3-6.5 6-13.4 11.7-21.3 15.6 0-.9-.3-1.4-.3-2.3 2.3-2.5 2.9-5.6 2-9zm28.1 2.6c3.4 3.4 1.1 8 2.3 11.9-3.7 1.1-7.4 1.1-11.1.3 2.3-4.3 4-9.1 8.8-12.2z" class="st12"/><path d="M277.2 357.1c-.3 2.3-.9 4.3-3.7 4.3-.3-2.9 1.1-4 3.7-4.3z" class="st11"/><path d="M377.5 263c-4 5.7-3.4 11.1 0 16.8-.3 2.8-.3 5.7-.6 8.5-4.3 3.4-.9 8.2-2.6 12.2-2.6-3.7-5.4-7.4-5.7-11.9-1.4-5.1 3.7-10.2 0-15.1-.9-5.4 5.4-8 4.8-13.4 0-1.1 1.4-3.1 2.8-1.7 1 .9.7 3.2 1.3 4.6z" class="st12"/><path d="M383.2 226.4c2-6.8 2-13.4-2-19.6-2-3.1-2-6.5-2-9.9 6.5 5.7 12.5 11.7 10.8 21.3-.3.6-.3 1.1-.3 2-2.5 1.6-2.8 5.6-6.5 6.2z" class="st14"/><path d="M384.9 271.6c-.9 1.7-2 3.4-3.4 6.5-.9-4.5-1.4-8-2-11.4 1.7 1.7 3.7 3.1 5.4 4.9z" class="st13"/><path d="M389.7 220.1c0-.6 0-1.1.3-2 1.4-1.4 2.8-2.8 4.3-4.5 1.4 3.1.3 5.1-2.3 6.8-.9 0-1.4 0-2.3-.3z" class="st2"/><path d="M385.7 265.3c-.3.3-.9.6-1.1.6.3-.3.6-.6.9-1.1 0 .2.2.5.2.5z" class="st14"/><path d="M423.8 406.3c-1.1 2-2.3 4.3-3.7 6.3-3.7 2.6-7.4 2-11.1 0 0-3.1-.3-6.3-.3-9.1.9-1.4 1.7-2.6 2.3-4 2.8-.6 5.4-1.4 8.2-2 0 .6.3 1.1.6 1.7 1.5 2.3 2.6 4.8 4 7.1z" class="st1"/><path d="M359.9 342.6v2.8c-.3.9-.3 1.4-.6 2.3h-.9c-1.4-7.1-4.5-14.5.9-21.6 4.3 2.3 1.1 6.3 2.3 9.4h.3c-3.2 1.4-2.3 4.3-2 7.1z" class="st8"/><path d="M358.5 347.7h.9c0 .6-.3.9-.3 1.4-.4-.5-.4-1.1-.6-1.4z" class="st11"/><path d="M374.9 110.1c.6-.3 1.1-.3 1.7 0 .3 2.6.9 4.8-.6 7.1-2.3 3.1-5.4 2.6-8.5 2.6-.9 0-2.3-1.1-2.3-1.4 0-3.4 2.6-4.5 5.1-6 1.5-.9 3.2-1.5 4.6-2.3z" class="st8"/><path d="M360.2 226.6c2.6.9 2 2.8 1.7 4.8-1.7-1.4-2-2.8-1.7-4.8z" class="st12"/><path d="M345.1 211.6c-.3.3-.9.6-1.1 1.1 0-.6-.3-1.1-.3-1.7l1.1-.3.3.9z" class="st14"/><path d="M261.8 319.6c-5.1 2.8-10.8 5.7-10.2 13.1-1.4.3-3.1.3-4.5.6-.6-2-1.4-4.3-2-6.3 2.8-5.4 4.5-10.5-.3-15.9-2.3-2.3-2-6-1.4-9.1s1.1-7.1 4.5-8c3.1-.9 4.3 3.1 6 5.4 1.4 2.8 2 6.3 6 6.5-.7 4.6 3 8.6 1.9 13.7z" class="st15"/><path d="M270.6 299.1c.3-.3.3-.6.6-.9-.3.4-.6.6-.6.9-.3 0 0 0 0 0z" class="st11"/><path d="M419.3 397.5c-2.8.6-5.4 1.4-8.2 2 .9-9.9-6.3-15.6-12.5-21.9 4.8-2.6 9.9-4.8 3.1-10.8-1.1-1.1-.9-3.7-1.1-5.7 4.3-3.4 8.5-7.1 12.8 0 1.7 2.8 5.1 2.6 7.4 1.1 9.4-6 11.7.3 13.4 7.4-3.1 2-6.5 1.7-9.9 2.6-10.2 2-10.8 3.4-5.1 12.5.4 4.3.4 8.5.1 12.8zm-59.4-54.9c-.3-2.8-1.1-5.7 2.3-7.4.2 2.9 0 5.4-2.3 7.4zm17.6-43.5c2.3 1.1 3.4 2.8 4.3 5.4 1.1 3.7.3 9.9 8.2 6.3 3.1-1.4 4.5 3.1 4.5 6.5 2.3 4.8 5.1 9.9 4.3 15.6l-4.3 4.3c-9.4 2.6-11.1 10.8-4.3 19-1.7 3.7-5.1 6.3-8 8.8-1.9-21.5-3.3-43.7-4.7-65.9z" class="st12"/><path d="M394.3 337.5l4.3-4.3c6 4 11.4 8.8 19 8.8.3.3.6.3.9.6-.3-.3-.6-.3-.9-.6v-4.3h6c1.4 6 6.3 8.5 11.1 10.8 3.7 6.5 8 13.1 4 21h-4.3c-2-7.1-4.3-13.4-13.4-7.4-2.6 1.7-5.7 2-7.4-1.1-4.5-7.1-8.5-3.4-12.8 0-1.4-1.4-2.8-2.6-4.3-4 4-2 9.7-2.3 8.2-9.1.3-.3.6-.6.9-.6h-.6c-.3.3-.3.6-.3.9-1-5.9-6.7-7.6-10.4-10.7z" class="st11"/><path d="M404.8 348c1.4 6.8-4.3 7.1-8.2 9.1-2.3-.3-4.5-.3-6.5-.6-6.8-8.2-4.8-16.5 4.3-19 3.6 3.1 9.3 4.8 10.4 10.5zM247 333c1.4-.3 3.1-.3 4.5-.6 5.7-1.1 7.4 3.7 10.2 6.8.9 3.4.3 6.5-2 9.1-5.1 3.7-11.4 4.5-15.4-.6-3.2-4.2-2.1-10.2 2.7-14.7z" class="st1"/><path d="M517.9 305.7c.6 0 1.1 0 2-.3 2.8 5.4 3.1 10.5-2.3 15.1 0-2-.3-4-.3-6 .1-3.2.3-6 .6-8.8zm-.3 21c-.9 0-1.4 0-2.3.3-.9-2.6.3-4.8 2-6.5.3 1.9.3 3.9.3 6.2z" class="st10"/><path d="M466.5 358.5c8.5 1.4 20.5-4.3 21.9 11.1-2.3 6.5-8 9.1-13.4 12.2-9.4.6-19.6 7.4-27.6-3.4l-2.8-2.8c1.4-2 2.8-4 .6-6.3.8-12.2 6.5-15 21.3-10.8z" class="st13"/><path d="M444.6 375.9l2.8 2.8c-2.6 2.6-.9 5.4-.6 8.2-3.1-.9-6.3-.6-9.1 1.1-1.1.9-4-.3-3.7 2.3.3 2.3 3.1 2.3 4.8 3.1-3.1 6.5-9.4 9.4-15.4 12.8-1.4-2.3-2.6-4.5-4-6.8 7.7-2.6 9.9-6.5 4-13.1 9.5.4 15.2-5.6 21.2-10.4z" class="st14"/><path d="M447.1 387c-.3-2.8-2-5.7.6-8.2 8 10.8 18.2 3.7 27.6 3.4-5.4 10.5-15.4 8.2-24.2 9.1-1.7-1.8-2.8-2.9-4-4.3z" class="st15"/><path d="M447.1 387c1.1 1.4 2.6 2.8 3.7 4.3-3.4 3.1-8 1.1-11.7 2.6-1.7-.9-4.5-.9-4.8-3.1-.3-2.6 2.6-1.4 3.7-2.3 2.9-2.1 6-2.4 9.1-1.5z" class="st8"/><path d="M471 134.8l4.3 4.3-1.7 1.7c-.9-.6-1.7-1.4-2.6-2v-4c-.3.3 0 0 0 0zm4.3 4.3l4.3 4.3-.9.9c-1.1-.3-2.6-.6-3.7-.9-.6-.9-1.1-1.7-1.4-2.6l1.7-1.7zm-6.3-6.6c.6.9 1.4 1.4 2 2.3l-.3.3c-.9-.6-1.4-1.4-2.3-2l.6-.6z" class="st12"/><path d="M417.6 341.8c-7.7.3-13.1-4.8-19-8.8 1.1-6-1.7-10.8-4.3-15.6 1.1 0 2.3.3 3.4.3.9 0 1.7.3 2.6.3h6.5c.3 8.2 6.3 13.4 10.5 19.3.3 1.6.3 3 .3 4.5z" class="st15"/><path d="M417.6 337.5c-4.3-6-10.2-11.1-10.5-19.3.6-5.1 2.8-9.1 6-13.1 7.3 9.9 2.2 21.9 4.5 32.4z" class="st11"/><path d="M400.2 318.2c-.9 0-1.7-.3-2.6-.3 1.2-1.2 2.1-1.2 2.6.3z" class="st12"/><path d="M398.5 107.8c-1.4.6-2.8 1.1-4.3 1.7.9-2 2.3-2 4.3-1.7z" class="st14"/><path d="M421.8 103c-.3-.3-.6-.3-.9-.6.4.3.7.3.9.6z" class="st11"/><path d="M444.6 375.9c-6.3 4.8-11.9 10.8-20.8 10.2-1.4-.6-2.8-1.1-4.3-1.7-5.7-9.1-5.1-10.8 5.1-12.5 3.4-.6 6.8-.6 9.9-2.6h4.3c2 0 4.3.3 6.3.3 2.3 2.3 1.2 4.3-.5 6.3z" class="st15"/><path d="M434.6 348.3c-5.1-2.3-9.7-4.8-11.1-10.8-.3-5.1.9-9.9 4.5-13.9 11.4-.6 9.9 9.7 13.4 15.9-2.2 2.8-4.5 6-6.8 8.8z" class="st1"/><path d="M475 143.3c1.1.3 2.6.6 3.7.9.9 8.8 5.1 15.6 11.1 21.6 2.3 2.3 6.3 3.4 6.8 7.7 2.3 2.6 4.5 4.5 8.2 4.3 0 1.4.9 2.3 2.3 2.3-.6 2 .3 3.4 2.3 4.3.9 3.4 1.7 6.8 2.6 10.2l-.6.6c-19.6-6-27.9-2-32.1 15.4-1.4-1.1-3.1-2-4.5-3.1.9-4 1.7-8.2 2.3-12.2 8.2-3.7 11.4-10.2 11.1-19 1.7-4.3-2.8-4.3-4.3-6.5-2.3-6.5-6.5-11.1-13.4-13.1 1.7-4.8 3.1-9.1 4.5-13.4z" class="st14"/><path d="M512 194.2c-.9-3.4-1.7-6.8-2.6-10.2 5.1 2 4.3 6.3 4.3 10.2H512zm-7.1-16.5c-3.7.3-6-1.7-8.2-4.3 3.6-.2 6.7.4 8.2 4.3zm4.2 6.3c-2-.9-2.6-2.3-2.3-4.3 2 .9 2.6 2.6 2.3 4.3z" class="st10"/><path d="M507.1 179.7c-1.4 0-2.3-.9-2.3-2.3.9.9 1.5 1.8 2.3 2.3z" class="st10"/><path d="M449.4 284.3c-6.8 1.7-12.8 2-12.5-7.7.3-6.3 2.3-11.1 9.1-11.9 5.4 13.4 13.4 3.7 20.5 2.3 2.6 2.6 1.1 9.1 6.5 8.5 9.7-.9 16.8 5.1 25.6 6.8.9 2 1.7 4 2.3 5.7.9 6 11.4 11.9 0 17.6-3.4-5.1-7.1-16.2-9.1-14.5-6 4.3-11.4 0-16.5 1.7-.6-3.1 4-6 .6-9.4-4.8 2.3-9.4 4.5-13.9 6.8-2.9-4.7-6.9-7.3-12.6-5.9z" class="st11"/><path d="M466.5 267c-7.1 1.4-15.1 11.1-20.5-2.3V263c4.3-7.1 9.4-11.9 18.5-8 0 3.7.6 7.1 2.8 10.2-.8.4-.8 1-.8 1.8zm-74.2-35.8c2-1.1 4-2.3 5.7-3.4 2.8 1.1 6 2 8.8 3.1 1.1 1.4 2.6 2.8 3.7 4.3.3 7.1-2.6 11.1-10.2 10.8-6.3-2.9-10.3-6.9-8-14.8z" class="st1"/><path d="M517.6 320.2c-2 1.7-2.8 4-2 6.5-1.7-.3-2.3.6-2.3 2.3-2-.6-3.4.6-4.3 2.3-.9.9-1.7 1.4-2.3 2.3-9.7 2.3-17.9-4-27.3-4.5.6-6.3-4.8-10.8-4.8-17.1 0-7.1 2.3-9.7 9.4-7.7 5.4 1.4 10.8 2.6 16.2 3.7 4.8 3.7 11.1 4.3 16.5 6.8.7 1.4.7 3.4.9 5.4z" class="st13"/><path d="M461.9 290c4.5-2.3 9.1-4.5 13.9-6.8 3.4 3.4-1.1 6.3-.6 9.4-4.5 6-5.1 14.5-11.1 19.6-1.4-.3-2.8-.3-4.3-.6h-.9c-1.1-1.4-2-2.8-3.1-4.3 4-2.6 6.3-6.3 4-10.8-1.3-2.8-1.3-5.1 2.1-6.5z" class="st15"/><path d="M517.1 314.2c-5.4-2.6-11.7-2.8-16.5-6.8 0-.6 0-1.4.3-2 11.4-6 .9-11.9 0-17.6 5.1.6 6.8-4 10.2-6l.6.6c-.3 4.3-1.1 8.8 2 12.5 1.1 3.7 1.1 8 4.3 10.8-.4 2.8-.6 5.6-.9 8.5zm-57.4-2.6c1.4.3 2.8.3 4.3.6-1.8 2.6-2.9.9-4.3-.6z" class="st14"/><path d="M509.1 331c.9-1.7 2.3-2.6 4.3-2.3-.6 2.3-2.3 2.5-4.3 2.3zm-2.3 2.2c.9-.9 1.7-1.4 2.3-2.3-.6.9-1.4 1.5-2.3 2.3zm6.6-4.2c0-1.4.3-2.6 2.3-2.3-.9.9-1.5 1.4-2.3 2.3z" class="st10"/><path d="M461.9 290c-3.4 1.4-3.4 3.4-2 6.5 2 4.5-.3 8-4 10.8-9.1-.9-11.4-7.4-13.1-14.8.6-4.3 4.5-5.7 6.5-8.5 5.8-1.1 9.8 1.5 12.6 6zm44.9-48.6c.3-7.1 5.1-9.4 10.8-10.8 10.5 1.1 8.5 9.1 8.8 15.9-3.4 3.4-8.2 2.3-12.5 3.4-3.1-2.2-5.6-4.8-7.1-8.5z" class="st1"/><path d="M521.9 260.5c4.3 9.1-2 16.2-4.3 24.2-1.7-1.1-3.4-2.8-5.7-2.3l-.6-.6c2.8-6 2.3-12.5 2.6-18.8 2.6-.8 5.2-1.7 8-2.5z" class="st14"/><path d="M521.9 260.5c-2.8.9-5.4 1.7-8.2 2.6-3.7-.3-6.3-2-6.5-6 3.7-.9 6-3.1 6.8-6.8 4.3-1.1 9.1 0 12.5-3.4-3.7 3.6-5.4 8.2-4.6 13.6z" class="st12"/><path d="M511.7 282.4c2.6-.6 4 .9 5.7 2.3-1.1 3.4 3.4 9.1-4 10.2-2.9-4-2.3-8.3-1.7-12.5z" class="st8"/><path d="M466.5 267c0-.6.3-1.4.6-2 6-6 12.2-11.4 21-13.1 4.5.6 10.2-1.1 12.5 5.1-3.7 8.2-.9 16.8-2 25-8.8-1.4-16.2-7.7-25.6-6.8-5.4.6-4.2-5.6-6.5-8.2z" class="st12"/><path d="M498.6 282.1c1.1-8.2-1.7-17.1 2-25 2.3 0 4.3 0 6.5-.3.3 4 2.8 5.7 6.5 6-.3 6.3.3 12.8-2.6 18.8-3.4 2-5.1 6.8-10.2 6-.8-1.6-1.6-3.5-2.2-5.5z" class="st15"/><path d="M479.3 209.9c4.3-17.3 12.2-21.3 32.1-15.4 2.3 6 5.7 11.7 0 17.6-3.1 0-7.1-1.1-9.1.3-8 6-15.4 2.3-23-.3v-2.2z" class="st13"/><path d="M479.3 209.9c0 .9-.3 1.7-.3 2.3-4.8 4-1.4 13.4-10.2 14.5-11.7-2.6-11.9-4.5-4.5-19.3 3.4-.3 6.8-.3 10.2-.6 1.9 1.1 3.3 2.2 4.8 3.1z" class="st1"/><path d="M430.4 184.3c.6-2.3 2-3.7 4.3-4.5 7.7.9 14.8 2.8 21.6 6.5 0 3.1 2.3 4.3 5.1 4.5-.3 2-.6 4.3-.9 6.3-7.4-1.1-13.4 2-19 6.3.6-4.3 1.4-8.5 2-12.8-.3-1.7-.6-4.5-.9-4.5-2.6 0-2.8 2.3-3.1 4.3h-8.2c-.9-2.1-.9-4.1-.9-6.1z" class="st11"/><path d="M456 186.3c-6.8-3.7-13.9-5.7-21.6-6.5V169c5.1 1.4 8.5 6.8 14.8 5.4 5.3 2.2 5.9 7 6.8 11.9zm-25.6-2v6c-3.4 1.7-7.1 3.1-10.5 4.8l-.6-.6c2.3-5.1 7.4-6.8 11.1-10.2z" class="st14"/><path d="M415 196.8c.9-.9 1.7-2 2.8-2.8.6.3 1.1.3 1.7.3l.6.6c-.3 2.8-.3 6-4.3 6.3l-.6-.3c-.2-1.3-.2-2.7-.2-4.1z" class="st14"/><path d="M456 186.3c-.6-4.8-1.4-9.7-6.5-11.7 0-1.7 0-3.4.3-5.1 10.5 2.3 15.9-2.6 17.3-12.8 1.4 0 2.6 0 4-.3 6.8 1.7 11.1 6.5 13.4 13.1-2.6.6-5.4-1.4-7.7.9 2 6.3 6 7.7 11.9 5.7.3 8.8-2.8 15.4-11.1 19-3.7-8.2-10.2-5.7-16.2-4.3-3.2-.5-5.4-1.4-5.4-4.5z" class="st12"/><path d="M466.8 156.4c-1.4 10.2-6.5 15.1-17.3 12.8-1.7-7.7-6.3-13.4-13.1-17.1.3-4.3.6-8.5.9-12.8 5.1-.6 6-5.1 8.2-8.2 1.7-2.3 2.6-6.5 6.5-2.6.3 6.5 7.4 9.4 8.5 15.4-.8 5.4 3.4 8.5 6.3 12.5z" class="st13"/><path d="M424.1 239.4v-2.3c1.7-.6 1.7-1.4 0-2v-2.3c1.7-.9 2.3-2.6 2.3-4.3 3.1-1.4 4-3.7 1.7-6.5 6-3.7 8-10.5 11.9-15.9.6.6 1.4 1.1 2 1.7-1.7 5.7 2.8 10.5 2.6 16.2-7.4 5.2-10.5 14.9-20.5 15.4z" class="st12"/><path d="M444.3 224.6c.3-5.7-4.3-10.5-2.6-16.2 5.7 2.3 4 8.2 5.7 12.5-.3.6 0 1.4 0 2-.9 1.4.9 3.7-1.4 4.3-.3-.3-1.1-2-1.7-2.6z" class="st8"/><path d="M468.8 133.1c.9.6 1.4 1.4 2.3 2 0 1.1.3 2.6.3 3.7-2.3 0-4.3.3-6.5.3-3.1-2-3.4-5.4-4.3-8.5l.3-.3c2.5.8 5 1.7 7.9 2.8zm-10.6-6.8c.9 1.4 1.7 2.8 2.3 4l-.3.3c-.9-1.1-1.7-2.6-2.8-3.7.3 0 .5-.3.8-.6z" class="st11"/><path d="M457.4 127.1c.9 1.1 1.7 2.6 2.8 3.7.9 3.1 1.1 6.5 4.3 8.5-1.4 1.4-2.8 2.8-4.3 4.5-1.1-6-8.2-8.5-8.5-15.4 2-.7 3.7-2.4 5.7-1.3z" class="st8"/><path d="M447.4 220.7c-1.7-4.3 0-9.9-5.7-12.5-.6-.6-1.4-1.1-2-1.7.6-1.1.9-2.3 1.4-3.4 5.7-4.3 11.7-7.4 19-6.3 2.3 3.1 2.3 6.8 2.3 10.2-4.5 5.1-12.7 6-15 13.7z" class="st12"/><path d="M462.5 207c0-3.7-.3-7.1-2.3-10.2.3-2 .6-4.3.9-6.3 6.3-1.4 12.5-4 16.2 4.3-.9 4-1.7 8.2-2.3 12.2-3.4.3-6.8.3-10.2.6-.9-.3-1.7-.3-2.3-.6z" class="st15"/><path d="M423.8 233.2v4.3c-4.8 3.1-8.8-.6-13.1-2-1.1-1.4-2.6-2.8-3.7-4.3 5.1.6 9.4-1.7 14.2-2.8l.6.6c.6 1.3 1.5 2.8 2 4.2z" class="st14"/><path d="M441.2 203c-.3 1.1-.9 2.3-1.4 3.4-3.7 5.4-5.7 12.2-11.9 15.9-2-.6-4-1.4-6-2-2-3.1-4.8-5.1-8.5-4.8.9-4.8 1.4-9.4 2.3-14.2 4-.3 4-3.4 4.3-6.3 3.4-1.4 7.1-3.1 10.5-4.8h8.2c1.4 0 2.8.3 4.3.3-.7 4.3-1.3 8.6-1.8 12.5z" class="st13"/><path d="M413.6 215.3c4 0 6.5 1.7 8.5 4.8-.3 2.6-.6 5.4-.9 8-4.8.9-9.1 3.4-14.2 2.8-2.8-1.1-6-2-8.8-3.1-6.3-4.8 5.1-5.4 2.3-9.7 4.3-.8 8.6-1.7 13.1-2.8z" class="st15"/><path d="M419.6 384.4c1.4.6 2.8 1.1 4.3 1.7 6 6.5 3.7 10.8-4 13.1-.3-.6-.6-1.1-.6-1.7.3-4.3.3-8.5.3-13.1z" class="st11"/><path d="M404.8 348.3c0-.3 0-.6.3-.9h.6c-.3.3-.6.3-.9.9 0-.3 0 0 0 0z" class="st1"/><path d="M417.6 341.8c.3.3.6.3.9.6-.3-.4-.6-.6-.9-.6z" class="st15"/><path d="M460.5 143.6c1.4-1.4 2.8-2.8 4.3-4.5 2.3 0 4.3-.3 6.5-.3.9.6 1.7 1.4 2.6 2 .6.9 1.1 1.7 1.4 2.6-1.4 4.3-2.8 8.5-4.3 12.8-1.4 0-2.6 0-4 .3-3.1-4.1-7.3-7.2-6.5-12.9z" class="st1"/><path d="M488.4 175.8c-5.7 2.3-9.9.6-11.9-5.7 2.3-2.3 5.1-.3 7.7-.9 1.3 2.3 5.9 2.3 4.2 6.6z" class="st8"/><path d="M442.9 190.5c-1.4 0-2.8-.3-4.3-.3.6-2 .6-4.3 3.1-4.3.6.1.9 2.9 1.2 4.6zm-21.6 37.8c.3-2.6.6-5.4.9-8 2 .6 4 1.4 6 2 2 2.8 1.4 5.1-1.7 6.5h-4.3l-.9-.5z" class="st14"/><path d="M421.8 228.9h4.3c-.3 1.7-.6 3.4-2.3 4.3-.5-1.4-1.4-2.9-2-4.3zm2 8.3v-2c1.7.8 1.7 1.4 0 2z" class="st11"/><path d="M87.6 437.8c8.5-.6 11.7.6 11.7.6l-1.7 2.3-11.9-.9 1.9-2zm52.8 1.5l5.7-1.4s4.8 0 6.8 1.7-2.8 4.5-2.8 4.5l-9.9-2.3.2-2.5z" class="st1"/><path d="M85.8 439.6l27.9 2.5V439l-26.1-1.2m62.5.9l19.9-4.5 4.8 1.4-22.7 6.8m110-16.5l27.3 6.8-6.6 2.3-21.6-5.7" class="st1"/><path d="M163.7 290.6l4.9-14.2 7.4-2-9.1 25.9" class="st2"/><path d="M228.5 237.7l-.5-4.5 5.9-4.6-1.7 4-3.9.6 7.1-6" class="st3"/><path d="M234.8 228.9l-4.3 2.9 1.7 2.8 3.7-2.8" class="st3"/><path d="M228 233.2s0-1.4.6-2 2-2 3.1-2.3 1.7-.3 2.3-.3" class="st9"/><path d="M241.3 177.7l4.9 6.6-2.6 1.7m-7.7 40.6s-5.4 2.8-6.3-11.1-1.1-17.3-.6-23.6c.7-6.2 6.9 34.7 6.9 34.7z" class="st1"/><path d="M224.6 238.6s13.6-8.8 16.8-15.9c3.1-7.1 4.8-11.9 4.8-11.9l-21.6 27.8zm15.6-57.4s2.3-.3 2.8.3c.6.6.9 2 .6 2.6-.3.6-.3-.3-.3-.3" class="st1"/><path d="M244.8 209.9s.9 2 0 4c-.9 1.9 0-4 0-4z" class="st1"/><path d="M228 229.5l3.2-.8-.2 1.2-2.6 1.7" class="st9"/><path d="M226.6 233.6l3.9-1.8-5.2 6.3-3.1 1.3z" class="st1"/></svg>